%TF.GenerationSoftware,KiCad,Pcbnew,9.0.6*%
%TF.CreationDate,2026-02-26T16:37:58-08:00*%
%TF.ProjectId,SnoreSense_Display_PCB_v1,536e6f72-6553-4656-9e73-655f44697370,rev?*%
%TF.SameCoordinates,Original*%
%TF.FileFunction,Copper,L2,Bot*%
%TF.FilePolarity,Positive*%
%FSLAX46Y46*%
G04 Gerber Fmt 4.6, Leading zero omitted, Abs format (unit mm)*
G04 Created by KiCad (PCBNEW 9.0.6) date 2026-02-26 16:37:58*
%MOMM*%
%LPD*%
G01*
G04 APERTURE LIST*
G04 Aperture macros list*
%AMRoundRect*
0 Rectangle with rounded corners*
0 $1 Rounding radius*
0 $2 $3 $4 $5 $6 $7 $8 $9 X,Y pos of 4 corners*
0 Add a 4 corners polygon primitive as box body*
4,1,4,$2,$3,$4,$5,$6,$7,$8,$9,$2,$3,0*
0 Add four circle primitives for the rounded corners*
1,1,$1+$1,$2,$3*
1,1,$1+$1,$4,$5*
1,1,$1+$1,$6,$7*
1,1,$1+$1,$8,$9*
0 Add four rect primitives between the rounded corners*
20,1,$1+$1,$2,$3,$4,$5,0*
20,1,$1+$1,$4,$5,$6,$7,0*
20,1,$1+$1,$6,$7,$8,$9,0*
20,1,$1+$1,$8,$9,$2,$3,0*%
G04 Aperture macros list end*
%TA.AperFunction,ComponentPad*%
%ADD10RoundRect,0.250000X0.625000X-0.350000X0.625000X0.350000X-0.625000X0.350000X-0.625000X-0.350000X0*%
%TD*%
%TA.AperFunction,ComponentPad*%
%ADD11O,1.750000X1.200000*%
%TD*%
%TA.AperFunction,ComponentPad*%
%ADD12R,1.800000X1.800000*%
%TD*%
%TA.AperFunction,ComponentPad*%
%ADD13C,1.800000*%
%TD*%
%TA.AperFunction,ComponentPad*%
%ADD14R,1.700000X1.700000*%
%TD*%
%TA.AperFunction,ComponentPad*%
%ADD15C,1.700000*%
%TD*%
%TA.AperFunction,ComponentPad*%
%ADD16C,2.000000*%
%TD*%
%TA.AperFunction,ComponentPad*%
%ADD17O,1.778000X3.556000*%
%TD*%
%TA.AperFunction,ComponentPad*%
%ADD18C,1.905000*%
%TD*%
%TA.AperFunction,SMDPad,CuDef*%
%ADD19RoundRect,0.250000X0.475000X-0.250000X0.475000X0.250000X-0.475000X0.250000X-0.475000X-0.250000X0*%
%TD*%
%TA.AperFunction,SMDPad,CuDef*%
%ADD20RoundRect,0.250000X0.262500X0.450000X-0.262500X0.450000X-0.262500X-0.450000X0.262500X-0.450000X0*%
%TD*%
%TA.AperFunction,ViaPad*%
%ADD21C,1.250000*%
%TD*%
%TA.AperFunction,Conductor*%
%ADD22C,0.500000*%
%TD*%
G04 APERTURE END LIST*
D10*
%TO.P,J2,1,Pin_1*%
%TO.N,Net-(J2-Pin_1)*%
X153950000Y-92800000D03*
D11*
%TO.P,J2,2,Pin_2*%
%TO.N,/-BAT*%
X153950000Y-90800000D03*
%TD*%
D12*
%TO.P,D1,1,K*%
%TO.N,Net-(D1-K)*%
X132800000Y-94340000D03*
D13*
%TO.P,D1,2,A*%
%TO.N,Net-(D1-A)*%
X132800000Y-91800000D03*
%TD*%
D14*
%TO.P,SW2,1,A*%
%TO.N,Net-(J2-Pin_1)*%
X85600000Y-85400000D03*
D15*
%TO.P,SW2,2,B*%
%TO.N,unconnected-(SW2-B-Pad2)*%
X85600000Y-87940000D03*
%TO.P,SW2,3,C*%
%TO.N,unconnected-(SW2-C-Pad3)*%
X85600000Y-90480000D03*
%TD*%
D16*
%TO.P,SW1,1,1*%
%TO.N,Net-(U1-GPIO8_A9_D9_CIPO)*%
X103600000Y-91000000D03*
X110100000Y-91000000D03*
%TO.P,SW1,2,2*%
%TO.N,GND*%
X103600000Y-95500000D03*
X110100000Y-95500000D03*
%TD*%
D15*
%TO.P,J_MOTOR1,1,Pin_1*%
%TO.N,/M1*%
X117200000Y-65000000D03*
%TO.P,J_MOTOR1,2,Pin_2*%
%TO.N,/M2*%
X117200000Y-72620000D03*
%TO.P,J_MOTOR1,3,Pin_3*%
%TO.N,/M3*%
X94340000Y-72620000D03*
%TO.P,J_MOTOR1,4,Pin_4*%
%TO.N,/M4*%
X94340000Y-65000000D03*
%TD*%
D17*
%TO.P,U1,1,GPIO1_A0_D0*%
%TO.N,/M1*%
X159200000Y-59438000D03*
%TO.P,U1,2,GPIO2_A1_D1*%
%TO.N,/M2*%
X156660000Y-59438000D03*
%TO.P,U1,3,GPIO3_A2_D2*%
%TO.N,/M3*%
X154120000Y-59438000D03*
%TO.P,U1,4,GPIO4_A3_D3*%
%TO.N,/M4*%
X151580000Y-59438000D03*
%TO.P,U1,5,GPIO4_A3_D3_SDA*%
%TO.N,unconnected-(U1-GPIO4_A3_D3_SDA-Pad5)*%
X149040000Y-59438000D03*
%TO.P,U1,6,GPIO6_A5_D5_SCL*%
%TO.N,unconnected-(U1-GPIO6_A5_D5_SCL-Pad6)*%
X146500000Y-59438000D03*
%TO.P,U1,7,GPIO43_TX_D6*%
%TO.N,unconnected-(U1-GPIO43_TX_D6-Pad7)*%
X143960000Y-59438000D03*
%TO.P,U1,8,GPIO44_D7_RX*%
%TO.N,unconnected-(U1-GPIO44_D7_RX-Pad8)*%
X143960000Y-76202000D03*
%TO.P,U1,9,GPIO7_A8_D8_SCK*%
%TO.N,Net-(D1-A)*%
X146500000Y-76202000D03*
%TO.P,U1,10,GPIO8_A9_D9_CIPO*%
%TO.N,Net-(U1-GPIO8_A9_D9_CIPO)*%
X149040000Y-76202000D03*
%TO.P,U1,11,GPIO9_A10_D10_COPI*%
%TO.N,unconnected-(U1-GPIO9_A10_D10_COPI-Pad11)*%
X151580000Y-76202000D03*
%TO.P,U1,12,3V3*%
%TO.N,+3.3V*%
X154120000Y-76202000D03*
%TO.P,U1,13,GND*%
%TO.N,GND*%
X156660000Y-76202000D03*
%TO.P,U1,14,5V*%
%TO.N,+5V*%
X159200000Y-76202000D03*
D18*
%TO.P,U1,15,+BATT*%
%TO.N,unconnected-(SW2-B-Pad2)*%
X133800000Y-65280000D03*
%TO.P,U1,16,-BATT*%
%TO.N,/-BAT*%
X133800000Y-70360000D03*
%TD*%
D19*
%TO.P,C2,1*%
%TO.N,+3.3V*%
X145500000Y-100700000D03*
%TO.P,C2,2*%
%TO.N,GND*%
X145500000Y-98800000D03*
%TD*%
D20*
%TO.P,R2,1*%
%TO.N,+3.3V*%
X156712500Y-84712500D03*
%TO.P,R2,2*%
%TO.N,Net-(U1-GPIO8_A9_D9_CIPO)*%
X154887500Y-84712500D03*
%TD*%
D19*
%TO.P,C1,1*%
%TO.N,+3.3V*%
X142000000Y-100700000D03*
%TO.P,C1,2*%
%TO.N,GND*%
X142000000Y-98800000D03*
%TD*%
D20*
%TO.P,R1,1*%
%TO.N,Net-(D1-K)*%
X123200000Y-98800000D03*
%TO.P,R1,2*%
%TO.N,GND*%
X121375000Y-98800000D03*
%TD*%
D21*
%TO.N,Net-(J2-Pin_1)*%
X144600000Y-85400000D03*
X119200000Y-85400000D03*
%TO.N,unconnected-(SW2-B-Pad2)*%
X124200000Y-90200000D03*
X130000000Y-79400000D03*
%TD*%
D22*
%TO.N,Net-(D1-A)*%
X146500000Y-75440000D02*
X146500000Y-73100000D01*
X127200000Y-68800000D02*
X132800000Y-63200000D01*
X136600000Y-63200000D02*
X135200000Y-63200000D01*
X132800000Y-63200000D02*
X135200000Y-63200000D01*
X146500000Y-73100000D02*
X136600000Y-63200000D01*
X132800000Y-91800000D02*
X127200000Y-86200000D01*
X127200000Y-86200000D02*
X127200000Y-68800000D01*
%TO.N,Net-(D1-K)*%
X127660000Y-94340000D02*
X123200000Y-98800000D01*
X132800000Y-94340000D02*
X127660000Y-94340000D01*
%TO.N,/-BAT*%
X133800000Y-70360000D02*
X153950000Y-90510000D01*
%TO.N,Net-(J2-Pin_1)*%
X152000000Y-92800000D02*
X153950000Y-92800000D01*
X85600000Y-85400000D02*
X119400000Y-85400000D01*
X144600000Y-85400000D02*
X152000000Y-92800000D01*
%TO.N,/M1*%
X140087731Y-62487731D02*
X136000000Y-58400000D01*
X157800000Y-65000000D02*
X142600000Y-65000000D01*
X123800000Y-58400000D02*
X136000000Y-58400000D01*
X117200000Y-65000000D02*
X123800000Y-58400000D01*
X159200000Y-60200000D02*
X159200000Y-63600000D01*
X142600000Y-65000000D02*
X140087731Y-62487731D01*
X159200000Y-63600000D02*
X157800000Y-65000000D01*
%TO.N,/M4*%
X151580000Y-60200000D02*
X151580000Y-57180000D01*
X151580000Y-57180000D02*
X150600000Y-56200000D01*
X105600000Y-65000000D02*
X94340000Y-65000000D01*
X150600000Y-56200000D02*
X114400000Y-56200000D01*
X114400000Y-56200000D02*
X105600000Y-65000000D01*
%TO.N,/M3*%
X88000000Y-59800000D02*
X93000000Y-54800000D01*
X94340000Y-72620000D02*
X93137919Y-72620000D01*
X154120000Y-60200000D02*
X154120000Y-55320000D01*
X88000000Y-67482081D02*
X88000000Y-59800000D01*
X93137919Y-72620000D02*
X88000000Y-67482081D01*
X154120000Y-55320000D02*
X153600000Y-54800000D01*
X153600000Y-54800000D02*
X93000000Y-54800000D01*
%TO.N,/M2*%
X85400000Y-56800000D02*
X89800000Y-52400000D01*
X117200000Y-72620000D02*
X114020000Y-75800000D01*
X153600000Y-52400000D02*
X156660000Y-55460000D01*
X156660000Y-55460000D02*
X156660000Y-60200000D01*
X89400000Y-75800000D02*
X85400000Y-71800000D01*
X114020000Y-75800000D02*
X89400000Y-75800000D01*
X89800000Y-52400000D02*
X153600000Y-52400000D01*
X85400000Y-71800000D02*
X85400000Y-56800000D01*
%TO.N,GND*%
X142000000Y-98800000D02*
X136800000Y-98800000D01*
X121375000Y-100975000D02*
X121400000Y-101000000D01*
X121375000Y-98800000D02*
X121375000Y-100975000D01*
X136800000Y-98800000D02*
X133200000Y-102400000D01*
X122800000Y-102400000D02*
X133200000Y-102400000D01*
X142000000Y-98800000D02*
X145500000Y-98800000D01*
X110100000Y-95500000D02*
X113400000Y-98800000D01*
X121400000Y-101000000D02*
X122800000Y-102400000D01*
X113400000Y-98800000D02*
X121375000Y-98800000D01*
%TO.N,+3.3V*%
X154120000Y-75440000D02*
X154120000Y-79520000D01*
X156712500Y-93587500D02*
X149600000Y-100700000D01*
X154120000Y-79520000D02*
X156712500Y-82112500D01*
X156712500Y-84712500D02*
X156400000Y-85025000D01*
X142000000Y-100700000D02*
X145500000Y-100700000D01*
X156712500Y-84712500D02*
X156712500Y-93587500D01*
X156712500Y-82112500D02*
X156712500Y-84712500D01*
X149600000Y-100700000D02*
X145500000Y-100700000D01*
%TO.N,Net-(U1-GPIO8_A9_D9_CIPO)*%
X110100000Y-91000000D02*
X118000000Y-91000000D01*
X118000000Y-91000000D02*
X124400000Y-84600000D01*
X103600000Y-91000000D02*
X110100000Y-91000000D01*
X124400000Y-84600000D02*
X124400000Y-66800000D01*
X149040000Y-78865000D02*
X149040000Y-75440000D01*
X137840000Y-62000000D02*
X149040000Y-73200000D01*
X124400000Y-66800000D02*
X129200000Y-62000000D01*
X149040000Y-73200000D02*
X149040000Y-75440000D01*
X154887500Y-84712500D02*
X149040000Y-78865000D01*
X129200000Y-62000000D02*
X137840000Y-62000000D01*
%TO.N,unconnected-(SW2-B-Pad2)*%
X130000000Y-69080000D02*
X133800000Y-65280000D01*
X130000000Y-74800000D02*
X130000000Y-69080000D01*
X124200000Y-90200000D02*
X121949000Y-92451000D01*
X90111000Y-92451000D02*
X85600000Y-87940000D01*
X121949000Y-92451000D02*
X90111000Y-92451000D01*
X130000000Y-79400000D02*
X130000000Y-74800000D01*
%TD*%
M02*
