%TF.GenerationSoftware,KiCad,Pcbnew,9.0.6*%
%TF.CreationDate,2026-03-03T11:47:43-08:00*%
%TF.ProjectId,SnoreSense_Display_PCB_v1,536e6f72-6553-4656-9e73-655f44697370,rev?*%
%TF.SameCoordinates,Original*%
%TF.FileFunction,Copper,L1,Top*%
%TF.FilePolarity,Positive*%
%FSLAX46Y46*%
G04 Gerber Fmt 4.6, Leading zero omitted, Abs format (unit mm)*
G04 Created by KiCad (PCBNEW 9.0.6) date 2026-03-03 11:47:43*
%MOMM*%
%LPD*%
G01*
G04 APERTURE LIST*
G04 Aperture macros list*
%AMRoundRect*
0 Rectangle with rounded corners*
0 $1 Rounding radius*
0 $2 $3 $4 $5 $6 $7 $8 $9 X,Y pos of 4 corners*
0 Add a 4 corners polygon primitive as box body*
4,1,4,$2,$3,$4,$5,$6,$7,$8,$9,$2,$3,0*
0 Add four circle primitives for the rounded corners*
1,1,$1+$1,$2,$3*
1,1,$1+$1,$4,$5*
1,1,$1+$1,$6,$7*
1,1,$1+$1,$8,$9*
0 Add four rect primitives between the rounded corners*
20,1,$1+$1,$2,$3,$4,$5,0*
20,1,$1+$1,$4,$5,$6,$7,0*
20,1,$1+$1,$6,$7,$8,$9,0*
20,1,$1+$1,$8,$9,$2,$3,0*%
G04 Aperture macros list end*
%TA.AperFunction,ComponentPad*%
%ADD10RoundRect,0.250000X0.625000X-0.350000X0.625000X0.350000X-0.625000X0.350000X-0.625000X-0.350000X0*%
%TD*%
%TA.AperFunction,ComponentPad*%
%ADD11O,1.750000X1.200000*%
%TD*%
%TA.AperFunction,ComponentPad*%
%ADD12R,1.800000X1.800000*%
%TD*%
%TA.AperFunction,ComponentPad*%
%ADD13C,1.800000*%
%TD*%
%TA.AperFunction,ComponentPad*%
%ADD14R,1.700000X1.700000*%
%TD*%
%TA.AperFunction,ComponentPad*%
%ADD15C,1.700000*%
%TD*%
%TA.AperFunction,ComponentPad*%
%ADD16C,2.000000*%
%TD*%
%TA.AperFunction,ComponentPad*%
%ADD17O,1.778000X3.556000*%
%TD*%
%TA.AperFunction,ComponentPad*%
%ADD18C,1.905000*%
%TD*%
%TA.AperFunction,ViaPad*%
%ADD19C,1.250000*%
%TD*%
%TA.AperFunction,Conductor*%
%ADD20C,0.500000*%
%TD*%
G04 APERTURE END LIST*
D10*
%TO.P,J2,1,Pin_1*%
%TO.N,Net-(J2-Pin_1)*%
X153950000Y-92800000D03*
D11*
%TO.P,J2,2,Pin_2*%
%TO.N,/-BAT*%
X153950000Y-90800000D03*
%TD*%
D12*
%TO.P,D1,1,K*%
%TO.N,Net-(D1-K)*%
X132800000Y-94340000D03*
D13*
%TO.P,D1,2,A*%
%TO.N,Net-(D1-A)*%
X132800000Y-91800000D03*
%TD*%
D14*
%TO.P,SW2,1,A*%
%TO.N,Net-(J2-Pin_1)*%
X85600000Y-85400000D03*
D15*
%TO.P,SW2,2,B*%
%TO.N,unconnected-(SW2-B-Pad2)*%
X85600000Y-87940000D03*
%TO.P,SW2,3,C*%
%TO.N,unconnected-(SW2-C-Pad3)*%
X85600000Y-90480000D03*
%TD*%
D16*
%TO.P,SW1,1,1*%
%TO.N,Net-(U1-GPIO8_A9_D9_CIPO)*%
X103600000Y-91000000D03*
X110100000Y-91000000D03*
%TO.P,SW1,2,2*%
%TO.N,GND*%
X103600000Y-95500000D03*
X110100000Y-95500000D03*
%TD*%
D15*
%TO.P,J_MOTOR1,1,Pin_1*%
%TO.N,/M1*%
X117200000Y-65000000D03*
%TO.P,J_MOTOR1,2,Pin_2*%
%TO.N,/M2*%
X117200000Y-72620000D03*
%TO.P,J_MOTOR1,3,Pin_3*%
%TO.N,/M3*%
X94340000Y-72620000D03*
%TO.P,J_MOTOR1,4,Pin_4*%
%TO.N,/M4*%
X94340000Y-65000000D03*
%TD*%
D17*
%TO.P,U1,1,GPIO1_A0_D0*%
%TO.N,/M1*%
X159200000Y-59438000D03*
%TO.P,U1,2,GPIO2_A1_D1*%
%TO.N,/M2*%
X156660000Y-59438000D03*
%TO.P,U1,3,GPIO3_A2_D2*%
%TO.N,/M3*%
X154120000Y-59438000D03*
%TO.P,U1,4,GPIO4_A3_D3*%
%TO.N,/M4*%
X151580000Y-59438000D03*
%TO.P,U1,5,GPIO4_A3_D3_SDA*%
%TO.N,unconnected-(U1-GPIO4_A3_D3_SDA-Pad5)*%
X149040000Y-59438000D03*
%TO.P,U1,6,GPIO6_A5_D5_SCL*%
%TO.N,unconnected-(U1-GPIO6_A5_D5_SCL-Pad6)*%
X146500000Y-59438000D03*
%TO.P,U1,7,GPIO43_TX_D6*%
%TO.N,unconnected-(U1-GPIO43_TX_D6-Pad7)*%
X143960000Y-59438000D03*
%TO.P,U1,8,GPIO44_D7_RX*%
%TO.N,unconnected-(U1-GPIO44_D7_RX-Pad8)*%
X143960000Y-76202000D03*
%TO.P,U1,9,GPIO7_A8_D8_SCK*%
%TO.N,Net-(D1-A)*%
X146500000Y-76202000D03*
%TO.P,U1,10,GPIO8_A9_D9_CIPO*%
%TO.N,Net-(U1-GPIO8_A9_D9_CIPO)*%
X149040000Y-76202000D03*
%TO.P,U1,11,GPIO9_A10_D10_COPI*%
%TO.N,unconnected-(U1-GPIO9_A10_D10_COPI-Pad11)*%
X151580000Y-76202000D03*
%TO.P,U1,12,3V3*%
%TO.N,+3.3V*%
X154120000Y-76202000D03*
%TO.P,U1,13,GND*%
%TO.N,GND*%
X156660000Y-76202000D03*
%TO.P,U1,14,5V*%
%TO.N,+5V*%
X159200000Y-76202000D03*
D18*
%TO.P,U1,15,+BATT*%
%TO.N,unconnected-(SW2-B-Pad2)*%
X133800000Y-65280000D03*
%TO.P,U1,16,-BATT*%
%TO.N,/-BAT*%
X133800000Y-70360000D03*
%TD*%
D19*
%TO.N,Net-(J2-Pin_1)*%
X144600000Y-85400000D03*
X119200000Y-85400000D03*
%TO.N,unconnected-(SW2-B-Pad2)*%
X124200000Y-90200000D03*
X130000000Y-79400000D03*
%TD*%
D20*
%TO.N,Net-(J2-Pin_1)*%
X119200000Y-85400000D02*
X128600000Y-76000000D01*
X128600000Y-76000000D02*
X135200000Y-76000000D01*
X135200000Y-76000000D02*
X144600000Y-85400000D01*
%TO.N,unconnected-(SW2-B-Pad2)*%
X130000000Y-84400000D02*
X130000000Y-79400000D01*
X124200000Y-90200000D02*
X130000000Y-84400000D01*
%TD*%
%TA.AperFunction,Conductor*%
%TO.N,GND*%
G36*
X161756922Y-44751280D02*
G01*
X161847266Y-44761459D01*
X161874331Y-44767636D01*
X161953540Y-44795352D01*
X161978553Y-44807398D01*
X162049606Y-44852043D01*
X162071313Y-44869355D01*
X162130644Y-44928686D01*
X162147957Y-44950395D01*
X162192600Y-45021444D01*
X162204648Y-45046462D01*
X162232362Y-45125666D01*
X162238540Y-45152735D01*
X162248720Y-45243076D01*
X162249500Y-45256961D01*
X162249500Y-103693038D01*
X162248720Y-103706922D01*
X162248720Y-103706923D01*
X162238540Y-103797264D01*
X162232362Y-103824333D01*
X162204648Y-103903537D01*
X162192600Y-103928555D01*
X162147957Y-103999604D01*
X162130644Y-104021313D01*
X162071313Y-104080644D01*
X162049604Y-104097957D01*
X161978555Y-104142600D01*
X161953537Y-104154648D01*
X161874333Y-104182362D01*
X161847264Y-104188540D01*
X161767075Y-104197576D01*
X161756921Y-104198720D01*
X161743038Y-104199500D01*
X82806962Y-104199500D01*
X82793078Y-104198720D01*
X82780553Y-104197308D01*
X82702735Y-104188540D01*
X82675666Y-104182362D01*
X82596462Y-104154648D01*
X82571444Y-104142600D01*
X82500395Y-104097957D01*
X82478686Y-104080644D01*
X82419355Y-104021313D01*
X82402042Y-103999604D01*
X82357399Y-103928555D01*
X82345351Y-103903537D01*
X82317637Y-103824333D01*
X82311459Y-103797263D01*
X82301280Y-103706922D01*
X82300500Y-103693038D01*
X82300500Y-95381947D01*
X102100000Y-95381947D01*
X102100000Y-95618052D01*
X102136934Y-95851247D01*
X102209897Y-96075802D01*
X102317087Y-96286174D01*
X102377338Y-96369104D01*
X102377340Y-96369105D01*
X103076212Y-95670233D01*
X103087482Y-95712292D01*
X103159890Y-95837708D01*
X103262292Y-95940110D01*
X103387708Y-96012518D01*
X103429765Y-96023787D01*
X102730893Y-96722658D01*
X102813828Y-96782914D01*
X103024197Y-96890102D01*
X103248752Y-96963065D01*
X103248751Y-96963065D01*
X103481948Y-97000000D01*
X103718052Y-97000000D01*
X103951247Y-96963065D01*
X104175802Y-96890102D01*
X104386163Y-96782918D01*
X104386169Y-96782914D01*
X104469104Y-96722658D01*
X104469105Y-96722658D01*
X103770233Y-96023787D01*
X103812292Y-96012518D01*
X103937708Y-95940110D01*
X104040110Y-95837708D01*
X104112518Y-95712292D01*
X104123787Y-95670234D01*
X104822658Y-96369105D01*
X104822658Y-96369104D01*
X104882914Y-96286169D01*
X104882918Y-96286163D01*
X104990102Y-96075802D01*
X105063065Y-95851247D01*
X105100000Y-95618052D01*
X105100000Y-95381947D01*
X108600000Y-95381947D01*
X108600000Y-95618052D01*
X108636934Y-95851247D01*
X108709897Y-96075802D01*
X108817087Y-96286174D01*
X108877338Y-96369104D01*
X108877340Y-96369105D01*
X109576212Y-95670233D01*
X109587482Y-95712292D01*
X109659890Y-95837708D01*
X109762292Y-95940110D01*
X109887708Y-96012518D01*
X109929765Y-96023787D01*
X109230893Y-96722658D01*
X109313828Y-96782914D01*
X109524197Y-96890102D01*
X109748752Y-96963065D01*
X109748751Y-96963065D01*
X109981948Y-97000000D01*
X110218052Y-97000000D01*
X110451247Y-96963065D01*
X110675802Y-96890102D01*
X110886163Y-96782918D01*
X110886169Y-96782914D01*
X110969104Y-96722658D01*
X110969105Y-96722658D01*
X110270233Y-96023787D01*
X110312292Y-96012518D01*
X110437708Y-95940110D01*
X110540110Y-95837708D01*
X110612518Y-95712292D01*
X110623787Y-95670234D01*
X111322658Y-96369105D01*
X111322658Y-96369104D01*
X111382914Y-96286169D01*
X111382918Y-96286163D01*
X111490102Y-96075802D01*
X111563065Y-95851247D01*
X111600000Y-95618052D01*
X111600000Y-95381947D01*
X111563065Y-95148752D01*
X111490102Y-94924197D01*
X111382914Y-94713828D01*
X111322658Y-94630894D01*
X111322658Y-94630893D01*
X110623787Y-95329765D01*
X110612518Y-95287708D01*
X110540110Y-95162292D01*
X110437708Y-95059890D01*
X110312292Y-94987482D01*
X110270234Y-94976212D01*
X110969105Y-94277340D01*
X110969104Y-94277338D01*
X110886174Y-94217087D01*
X110675802Y-94109897D01*
X110451247Y-94036934D01*
X110451248Y-94036934D01*
X110218052Y-94000000D01*
X109981948Y-94000000D01*
X109748752Y-94036934D01*
X109524197Y-94109897D01*
X109313830Y-94217084D01*
X109230894Y-94277340D01*
X109929766Y-94976212D01*
X109887708Y-94987482D01*
X109762292Y-95059890D01*
X109659890Y-95162292D01*
X109587482Y-95287708D01*
X109576212Y-95329765D01*
X108877340Y-94630894D01*
X108817084Y-94713830D01*
X108709897Y-94924197D01*
X108636934Y-95148752D01*
X108600000Y-95381947D01*
X105100000Y-95381947D01*
X105063065Y-95148752D01*
X104990102Y-94924197D01*
X104882914Y-94713828D01*
X104822658Y-94630894D01*
X104822658Y-94630893D01*
X104123787Y-95329765D01*
X104112518Y-95287708D01*
X104040110Y-95162292D01*
X103937708Y-95059890D01*
X103812292Y-94987482D01*
X103770234Y-94976212D01*
X104469105Y-94277340D01*
X104469104Y-94277339D01*
X104386174Y-94217087D01*
X104175802Y-94109897D01*
X103951247Y-94036934D01*
X103951248Y-94036934D01*
X103718052Y-94000000D01*
X103481948Y-94000000D01*
X103248752Y-94036934D01*
X103024197Y-94109897D01*
X102813830Y-94217084D01*
X102730894Y-94277340D01*
X103429766Y-94976212D01*
X103387708Y-94987482D01*
X103262292Y-95059890D01*
X103159890Y-95162292D01*
X103087482Y-95287708D01*
X103076212Y-95329766D01*
X102377340Y-94630894D01*
X102317084Y-94713830D01*
X102209897Y-94924197D01*
X102136934Y-95148752D01*
X102100000Y-95381947D01*
X82300500Y-95381947D01*
X82300500Y-84491966D01*
X83749500Y-84491966D01*
X83749500Y-86308028D01*
X83749501Y-86308034D01*
X83760113Y-86427415D01*
X83816089Y-86623045D01*
X83816090Y-86623047D01*
X83816091Y-86623049D01*
X83910301Y-86803406D01*
X83910305Y-86803412D01*
X83978691Y-86887281D01*
X84005800Y-86951677D01*
X83993790Y-87020507D01*
X83989977Y-87027640D01*
X83936775Y-87119789D01*
X83936773Y-87119794D01*
X83843947Y-87343895D01*
X83781161Y-87578214D01*
X83749500Y-87818711D01*
X83749500Y-88061288D01*
X83781161Y-88301785D01*
X83843947Y-88536104D01*
X83909180Y-88693589D01*
X83936776Y-88760212D01*
X84058064Y-88970289D01*
X84058066Y-88970292D01*
X84058067Y-88970293D01*
X84184077Y-89134514D01*
X84209271Y-89199683D01*
X84195232Y-89268128D01*
X84184077Y-89285486D01*
X84058067Y-89449706D01*
X83936777Y-89659785D01*
X83936773Y-89659794D01*
X83843947Y-89883895D01*
X83781161Y-90118214D01*
X83749500Y-90358711D01*
X83749500Y-90601288D01*
X83781161Y-90841785D01*
X83843947Y-91076104D01*
X83919681Y-91258942D01*
X83936776Y-91300212D01*
X84058064Y-91510289D01*
X84058066Y-91510292D01*
X84058067Y-91510293D01*
X84205733Y-91702736D01*
X84205739Y-91702743D01*
X84377256Y-91874260D01*
X84377263Y-91874266D01*
X84442805Y-91924558D01*
X84569711Y-92021936D01*
X84779788Y-92143224D01*
X85003900Y-92236054D01*
X85238211Y-92298838D01*
X85413015Y-92321851D01*
X85478711Y-92330500D01*
X85478712Y-92330500D01*
X85721289Y-92330500D01*
X85786916Y-92321860D01*
X85961789Y-92298838D01*
X86196100Y-92236054D01*
X86420212Y-92143224D01*
X86630289Y-92021936D01*
X86822738Y-91874265D01*
X86994265Y-91702738D01*
X87141936Y-91510289D01*
X87263224Y-91300212D01*
X87356054Y-91076100D01*
X87411581Y-90868872D01*
X101599500Y-90868872D01*
X101599500Y-91131127D01*
X101621761Y-91300205D01*
X101633730Y-91391116D01*
X101701602Y-91644418D01*
X101701605Y-91644428D01*
X101801953Y-91886690D01*
X101801958Y-91886700D01*
X101933075Y-92113803D01*
X102092718Y-92321851D01*
X102092726Y-92321860D01*
X102278140Y-92507274D01*
X102278148Y-92507281D01*
X102486196Y-92666924D01*
X102713299Y-92798041D01*
X102713309Y-92798046D01*
X102927074Y-92886590D01*
X102955581Y-92898398D01*
X103208884Y-92966270D01*
X103468880Y-93000500D01*
X103468887Y-93000500D01*
X103731113Y-93000500D01*
X103731120Y-93000500D01*
X103991116Y-92966270D01*
X104244419Y-92898398D01*
X104486697Y-92798043D01*
X104713803Y-92666924D01*
X104921851Y-92507282D01*
X104921855Y-92507277D01*
X104921860Y-92507274D01*
X105107274Y-92321860D01*
X105107277Y-92321855D01*
X105107282Y-92321851D01*
X105266924Y-92113803D01*
X105398043Y-91886697D01*
X105498398Y-91644419D01*
X105566270Y-91391116D01*
X105600500Y-91131120D01*
X105600500Y-90868880D01*
X105600499Y-90868872D01*
X108099500Y-90868872D01*
X108099500Y-91131127D01*
X108121761Y-91300205D01*
X108133730Y-91391116D01*
X108201602Y-91644418D01*
X108201605Y-91644428D01*
X108301953Y-91886690D01*
X108301958Y-91886700D01*
X108433075Y-92113803D01*
X108592718Y-92321851D01*
X108592726Y-92321860D01*
X108778140Y-92507274D01*
X108778148Y-92507281D01*
X108986196Y-92666924D01*
X109213299Y-92798041D01*
X109213309Y-92798046D01*
X109427074Y-92886590D01*
X109455581Y-92898398D01*
X109708884Y-92966270D01*
X109968880Y-93000500D01*
X109968887Y-93000500D01*
X110231113Y-93000500D01*
X110231120Y-93000500D01*
X110491116Y-92966270D01*
X110744419Y-92898398D01*
X110986697Y-92798043D01*
X111213803Y-92666924D01*
X111421851Y-92507282D01*
X111421855Y-92507277D01*
X111421860Y-92507274D01*
X111607274Y-92321860D01*
X111607277Y-92321855D01*
X111607282Y-92321851D01*
X111766924Y-92113803D01*
X111898043Y-91886697D01*
X111998398Y-91644419D01*
X112066270Y-91391116D01*
X112100500Y-91131120D01*
X112100500Y-90868880D01*
X112066270Y-90608884D01*
X111998398Y-90355581D01*
X111986944Y-90327929D01*
X111898602Y-90114651D01*
X111898601Y-90114649D01*
X111898050Y-90113319D01*
X111898041Y-90113299D01*
X111874238Y-90072070D01*
X122574500Y-90072070D01*
X122574500Y-90327930D01*
X122580857Y-90368066D01*
X122614526Y-90580640D01*
X122693588Y-90823972D01*
X122693589Y-90823975D01*
X122809750Y-91051950D01*
X122960132Y-91258935D01*
X122960136Y-91258940D01*
X123141059Y-91439863D01*
X123141064Y-91439867D01*
X123237998Y-91510293D01*
X123348053Y-91590252D01*
X123497080Y-91666185D01*
X123576024Y-91706410D01*
X123576027Y-91706411D01*
X123697693Y-91745942D01*
X123819361Y-91785474D01*
X124072070Y-91825500D01*
X124072071Y-91825500D01*
X124327929Y-91825500D01*
X124327930Y-91825500D01*
X124580639Y-91785474D01*
X124823975Y-91706410D01*
X124884755Y-91675441D01*
X130899500Y-91675441D01*
X130899500Y-91924558D01*
X130899501Y-91924575D01*
X130932017Y-92171561D01*
X130996498Y-92412207D01*
X131091830Y-92642361D01*
X131091835Y-92642371D01*
X131091836Y-92642373D01*
X131106010Y-92666924D01*
X131118548Y-92688640D01*
X131135019Y-92756540D01*
X131112167Y-92822567D01*
X131107263Y-92828999D01*
X131060303Y-92886591D01*
X130966089Y-93066954D01*
X130910114Y-93262583D01*
X130910113Y-93262586D01*
X130899500Y-93381966D01*
X130899500Y-95298028D01*
X130899501Y-95298034D01*
X130910113Y-95417415D01*
X130966089Y-95613045D01*
X130966090Y-95613048D01*
X130966091Y-95613049D01*
X131060302Y-95793407D01*
X131060304Y-95793409D01*
X131188890Y-95951109D01*
X131264203Y-96012518D01*
X131346593Y-96079698D01*
X131526951Y-96173909D01*
X131722582Y-96229886D01*
X131841963Y-96240500D01*
X133758036Y-96240499D01*
X133877418Y-96229886D01*
X134073049Y-96173909D01*
X134253407Y-96079698D01*
X134411109Y-95951109D01*
X134539698Y-95793407D01*
X134633909Y-95613049D01*
X134689886Y-95417418D01*
X134700500Y-95298037D01*
X134700499Y-93381964D01*
X134689886Y-93262582D01*
X134633909Y-93066951D01*
X134539698Y-92886593D01*
X134492737Y-92829000D01*
X134465628Y-92764604D01*
X134477637Y-92695774D01*
X134481453Y-92688638D01*
X134508158Y-92642384D01*
X134508165Y-92642371D01*
X134603502Y-92412207D01*
X134667982Y-92171565D01*
X134700500Y-91924565D01*
X134700500Y-91675435D01*
X134667982Y-91428435D01*
X134603502Y-91187793D01*
X134508164Y-90957627D01*
X134489882Y-90925962D01*
X134383598Y-90741871D01*
X134331548Y-90674038D01*
X152074500Y-90674038D01*
X152074500Y-90925962D01*
X152113910Y-91174785D01*
X152191759Y-91414379D01*
X152191760Y-91414382D01*
X152191761Y-91414383D01*
X152297733Y-91622366D01*
X152310629Y-91691036D01*
X152289177Y-91749276D01*
X152232995Y-91830369D01*
X152232991Y-91830377D01*
X152139903Y-92035318D01*
X152139902Y-92035321D01*
X152084905Y-92253579D01*
X152084904Y-92253586D01*
X152074500Y-92385777D01*
X152074500Y-93214208D01*
X152074501Y-93214223D01*
X152084904Y-93346413D01*
X152084905Y-93346420D01*
X152139902Y-93564678D01*
X152139903Y-93564681D01*
X152232991Y-93769622D01*
X152232997Y-93769632D01*
X152361174Y-93954645D01*
X152361178Y-93954650D01*
X152361181Y-93954654D01*
X152520346Y-94113819D01*
X152520350Y-94113822D01*
X152520354Y-94113825D01*
X152659603Y-94210297D01*
X152705374Y-94242007D01*
X152910317Y-94335096D01*
X152910321Y-94335097D01*
X153128579Y-94390094D01*
X153128581Y-94390094D01*
X153128588Y-94390096D01*
X153260783Y-94400500D01*
X154639216Y-94400499D01*
X154771412Y-94390096D01*
X154989683Y-94335096D01*
X155194626Y-94242007D01*
X155379654Y-94113819D01*
X155538819Y-93954654D01*
X155667007Y-93769626D01*
X155760096Y-93564683D01*
X155815096Y-93346412D01*
X155825500Y-93214217D01*
X155825499Y-92385784D01*
X155815096Y-92253588D01*
X155810677Y-92236052D01*
X155760097Y-92035321D01*
X155760096Y-92035318D01*
X155686943Y-91874266D01*
X155667007Y-91830374D01*
X155663630Y-91825500D01*
X155610823Y-91749278D01*
X155588826Y-91682961D01*
X155602266Y-91622366D01*
X155618630Y-91590251D01*
X155708241Y-91414379D01*
X155786090Y-91174785D01*
X155825500Y-90925962D01*
X155825500Y-90674038D01*
X155786090Y-90425215D01*
X155708241Y-90185621D01*
X155708239Y-90185618D01*
X155708239Y-90185616D01*
X155650384Y-90072070D01*
X155593870Y-89961155D01*
X155537741Y-89883900D01*
X155445798Y-89757350D01*
X155445794Y-89757345D01*
X155267654Y-89579205D01*
X155267649Y-89579201D01*
X155063848Y-89431132D01*
X155063847Y-89431131D01*
X155063845Y-89431130D01*
X154993747Y-89395413D01*
X154839383Y-89316760D01*
X154599785Y-89238910D01*
X154482394Y-89220317D01*
X154350962Y-89199500D01*
X153549038Y-89199500D01*
X153424626Y-89219205D01*
X153300214Y-89238910D01*
X153060616Y-89316760D01*
X152836151Y-89431132D01*
X152632350Y-89579201D01*
X152632345Y-89579205D01*
X152454205Y-89757345D01*
X152454201Y-89757350D01*
X152306132Y-89961151D01*
X152191760Y-90185616D01*
X152113910Y-90425214D01*
X152089293Y-90580639D01*
X152074500Y-90674038D01*
X134331548Y-90674038D01*
X134231939Y-90544225D01*
X134231933Y-90544218D01*
X134055781Y-90368066D01*
X134055774Y-90368060D01*
X133858126Y-90216400D01*
X133642376Y-90091837D01*
X133642361Y-90091830D01*
X133412207Y-89996498D01*
X133280305Y-89961155D01*
X133171565Y-89932018D01*
X133171564Y-89932017D01*
X133171561Y-89932017D01*
X132924575Y-89899501D01*
X132924570Y-89899500D01*
X132924565Y-89899500D01*
X132675435Y-89899500D01*
X132675429Y-89899500D01*
X132675424Y-89899501D01*
X132428438Y-89932017D01*
X132187792Y-89996498D01*
X131957638Y-90091830D01*
X131957623Y-90091837D01*
X131741873Y-90216400D01*
X131544225Y-90368060D01*
X131544218Y-90368066D01*
X131368066Y-90544218D01*
X131368060Y-90544225D01*
X131216400Y-90741873D01*
X131091837Y-90957623D01*
X131091830Y-90957638D01*
X130996498Y-91187792D01*
X130932017Y-91428438D01*
X130899501Y-91675424D01*
X130899500Y-91675441D01*
X124884755Y-91675441D01*
X125051947Y-91590252D01*
X125258942Y-91439862D01*
X125439862Y-91258942D01*
X125590252Y-91051947D01*
X125706410Y-90823975D01*
X125785474Y-90580639D01*
X125816365Y-90385596D01*
X125846294Y-90322464D01*
X125851139Y-90317333D01*
X130953829Y-85214645D01*
X131069524Y-85055405D01*
X131158884Y-84880026D01*
X131219709Y-84692826D01*
X131241890Y-84552781D01*
X131250500Y-84498417D01*
X131250500Y-80484588D01*
X131270185Y-80417549D01*
X131274164Y-80411728D01*
X131390252Y-80251947D01*
X131506410Y-80023975D01*
X131585474Y-79780639D01*
X131625500Y-79527930D01*
X131625500Y-79272070D01*
X131585474Y-79019361D01*
X131541513Y-78884061D01*
X131506411Y-78776027D01*
X131506410Y-78776024D01*
X131420825Y-78608056D01*
X131390252Y-78548053D01*
X131350367Y-78493156D01*
X131239867Y-78341064D01*
X131239863Y-78341059D01*
X131058940Y-78160136D01*
X131058935Y-78160132D01*
X130851950Y-78009750D01*
X130851949Y-78009749D01*
X130851947Y-78009748D01*
X130778910Y-77972533D01*
X130623975Y-77893589D01*
X130623972Y-77893588D01*
X130380640Y-77814526D01*
X130254284Y-77794513D01*
X130127930Y-77774500D01*
X129872070Y-77774500D01*
X129787833Y-77787842D01*
X129619359Y-77814526D01*
X129376027Y-77893588D01*
X129376024Y-77893589D01*
X129148049Y-78009750D01*
X128941064Y-78160132D01*
X128941059Y-78160136D01*
X128760136Y-78341059D01*
X128760132Y-78341064D01*
X128609750Y-78548049D01*
X128493589Y-78776024D01*
X128493588Y-78776027D01*
X128414526Y-79019359D01*
X128374500Y-79272070D01*
X128374500Y-79527929D01*
X128414526Y-79780640D01*
X128493588Y-80023972D01*
X128493589Y-80023975D01*
X128609748Y-80251947D01*
X128725819Y-80411705D01*
X128749298Y-80477508D01*
X128749500Y-80484588D01*
X128749500Y-83830663D01*
X128729815Y-83897702D01*
X128713181Y-83918344D01*
X124082683Y-88548841D01*
X124021360Y-88582326D01*
X124014401Y-88583633D01*
X123819357Y-88614526D01*
X123819356Y-88614526D01*
X123576027Y-88693588D01*
X123576024Y-88693589D01*
X123348049Y-88809750D01*
X123141064Y-88960132D01*
X123141059Y-88960136D01*
X122960136Y-89141059D01*
X122960132Y-89141064D01*
X122809750Y-89348049D01*
X122693589Y-89576024D01*
X122693588Y-89576027D01*
X122614526Y-89819359D01*
X122586470Y-89996498D01*
X122574500Y-90072070D01*
X111874238Y-90072070D01*
X111766924Y-89886196D01*
X111607281Y-89678148D01*
X111607274Y-89678140D01*
X111421860Y-89492726D01*
X111421851Y-89492718D01*
X111213803Y-89333075D01*
X110986700Y-89201958D01*
X110986690Y-89201953D01*
X110744428Y-89101605D01*
X110744421Y-89101603D01*
X110744419Y-89101602D01*
X110491116Y-89033730D01*
X110433339Y-89026123D01*
X110231127Y-88999500D01*
X110231120Y-88999500D01*
X109968880Y-88999500D01*
X109968872Y-88999500D01*
X109737772Y-89029926D01*
X109708884Y-89033730D01*
X109455581Y-89101602D01*
X109455571Y-89101605D01*
X109213309Y-89201953D01*
X109213299Y-89201958D01*
X108986196Y-89333075D01*
X108778148Y-89492718D01*
X108592718Y-89678148D01*
X108433075Y-89886196D01*
X108301958Y-90113299D01*
X108301953Y-90113309D01*
X108201605Y-90355571D01*
X108201602Y-90355581D01*
X108135766Y-90601288D01*
X108133730Y-90608885D01*
X108099500Y-90868872D01*
X105600499Y-90868872D01*
X105566270Y-90608884D01*
X105498398Y-90355581D01*
X105486944Y-90327929D01*
X105398046Y-90113309D01*
X105398041Y-90113299D01*
X105266924Y-89886196D01*
X105107281Y-89678148D01*
X105107274Y-89678140D01*
X104921860Y-89492726D01*
X104921851Y-89492718D01*
X104713803Y-89333075D01*
X104486700Y-89201958D01*
X104486690Y-89201953D01*
X104244428Y-89101605D01*
X104244421Y-89101603D01*
X104244419Y-89101602D01*
X103991116Y-89033730D01*
X103933339Y-89026123D01*
X103731127Y-88999500D01*
X103731120Y-88999500D01*
X103468880Y-88999500D01*
X103468872Y-88999500D01*
X103237772Y-89029926D01*
X103208884Y-89033730D01*
X102955581Y-89101602D01*
X102955571Y-89101605D01*
X102713309Y-89201953D01*
X102713299Y-89201958D01*
X102486196Y-89333075D01*
X102278148Y-89492718D01*
X102092718Y-89678148D01*
X101933075Y-89886196D01*
X101801958Y-90113299D01*
X101801953Y-90113309D01*
X101701605Y-90355571D01*
X101701602Y-90355581D01*
X101635766Y-90601288D01*
X101633730Y-90608885D01*
X101599500Y-90868872D01*
X87411581Y-90868872D01*
X87418838Y-90841789D01*
X87450500Y-90601288D01*
X87450500Y-90358712D01*
X87450086Y-90355571D01*
X87431765Y-90216401D01*
X87418838Y-90118211D01*
X87356054Y-89883900D01*
X87263224Y-89659788D01*
X87141936Y-89449711D01*
X87015922Y-89285486D01*
X86990728Y-89220317D01*
X87004766Y-89151872D01*
X87015922Y-89134514D01*
X87093256Y-89033730D01*
X87141936Y-88970289D01*
X87263224Y-88760212D01*
X87356054Y-88536100D01*
X87418838Y-88301789D01*
X87450500Y-88061288D01*
X87450500Y-87818712D01*
X87418838Y-87578211D01*
X87356054Y-87343900D01*
X87263224Y-87119788D01*
X87263218Y-87119777D01*
X87210023Y-87027639D01*
X87193550Y-86959739D01*
X87216403Y-86893712D01*
X87221307Y-86887281D01*
X87289698Y-86803407D01*
X87383909Y-86623049D01*
X87439886Y-86427418D01*
X87450500Y-86308037D01*
X87450499Y-85272070D01*
X117574500Y-85272070D01*
X117574500Y-85527929D01*
X117614526Y-85780640D01*
X117693588Y-86023972D01*
X117693589Y-86023975D01*
X117809750Y-86251950D01*
X117960132Y-86458935D01*
X117960136Y-86458940D01*
X118141059Y-86639863D01*
X118141064Y-86639867D01*
X118321607Y-86771038D01*
X118348053Y-86790252D01*
X118497080Y-86866185D01*
X118576024Y-86906410D01*
X118576027Y-86906411D01*
X118697693Y-86945942D01*
X118819361Y-86985474D01*
X119072070Y-87025500D01*
X119072071Y-87025500D01*
X119327929Y-87025500D01*
X119327930Y-87025500D01*
X119580639Y-86985474D01*
X119823975Y-86906410D01*
X120051947Y-86790252D01*
X120258942Y-86639862D01*
X120439862Y-86458942D01*
X120590252Y-86251947D01*
X120706410Y-86023975D01*
X120785474Y-85780639D01*
X120816365Y-85585596D01*
X120846294Y-85522464D01*
X120851139Y-85517333D01*
X129081655Y-77286819D01*
X129142978Y-77253334D01*
X129169336Y-77250500D01*
X134630664Y-77250500D01*
X134697703Y-77270185D01*
X134718345Y-77286819D01*
X142948841Y-85517315D01*
X142982326Y-85578638D01*
X142983633Y-85585597D01*
X143014526Y-85780640D01*
X143093588Y-86023972D01*
X143093589Y-86023975D01*
X143209750Y-86251950D01*
X143360132Y-86458935D01*
X143360136Y-86458940D01*
X143541059Y-86639863D01*
X143541064Y-86639867D01*
X143721607Y-86771038D01*
X143748053Y-86790252D01*
X143897080Y-86866185D01*
X143976024Y-86906410D01*
X143976027Y-86906411D01*
X144097693Y-86945942D01*
X144219361Y-86985474D01*
X144472070Y-87025500D01*
X144472071Y-87025500D01*
X144727929Y-87025500D01*
X144727930Y-87025500D01*
X144980639Y-86985474D01*
X145223975Y-86906410D01*
X145451947Y-86790252D01*
X145658942Y-86639862D01*
X145839862Y-86458942D01*
X145990252Y-86251947D01*
X146106410Y-86023975D01*
X146185474Y-85780639D01*
X146225500Y-85527930D01*
X146225500Y-85272070D01*
X146185474Y-85019361D01*
X146106410Y-84776025D01*
X146106410Y-84776024D01*
X146064018Y-84692826D01*
X145990252Y-84548053D01*
X145954192Y-84498420D01*
X145839867Y-84341064D01*
X145839863Y-84341059D01*
X145658940Y-84160136D01*
X145658935Y-84160132D01*
X145451950Y-84009750D01*
X145451949Y-84009749D01*
X145451947Y-84009748D01*
X145378910Y-83972533D01*
X145223975Y-83893589D01*
X145223972Y-83893588D01*
X144980640Y-83814526D01*
X144785597Y-83783633D01*
X144722463Y-83753703D01*
X144717315Y-83748841D01*
X136157636Y-75189162D01*
X142070500Y-75189162D01*
X142070500Y-77214837D01*
X142070501Y-77214853D01*
X142102829Y-77460410D01*
X142166938Y-77699667D01*
X142245099Y-77888365D01*
X142261723Y-77928498D01*
X142385567Y-78143002D01*
X142385572Y-78143008D01*
X142385573Y-78143010D01*
X142536349Y-78339505D01*
X142536355Y-78339512D01*
X142711487Y-78514644D01*
X142711494Y-78514650D01*
X142755026Y-78548053D01*
X142907998Y-78665433D01*
X143122502Y-78789277D01*
X143351337Y-78884063D01*
X143590586Y-78948170D01*
X143836156Y-78980500D01*
X143836163Y-78980500D01*
X144083837Y-78980500D01*
X144083844Y-78980500D01*
X144329414Y-78948170D01*
X144568663Y-78884063D01*
X144797498Y-78789277D01*
X145012002Y-78665433D01*
X145154516Y-78556077D01*
X145219682Y-78530885D01*
X145288127Y-78544923D01*
X145305477Y-78556072D01*
X145447998Y-78665433D01*
X145662502Y-78789277D01*
X145891337Y-78884063D01*
X146130586Y-78948170D01*
X146376156Y-78980500D01*
X146376163Y-78980500D01*
X146623837Y-78980500D01*
X146623844Y-78980500D01*
X146869414Y-78948170D01*
X147108663Y-78884063D01*
X147337498Y-78789277D01*
X147552002Y-78665433D01*
X147694516Y-78556077D01*
X147759682Y-78530885D01*
X147828127Y-78544923D01*
X147845477Y-78556072D01*
X147987998Y-78665433D01*
X148202502Y-78789277D01*
X148431337Y-78884063D01*
X148670586Y-78948170D01*
X148916156Y-78980500D01*
X148916163Y-78980500D01*
X149163837Y-78980500D01*
X149163844Y-78980500D01*
X149409414Y-78948170D01*
X149648663Y-78884063D01*
X149877498Y-78789277D01*
X150092002Y-78665433D01*
X150234516Y-78556077D01*
X150299682Y-78530885D01*
X150368127Y-78544923D01*
X150385477Y-78556072D01*
X150527998Y-78665433D01*
X150742502Y-78789277D01*
X150971337Y-78884063D01*
X151210586Y-78948170D01*
X151456156Y-78980500D01*
X151456163Y-78980500D01*
X151703837Y-78980500D01*
X151703844Y-78980500D01*
X151949414Y-78948170D01*
X152188663Y-78884063D01*
X152417498Y-78789277D01*
X152632002Y-78665433D01*
X152774516Y-78556077D01*
X152839682Y-78530885D01*
X152908127Y-78544923D01*
X152925477Y-78556072D01*
X153067998Y-78665433D01*
X153282502Y-78789277D01*
X153511337Y-78884063D01*
X153750586Y-78948170D01*
X153996156Y-78980500D01*
X153996163Y-78980500D01*
X154243837Y-78980500D01*
X154243844Y-78980500D01*
X154489414Y-78948170D01*
X154728663Y-78884063D01*
X154957498Y-78789277D01*
X155172002Y-78665433D01*
X155368507Y-78514649D01*
X155543649Y-78339507D01*
X155638943Y-78215316D01*
X155695369Y-78174115D01*
X155765115Y-78169960D01*
X155810203Y-78190486D01*
X155932001Y-78278976D01*
X156126808Y-78378237D01*
X156126811Y-78378238D01*
X156334739Y-78445797D01*
X156409999Y-78457717D01*
X156410000Y-78457717D01*
X156410000Y-75882251D01*
X156463919Y-75913381D01*
X156593120Y-75948000D01*
X156726880Y-75948000D01*
X156856081Y-75913381D01*
X156910000Y-75882251D01*
X156910000Y-78457717D01*
X156985258Y-78445797D01*
X156985261Y-78445797D01*
X157193188Y-78378238D01*
X157193191Y-78378237D01*
X157387995Y-78278978D01*
X157509794Y-78190486D01*
X157575600Y-78167006D01*
X157643654Y-78182831D01*
X157681055Y-78215317D01*
X157776347Y-78339503D01*
X157776355Y-78339512D01*
X157951487Y-78514644D01*
X157951494Y-78514650D01*
X157995026Y-78548053D01*
X158147998Y-78665433D01*
X158362502Y-78789277D01*
X158591337Y-78884063D01*
X158830586Y-78948170D01*
X159076156Y-78980500D01*
X159076163Y-78980500D01*
X159323837Y-78980500D01*
X159323844Y-78980500D01*
X159569414Y-78948170D01*
X159808663Y-78884063D01*
X160037498Y-78789277D01*
X160252002Y-78665433D01*
X160448507Y-78514649D01*
X160623649Y-78339507D01*
X160774433Y-78143002D01*
X160898277Y-77928498D01*
X160993063Y-77699663D01*
X161057170Y-77460414D01*
X161089500Y-77214844D01*
X161089500Y-75189156D01*
X161057170Y-74943586D01*
X160993063Y-74704337D01*
X160898277Y-74475502D01*
X160774433Y-74260998D01*
X160698417Y-74161932D01*
X160623650Y-74064494D01*
X160623644Y-74064487D01*
X160448512Y-73889355D01*
X160448505Y-73889349D01*
X160252010Y-73738573D01*
X160252008Y-73738572D01*
X160252002Y-73738567D01*
X160037498Y-73614723D01*
X160037491Y-73614720D01*
X159808667Y-73519938D01*
X159569410Y-73455829D01*
X159323853Y-73423501D01*
X159323850Y-73423500D01*
X159323844Y-73423500D01*
X159076156Y-73423500D01*
X159076150Y-73423500D01*
X159076146Y-73423501D01*
X158830589Y-73455829D01*
X158591332Y-73519938D01*
X158362508Y-73614720D01*
X158362499Y-73614724D01*
X158148004Y-73738563D01*
X158147989Y-73738573D01*
X157951494Y-73889349D01*
X157951487Y-73889355D01*
X157776355Y-74064487D01*
X157681057Y-74188682D01*
X157624629Y-74229884D01*
X157554883Y-74234039D01*
X157509796Y-74213513D01*
X157387998Y-74125023D01*
X157193191Y-74025762D01*
X157193188Y-74025761D01*
X156985258Y-73958201D01*
X156910000Y-73946281D01*
X156910000Y-74997748D01*
X156856081Y-74966619D01*
X156726880Y-74932000D01*
X156593120Y-74932000D01*
X156463919Y-74966619D01*
X156410000Y-74997748D01*
X156410000Y-73946281D01*
X156334741Y-73958201D01*
X156126811Y-74025761D01*
X156126808Y-74025762D01*
X155932001Y-74125023D01*
X155810204Y-74213513D01*
X155744397Y-74236993D01*
X155676344Y-74221167D01*
X155638943Y-74188682D01*
X155590095Y-74125023D01*
X155543649Y-74064493D01*
X155543647Y-74064491D01*
X155543644Y-74064487D01*
X155368512Y-73889355D01*
X155368505Y-73889349D01*
X155172010Y-73738573D01*
X155172008Y-73738572D01*
X155172002Y-73738567D01*
X154957498Y-73614723D01*
X154957491Y-73614720D01*
X154728667Y-73519938D01*
X154489410Y-73455829D01*
X154243853Y-73423501D01*
X154243850Y-73423500D01*
X154243844Y-73423500D01*
X153996156Y-73423500D01*
X153996150Y-73423500D01*
X153996146Y-73423501D01*
X153750589Y-73455829D01*
X153511332Y-73519938D01*
X153282508Y-73614720D01*
X153282499Y-73614724D01*
X153068004Y-73738563D01*
X153067989Y-73738573D01*
X152925486Y-73847920D01*
X152860317Y-73873114D01*
X152791872Y-73859076D01*
X152774514Y-73847920D01*
X152632010Y-73738573D01*
X152632008Y-73738572D01*
X152632002Y-73738567D01*
X152417498Y-73614723D01*
X152417491Y-73614720D01*
X152188667Y-73519938D01*
X151949410Y-73455829D01*
X151703853Y-73423501D01*
X151703850Y-73423500D01*
X151703844Y-73423500D01*
X151456156Y-73423500D01*
X151456150Y-73423500D01*
X151456146Y-73423501D01*
X151210589Y-73455829D01*
X150971332Y-73519938D01*
X150742508Y-73614720D01*
X150742499Y-73614724D01*
X150528004Y-73738563D01*
X150527989Y-73738573D01*
X150385486Y-73847920D01*
X150320317Y-73873114D01*
X150251872Y-73859076D01*
X150234514Y-73847920D01*
X150092010Y-73738573D01*
X150092008Y-73738572D01*
X150092002Y-73738567D01*
X149877498Y-73614723D01*
X149877491Y-73614720D01*
X149648667Y-73519938D01*
X149409410Y-73455829D01*
X149163853Y-73423501D01*
X149163850Y-73423500D01*
X149163844Y-73423500D01*
X148916156Y-73423500D01*
X148916150Y-73423500D01*
X148916146Y-73423501D01*
X148670589Y-73455829D01*
X148431332Y-73519938D01*
X148202508Y-73614720D01*
X148202499Y-73614724D01*
X147988004Y-73738563D01*
X147987989Y-73738573D01*
X147845486Y-73847920D01*
X147780317Y-73873114D01*
X147711872Y-73859076D01*
X147694514Y-73847920D01*
X147552010Y-73738573D01*
X147552008Y-73738572D01*
X147552002Y-73738567D01*
X147337498Y-73614723D01*
X147337491Y-73614720D01*
X147108667Y-73519938D01*
X146869410Y-73455829D01*
X146623853Y-73423501D01*
X146623850Y-73423500D01*
X146623844Y-73423500D01*
X146376156Y-73423500D01*
X146376150Y-73423500D01*
X146376146Y-73423501D01*
X146130589Y-73455829D01*
X145891332Y-73519938D01*
X145662508Y-73614720D01*
X145662499Y-73614724D01*
X145448004Y-73738563D01*
X145447989Y-73738573D01*
X145305486Y-73847920D01*
X145240317Y-73873114D01*
X145171872Y-73859076D01*
X145154514Y-73847920D01*
X145012010Y-73738573D01*
X145012008Y-73738572D01*
X145012002Y-73738567D01*
X144797498Y-73614723D01*
X144797491Y-73614720D01*
X144568667Y-73519938D01*
X144329410Y-73455829D01*
X144083853Y-73423501D01*
X144083850Y-73423500D01*
X144083844Y-73423500D01*
X143836156Y-73423500D01*
X143836150Y-73423500D01*
X143836146Y-73423501D01*
X143590589Y-73455829D01*
X143351332Y-73519938D01*
X143122508Y-73614720D01*
X143122499Y-73614724D01*
X142908004Y-73738563D01*
X142907989Y-73738573D01*
X142711494Y-73889349D01*
X142711487Y-73889355D01*
X142536355Y-74064487D01*
X142536349Y-74064494D01*
X142385573Y-74260989D01*
X142385563Y-74261004D01*
X142261724Y-74475499D01*
X142261720Y-74475508D01*
X142166938Y-74704332D01*
X142102829Y-74943589D01*
X142070501Y-75189146D01*
X142070500Y-75189162D01*
X136157636Y-75189162D01*
X136014648Y-75046174D01*
X136014647Y-75046173D01*
X136014646Y-75046172D01*
X135855405Y-74930476D01*
X135680030Y-74841117D01*
X135492826Y-74780290D01*
X135298422Y-74749500D01*
X135298417Y-74749500D01*
X128698416Y-74749500D01*
X128501583Y-74749500D01*
X128501578Y-74749500D01*
X128307172Y-74780291D01*
X128246348Y-74800053D01*
X128246348Y-74800054D01*
X128203103Y-74814105D01*
X128119970Y-74841117D01*
X127986799Y-74908972D01*
X127944595Y-74930476D01*
X127944594Y-74930477D01*
X127936696Y-74936215D01*
X127936691Y-74936217D01*
X127785352Y-75046173D01*
X127785351Y-75046174D01*
X119082683Y-83748841D01*
X119021360Y-83782326D01*
X119014401Y-83783633D01*
X118819357Y-83814526D01*
X118819356Y-83814526D01*
X118576027Y-83893588D01*
X118576024Y-83893589D01*
X118348049Y-84009750D01*
X118141064Y-84160132D01*
X118141059Y-84160136D01*
X117960136Y-84341059D01*
X117960132Y-84341064D01*
X117809750Y-84548049D01*
X117693589Y-84776024D01*
X117693588Y-84776027D01*
X117614526Y-85019359D01*
X117574500Y-85272070D01*
X87450499Y-85272070D01*
X87450499Y-84491964D01*
X87439886Y-84372582D01*
X87383909Y-84176951D01*
X87289698Y-83996593D01*
X87205710Y-83893590D01*
X87161109Y-83838890D01*
X87003409Y-83710304D01*
X87003410Y-83710304D01*
X87003407Y-83710302D01*
X86823049Y-83616091D01*
X86823048Y-83616090D01*
X86823045Y-83616089D01*
X86705829Y-83582550D01*
X86627418Y-83560114D01*
X86627415Y-83560113D01*
X86627413Y-83560113D01*
X86561102Y-83554217D01*
X86508037Y-83549500D01*
X86508032Y-83549500D01*
X84691971Y-83549500D01*
X84691965Y-83549500D01*
X84691964Y-83549501D01*
X84680316Y-83550536D01*
X84572584Y-83560113D01*
X84376954Y-83616089D01*
X84286772Y-83663196D01*
X84196593Y-83710302D01*
X84196591Y-83710303D01*
X84196590Y-83710304D01*
X84038890Y-83838890D01*
X83910304Y-83996590D01*
X83910302Y-83996593D01*
X83863196Y-84086772D01*
X83816089Y-84176954D01*
X83760114Y-84372583D01*
X83760113Y-84372586D01*
X83749500Y-84491966D01*
X82300500Y-84491966D01*
X82300500Y-77691995D01*
X94969500Y-77691995D01*
X94969500Y-77928004D01*
X94969501Y-77928020D01*
X95000059Y-78160136D01*
X95000307Y-78162014D01*
X95005885Y-78182831D01*
X95061394Y-78389993D01*
X95151714Y-78608045D01*
X95151719Y-78608056D01*
X95184848Y-78665436D01*
X95269727Y-78812450D01*
X95269729Y-78812453D01*
X95269730Y-78812454D01*
X95413406Y-78999697D01*
X95413412Y-78999704D01*
X95580295Y-79166587D01*
X95580301Y-79166592D01*
X95767550Y-79310273D01*
X95898918Y-79386118D01*
X95971943Y-79428280D01*
X95971948Y-79428282D01*
X95971951Y-79428284D01*
X96190007Y-79518606D01*
X96417986Y-79579693D01*
X96651989Y-79610500D01*
X96651996Y-79610500D01*
X96888004Y-79610500D01*
X96888011Y-79610500D01*
X97122014Y-79579693D01*
X97349993Y-79518606D01*
X97568049Y-79428284D01*
X97772450Y-79310273D01*
X97959699Y-79166592D01*
X98126592Y-78999699D01*
X98270273Y-78812450D01*
X98388284Y-78608049D01*
X98478606Y-78389993D01*
X98539693Y-78162014D01*
X98570500Y-77928011D01*
X98570500Y-77691989D01*
X98539693Y-77457986D01*
X98478606Y-77230007D01*
X98388284Y-77011951D01*
X98388282Y-77011948D01*
X98388280Y-77011943D01*
X98346118Y-76938918D01*
X98270273Y-76807550D01*
X98126592Y-76620301D01*
X98126587Y-76620295D01*
X97959704Y-76453412D01*
X97959697Y-76453406D01*
X97772454Y-76309730D01*
X97772453Y-76309729D01*
X97772450Y-76309727D01*
X97690957Y-76262677D01*
X97568056Y-76191719D01*
X97568045Y-76191714D01*
X97349993Y-76101394D01*
X97122010Y-76040306D01*
X96888020Y-76009501D01*
X96888017Y-76009500D01*
X96888011Y-76009500D01*
X96651989Y-76009500D01*
X96651983Y-76009500D01*
X96651979Y-76009501D01*
X96417989Y-76040306D01*
X96190006Y-76101394D01*
X95971954Y-76191714D01*
X95971943Y-76191719D01*
X95767545Y-76309730D01*
X95580302Y-76453406D01*
X95580295Y-76453412D01*
X95413412Y-76620295D01*
X95413406Y-76620302D01*
X95269730Y-76807545D01*
X95151719Y-77011943D01*
X95151714Y-77011954D01*
X95061394Y-77230006D01*
X95000306Y-77457989D01*
X94969501Y-77691979D01*
X94969500Y-77691995D01*
X82300500Y-77691995D01*
X82300500Y-72498711D01*
X92489500Y-72498711D01*
X92489500Y-72741288D01*
X92521161Y-72981785D01*
X92583947Y-73216104D01*
X92669854Y-73423500D01*
X92676776Y-73440212D01*
X92798064Y-73650289D01*
X92798066Y-73650292D01*
X92798067Y-73650293D01*
X92945733Y-73842736D01*
X92945739Y-73842743D01*
X93117256Y-74014260D01*
X93117263Y-74014266D01*
X93182722Y-74064494D01*
X93309711Y-74161936D01*
X93519788Y-74283224D01*
X93743900Y-74376054D01*
X93978211Y-74438838D01*
X94158586Y-74462584D01*
X94218711Y-74470500D01*
X94218712Y-74470500D01*
X94461289Y-74470500D01*
X94509388Y-74464167D01*
X94701789Y-74438838D01*
X94936100Y-74376054D01*
X95160212Y-74283224D01*
X95370289Y-74161936D01*
X95562738Y-74014265D01*
X95734265Y-73842738D01*
X95881936Y-73650289D01*
X96003224Y-73440212D01*
X96096054Y-73216100D01*
X96158838Y-72981789D01*
X96190500Y-72741288D01*
X96190500Y-72498712D01*
X96190500Y-72498711D01*
X115349500Y-72498711D01*
X115349500Y-72741288D01*
X115381161Y-72981785D01*
X115443947Y-73216104D01*
X115529854Y-73423500D01*
X115536776Y-73440212D01*
X115658064Y-73650289D01*
X115658066Y-73650292D01*
X115658067Y-73650293D01*
X115805733Y-73842736D01*
X115805739Y-73842743D01*
X115977256Y-74014260D01*
X115977263Y-74014266D01*
X116042722Y-74064494D01*
X116169711Y-74161936D01*
X116379788Y-74283224D01*
X116603900Y-74376054D01*
X116838211Y-74438838D01*
X117018586Y-74462584D01*
X117078711Y-74470500D01*
X117078712Y-74470500D01*
X117321289Y-74470500D01*
X117369388Y-74464167D01*
X117561789Y-74438838D01*
X117796100Y-74376054D01*
X118020212Y-74283224D01*
X118230289Y-74161936D01*
X118422738Y-74014265D01*
X118594265Y-73842738D01*
X118741936Y-73650289D01*
X118863224Y-73440212D01*
X118956054Y-73216100D01*
X119018838Y-72981789D01*
X119050500Y-72741288D01*
X119050500Y-72498712D01*
X119018838Y-72258211D01*
X118956054Y-72023900D01*
X118863224Y-71799788D01*
X118741936Y-71589711D01*
X118594265Y-71397262D01*
X118594260Y-71397256D01*
X118422743Y-71225739D01*
X118422736Y-71225733D01*
X118230293Y-71078067D01*
X118230292Y-71078066D01*
X118230289Y-71078064D01*
X118020212Y-70956776D01*
X118020205Y-70956773D01*
X117796104Y-70863947D01*
X117561785Y-70801161D01*
X117321289Y-70769500D01*
X117321288Y-70769500D01*
X117078712Y-70769500D01*
X117078711Y-70769500D01*
X116838214Y-70801161D01*
X116603895Y-70863947D01*
X116379794Y-70956773D01*
X116379785Y-70956777D01*
X116169706Y-71078067D01*
X115977263Y-71225733D01*
X115977256Y-71225739D01*
X115805739Y-71397256D01*
X115805733Y-71397263D01*
X115658067Y-71589706D01*
X115536777Y-71799785D01*
X115536773Y-71799794D01*
X115443947Y-72023895D01*
X115381161Y-72258214D01*
X115349500Y-72498711D01*
X96190500Y-72498711D01*
X96158838Y-72258211D01*
X96096054Y-72023900D01*
X96003224Y-71799788D01*
X95881936Y-71589711D01*
X95734265Y-71397262D01*
X95734260Y-71397256D01*
X95562743Y-71225739D01*
X95562736Y-71225733D01*
X95370293Y-71078067D01*
X95370292Y-71078066D01*
X95370289Y-71078064D01*
X95160212Y-70956776D01*
X95160205Y-70956773D01*
X94936104Y-70863947D01*
X94701785Y-70801161D01*
X94461289Y-70769500D01*
X94461288Y-70769500D01*
X94218712Y-70769500D01*
X94218711Y-70769500D01*
X93978214Y-70801161D01*
X93743895Y-70863947D01*
X93519794Y-70956773D01*
X93519785Y-70956777D01*
X93309706Y-71078067D01*
X93117263Y-71225733D01*
X93117256Y-71225739D01*
X92945739Y-71397256D01*
X92945733Y-71397263D01*
X92798067Y-71589706D01*
X92676777Y-71799785D01*
X92676773Y-71799794D01*
X92583947Y-72023895D01*
X92521161Y-72258214D01*
X92489500Y-72498711D01*
X82300500Y-72498711D01*
X82300500Y-68695837D01*
X90819500Y-68695837D01*
X90819500Y-68924162D01*
X90855215Y-69149660D01*
X90925770Y-69366803D01*
X90990763Y-69494357D01*
X91029421Y-69570228D01*
X91163621Y-69754937D01*
X91325063Y-69916379D01*
X91509772Y-70050579D01*
X91605884Y-70099550D01*
X91713196Y-70154229D01*
X91713198Y-70154229D01*
X91713201Y-70154231D01*
X91829592Y-70192049D01*
X91930339Y-70224784D01*
X92155838Y-70260500D01*
X92155843Y-70260500D01*
X92384162Y-70260500D01*
X92609660Y-70224784D01*
X92826799Y-70154231D01*
X93030228Y-70050579D01*
X93214937Y-69916379D01*
X93376379Y-69754937D01*
X93510579Y-69570228D01*
X93614231Y-69366799D01*
X93684784Y-69149660D01*
X93695241Y-69083638D01*
X93720500Y-68924162D01*
X93720500Y-68695837D01*
X117819500Y-68695837D01*
X117819500Y-68924162D01*
X117855215Y-69149660D01*
X117925770Y-69366803D01*
X117990763Y-69494357D01*
X118029421Y-69570228D01*
X118163621Y-69754937D01*
X118325063Y-69916379D01*
X118509772Y-70050579D01*
X118605884Y-70099550D01*
X118713196Y-70154229D01*
X118713198Y-70154229D01*
X118713201Y-70154231D01*
X118829592Y-70192049D01*
X118930339Y-70224784D01*
X119155838Y-70260500D01*
X119155843Y-70260500D01*
X119384162Y-70260500D01*
X119564189Y-70231986D01*
X131847000Y-70231986D01*
X131847000Y-70488013D01*
X131872991Y-70685423D01*
X131880417Y-70741829D01*
X131915925Y-70874349D01*
X131946677Y-70989116D01*
X132044644Y-71225631D01*
X132044651Y-71225646D01*
X132172652Y-71447352D01*
X132328511Y-71650470D01*
X132509529Y-71831488D01*
X132509533Y-71831491D01*
X132509535Y-71831493D01*
X132712643Y-71987344D01*
X132712647Y-71987347D01*
X132934353Y-72115348D01*
X132934368Y-72115355D01*
X133056682Y-72166018D01*
X133170882Y-72213322D01*
X133418171Y-72279583D01*
X133671994Y-72313000D01*
X133672001Y-72313000D01*
X133927999Y-72313000D01*
X133928006Y-72313000D01*
X134181829Y-72279583D01*
X134429118Y-72213322D01*
X134665643Y-72115350D01*
X134824040Y-72023900D01*
X134887352Y-71987347D01*
X134887352Y-71987346D01*
X134887357Y-71987344D01*
X135090465Y-71831493D01*
X135271493Y-71650465D01*
X135427344Y-71447357D01*
X135555350Y-71225643D01*
X135653322Y-70989118D01*
X135719583Y-70741829D01*
X135753000Y-70488006D01*
X135753000Y-70231994D01*
X135719583Y-69978171D01*
X135653322Y-69730882D01*
X135555350Y-69494357D01*
X135555348Y-69494353D01*
X135427347Y-69272647D01*
X135332975Y-69149660D01*
X135271493Y-69069535D01*
X135271491Y-69069533D01*
X135271488Y-69069529D01*
X135090470Y-68888511D01*
X135064615Y-68868672D01*
X134887357Y-68732656D01*
X134887352Y-68732652D01*
X134665646Y-68604651D01*
X134665631Y-68604644D01*
X134429116Y-68506677D01*
X134293499Y-68470339D01*
X134181829Y-68440417D01*
X134125423Y-68432991D01*
X133928013Y-68407000D01*
X133928006Y-68407000D01*
X133671994Y-68407000D01*
X133671986Y-68407000D01*
X133446373Y-68436704D01*
X133418171Y-68440417D01*
X133369763Y-68453388D01*
X133170883Y-68506677D01*
X132934368Y-68604644D01*
X132934353Y-68604651D01*
X132712647Y-68732652D01*
X132509529Y-68888511D01*
X132328511Y-69069529D01*
X132172652Y-69272647D01*
X132044651Y-69494353D01*
X132044644Y-69494368D01*
X131946677Y-69730883D01*
X131880417Y-69978172D01*
X131847000Y-70231986D01*
X119564189Y-70231986D01*
X119609660Y-70224784D01*
X119826799Y-70154231D01*
X120030228Y-70050579D01*
X120214937Y-69916379D01*
X120376379Y-69754937D01*
X120510579Y-69570228D01*
X120614231Y-69366799D01*
X120684784Y-69149660D01*
X120695241Y-69083638D01*
X120720500Y-68924162D01*
X120720500Y-68695837D01*
X120684784Y-68470339D01*
X120614229Y-68253196D01*
X120510578Y-68049771D01*
X120376379Y-67865063D01*
X120214937Y-67703621D01*
X120030228Y-67569421D01*
X119826803Y-67465770D01*
X119609660Y-67395215D01*
X119384162Y-67359500D01*
X119384157Y-67359500D01*
X119155843Y-67359500D01*
X119155838Y-67359500D01*
X118930339Y-67395215D01*
X118713196Y-67465770D01*
X118509771Y-67569421D01*
X118325061Y-67703622D01*
X118163622Y-67865061D01*
X118029421Y-68049771D01*
X117925770Y-68253196D01*
X117855215Y-68470339D01*
X117819500Y-68695837D01*
X93720500Y-68695837D01*
X93684784Y-68470339D01*
X93614229Y-68253196D01*
X93510578Y-68049771D01*
X93376379Y-67865063D01*
X93214937Y-67703621D01*
X93030228Y-67569421D01*
X92826803Y-67465770D01*
X92609660Y-67395215D01*
X92384162Y-67359500D01*
X92384157Y-67359500D01*
X92155843Y-67359500D01*
X92155838Y-67359500D01*
X91930339Y-67395215D01*
X91713196Y-67465770D01*
X91509771Y-67569421D01*
X91325061Y-67703622D01*
X91163622Y-67865061D01*
X91029421Y-68049771D01*
X90925770Y-68253196D01*
X90855215Y-68470339D01*
X90819500Y-68695837D01*
X82300500Y-68695837D01*
X82300500Y-64878711D01*
X92489500Y-64878711D01*
X92489500Y-65121288D01*
X92521161Y-65361785D01*
X92583947Y-65596104D01*
X92676773Y-65820205D01*
X92676776Y-65820212D01*
X92798064Y-66030289D01*
X92798066Y-66030292D01*
X92798067Y-66030293D01*
X92945733Y-66222736D01*
X92945739Y-66222743D01*
X93117256Y-66394260D01*
X93117262Y-66394265D01*
X93309711Y-66541936D01*
X93519788Y-66663224D01*
X93743900Y-66756054D01*
X93978211Y-66818838D01*
X94158586Y-66842584D01*
X94218711Y-66850500D01*
X94218712Y-66850500D01*
X94461289Y-66850500D01*
X94509388Y-66844167D01*
X94701789Y-66818838D01*
X94936100Y-66756054D01*
X95160212Y-66663224D01*
X95370289Y-66541936D01*
X95562738Y-66394265D01*
X95734265Y-66222738D01*
X95881936Y-66030289D01*
X96003224Y-65820212D01*
X96096054Y-65596100D01*
X96158838Y-65361789D01*
X96190500Y-65121288D01*
X96190500Y-64878712D01*
X96190500Y-64878711D01*
X115349500Y-64878711D01*
X115349500Y-65121288D01*
X115381161Y-65361785D01*
X115443947Y-65596104D01*
X115536773Y-65820205D01*
X115536776Y-65820212D01*
X115658064Y-66030289D01*
X115658066Y-66030292D01*
X115658067Y-66030293D01*
X115805733Y-66222736D01*
X115805739Y-66222743D01*
X115977256Y-66394260D01*
X115977262Y-66394265D01*
X116169711Y-66541936D01*
X116379788Y-66663224D01*
X116603900Y-66756054D01*
X116838211Y-66818838D01*
X117018586Y-66842584D01*
X117078711Y-66850500D01*
X117078712Y-66850500D01*
X117321289Y-66850500D01*
X117369388Y-66844167D01*
X117561789Y-66818838D01*
X117796100Y-66756054D01*
X118020212Y-66663224D01*
X118230289Y-66541936D01*
X118422738Y-66394265D01*
X118594265Y-66222738D01*
X118741936Y-66030289D01*
X118863224Y-65820212D01*
X118956054Y-65596100D01*
X119018838Y-65361789D01*
X119046459Y-65151986D01*
X131847000Y-65151986D01*
X131847000Y-65408013D01*
X131871763Y-65596100D01*
X131880417Y-65661829D01*
X131915925Y-65794349D01*
X131946677Y-65909116D01*
X132044644Y-66145631D01*
X132044651Y-66145646D01*
X132172652Y-66367352D01*
X132328511Y-66570470D01*
X132509529Y-66751488D01*
X132509533Y-66751491D01*
X132509535Y-66751493D01*
X132638563Y-66850500D01*
X132712647Y-66907347D01*
X132934353Y-67035348D01*
X132934368Y-67035355D01*
X133056682Y-67086018D01*
X133170882Y-67133322D01*
X133418171Y-67199583D01*
X133671994Y-67233000D01*
X133672001Y-67233000D01*
X133927999Y-67233000D01*
X133928006Y-67233000D01*
X134181829Y-67199583D01*
X134429118Y-67133322D01*
X134665643Y-67035350D01*
X134887357Y-66907344D01*
X135090465Y-66751493D01*
X135271493Y-66570465D01*
X135427344Y-66367357D01*
X135555350Y-66145643D01*
X135653322Y-65909118D01*
X135719583Y-65661829D01*
X135753000Y-65408006D01*
X135753000Y-65151994D01*
X135719583Y-64898171D01*
X135653322Y-64650882D01*
X135555350Y-64414357D01*
X135549310Y-64403895D01*
X135427347Y-64192647D01*
X135427344Y-64192643D01*
X135271493Y-63989535D01*
X135271491Y-63989533D01*
X135271488Y-63989529D01*
X135090470Y-63808511D01*
X134887352Y-63652652D01*
X134665646Y-63524651D01*
X134665631Y-63524644D01*
X134429116Y-63426677D01*
X134314349Y-63395925D01*
X134181829Y-63360417D01*
X134125423Y-63352991D01*
X133928013Y-63327000D01*
X133928006Y-63327000D01*
X133671994Y-63327000D01*
X133671986Y-63327000D01*
X133446373Y-63356704D01*
X133418171Y-63360417D01*
X133351911Y-63378171D01*
X133170883Y-63426677D01*
X132934368Y-63524644D01*
X132934353Y-63524651D01*
X132712647Y-63652652D01*
X132509529Y-63808511D01*
X132328511Y-63989529D01*
X132172652Y-64192647D01*
X132044651Y-64414353D01*
X132044644Y-64414368D01*
X131946677Y-64650883D01*
X131880417Y-64898172D01*
X131847000Y-65151986D01*
X119046459Y-65151986D01*
X119050500Y-65121288D01*
X119050500Y-64878712D01*
X119018838Y-64638211D01*
X118956054Y-64403900D01*
X118863224Y-64179788D01*
X118741936Y-63969711D01*
X118594265Y-63777262D01*
X118594260Y-63777256D01*
X118422743Y-63605739D01*
X118422736Y-63605733D01*
X118230293Y-63458067D01*
X118230292Y-63458066D01*
X118230289Y-63458064D01*
X118020212Y-63336776D01*
X117996611Y-63327000D01*
X117796104Y-63243947D01*
X117561785Y-63181161D01*
X117321289Y-63149500D01*
X117321288Y-63149500D01*
X117078712Y-63149500D01*
X117078711Y-63149500D01*
X116838214Y-63181161D01*
X116603895Y-63243947D01*
X116379794Y-63336773D01*
X116379785Y-63336777D01*
X116169706Y-63458067D01*
X115977263Y-63605733D01*
X115977256Y-63605739D01*
X115805739Y-63777256D01*
X115805733Y-63777263D01*
X115658067Y-63969706D01*
X115536777Y-64179785D01*
X115536773Y-64179794D01*
X115443947Y-64403895D01*
X115381161Y-64638214D01*
X115349500Y-64878711D01*
X96190500Y-64878711D01*
X96158838Y-64638211D01*
X96096054Y-64403900D01*
X96003224Y-64179788D01*
X95881936Y-63969711D01*
X95734265Y-63777262D01*
X95734260Y-63777256D01*
X95562743Y-63605739D01*
X95562736Y-63605733D01*
X95370293Y-63458067D01*
X95370292Y-63458066D01*
X95370289Y-63458064D01*
X95160212Y-63336776D01*
X95136611Y-63327000D01*
X94936104Y-63243947D01*
X94701785Y-63181161D01*
X94461289Y-63149500D01*
X94461288Y-63149500D01*
X94218712Y-63149500D01*
X94218711Y-63149500D01*
X93978214Y-63181161D01*
X93743895Y-63243947D01*
X93519794Y-63336773D01*
X93519785Y-63336777D01*
X93309706Y-63458067D01*
X93117263Y-63605733D01*
X93117256Y-63605739D01*
X92945739Y-63777256D01*
X92945733Y-63777263D01*
X92798067Y-63969706D01*
X92676777Y-64179785D01*
X92676773Y-64179794D01*
X92583947Y-64403895D01*
X92521161Y-64638214D01*
X92489500Y-64878711D01*
X82300500Y-64878711D01*
X82300500Y-58672378D01*
X103319500Y-58672378D01*
X103319500Y-58947621D01*
X103350315Y-59221108D01*
X103350317Y-59221124D01*
X103411561Y-59489453D01*
X103411565Y-59489465D01*
X103502467Y-59749246D01*
X103621884Y-59997218D01*
X103621886Y-59997221D01*
X103768319Y-60230268D01*
X103939925Y-60445455D01*
X104134545Y-60640075D01*
X104349732Y-60811681D01*
X104582779Y-60958114D01*
X104830757Y-61077534D01*
X105025865Y-61145805D01*
X105090534Y-61168434D01*
X105090546Y-61168438D01*
X105358879Y-61229683D01*
X105632378Y-61260499D01*
X105632379Y-61260500D01*
X105632383Y-61260500D01*
X105907621Y-61260500D01*
X105907621Y-61260499D01*
X106181121Y-61229683D01*
X106449454Y-61168438D01*
X106709243Y-61077534D01*
X106957221Y-60958114D01*
X107190268Y-60811681D01*
X107405455Y-60640075D01*
X107600075Y-60445455D01*
X107771681Y-60230268D01*
X107918114Y-59997221D01*
X108037534Y-59749243D01*
X108128438Y-59489454D01*
X108189683Y-59221121D01*
X108220500Y-58947617D01*
X108220500Y-58672383D01*
X108193751Y-58434980D01*
X108192645Y-58425162D01*
X142070500Y-58425162D01*
X142070500Y-60450837D01*
X142070501Y-60450853D01*
X142102829Y-60696410D01*
X142166938Y-60935667D01*
X142261720Y-61164491D01*
X142261724Y-61164500D01*
X142299358Y-61229684D01*
X142385567Y-61379002D01*
X142385572Y-61379008D01*
X142385573Y-61379010D01*
X142536349Y-61575505D01*
X142536355Y-61575512D01*
X142711487Y-61750644D01*
X142711493Y-61750649D01*
X142907998Y-61901433D01*
X143122502Y-62025277D01*
X143351337Y-62120063D01*
X143590586Y-62184170D01*
X143836156Y-62216500D01*
X143836163Y-62216500D01*
X144083837Y-62216500D01*
X144083844Y-62216500D01*
X144329414Y-62184170D01*
X144568663Y-62120063D01*
X144797498Y-62025277D01*
X145012002Y-61901433D01*
X145154516Y-61792077D01*
X145219682Y-61766885D01*
X145288127Y-61780923D01*
X145305477Y-61792072D01*
X145447998Y-61901433D01*
X145662502Y-62025277D01*
X145891337Y-62120063D01*
X146130586Y-62184170D01*
X146376156Y-62216500D01*
X146376163Y-62216500D01*
X146623837Y-62216500D01*
X146623844Y-62216500D01*
X146869414Y-62184170D01*
X147108663Y-62120063D01*
X147337498Y-62025277D01*
X147552002Y-61901433D01*
X147694516Y-61792077D01*
X147759682Y-61766885D01*
X147828127Y-61780923D01*
X147845477Y-61792072D01*
X147987998Y-61901433D01*
X148202502Y-62025277D01*
X148431337Y-62120063D01*
X148670586Y-62184170D01*
X148916156Y-62216500D01*
X148916163Y-62216500D01*
X149163837Y-62216500D01*
X149163844Y-62216500D01*
X149409414Y-62184170D01*
X149648663Y-62120063D01*
X149877498Y-62025277D01*
X150092002Y-61901433D01*
X150234516Y-61792077D01*
X150299682Y-61766885D01*
X150368127Y-61780923D01*
X150385477Y-61792072D01*
X150527998Y-61901433D01*
X150742502Y-62025277D01*
X150971337Y-62120063D01*
X151210586Y-62184170D01*
X151456156Y-62216500D01*
X151456163Y-62216500D01*
X151703837Y-62216500D01*
X151703844Y-62216500D01*
X151949414Y-62184170D01*
X152188663Y-62120063D01*
X152417498Y-62025277D01*
X152632002Y-61901433D01*
X152774516Y-61792077D01*
X152839682Y-61766885D01*
X152908127Y-61780923D01*
X152925477Y-61792072D01*
X153067998Y-61901433D01*
X153282502Y-62025277D01*
X153511337Y-62120063D01*
X153750586Y-62184170D01*
X153996156Y-62216500D01*
X153996163Y-62216500D01*
X154243837Y-62216500D01*
X154243844Y-62216500D01*
X154489414Y-62184170D01*
X154728663Y-62120063D01*
X154957498Y-62025277D01*
X155172002Y-61901433D01*
X155314516Y-61792077D01*
X155379682Y-61766885D01*
X155448127Y-61780923D01*
X155465477Y-61792072D01*
X155607998Y-61901433D01*
X155822502Y-62025277D01*
X156051337Y-62120063D01*
X156290586Y-62184170D01*
X156536156Y-62216500D01*
X156536163Y-62216500D01*
X156783837Y-62216500D01*
X156783844Y-62216500D01*
X157029414Y-62184170D01*
X157268663Y-62120063D01*
X157497498Y-62025277D01*
X157712002Y-61901433D01*
X157854516Y-61792077D01*
X157919682Y-61766885D01*
X157988127Y-61780923D01*
X158005477Y-61792072D01*
X158147998Y-61901433D01*
X158362502Y-62025277D01*
X158591337Y-62120063D01*
X158830586Y-62184170D01*
X159076156Y-62216500D01*
X159076163Y-62216500D01*
X159323837Y-62216500D01*
X159323844Y-62216500D01*
X159569414Y-62184170D01*
X159808663Y-62120063D01*
X160037498Y-62025277D01*
X160252002Y-61901433D01*
X160448507Y-61750649D01*
X160623649Y-61575507D01*
X160774433Y-61379002D01*
X160898277Y-61164498D01*
X160993063Y-60935663D01*
X161057170Y-60696414D01*
X161089500Y-60450844D01*
X161089500Y-58425156D01*
X161057170Y-58179586D01*
X160993063Y-57940337D01*
X160898277Y-57711502D01*
X160774433Y-57496998D01*
X160700426Y-57400550D01*
X160623650Y-57300494D01*
X160623644Y-57300487D01*
X160448512Y-57125355D01*
X160448505Y-57125349D01*
X160252010Y-56974573D01*
X160252008Y-56974572D01*
X160252002Y-56974567D01*
X160037498Y-56850723D01*
X160037491Y-56850720D01*
X159808667Y-56755938D01*
X159569410Y-56691829D01*
X159323853Y-56659501D01*
X159323850Y-56659500D01*
X159323844Y-56659500D01*
X159076156Y-56659500D01*
X159076150Y-56659500D01*
X159076146Y-56659501D01*
X158830589Y-56691829D01*
X158591332Y-56755938D01*
X158362508Y-56850720D01*
X158362499Y-56850724D01*
X158148004Y-56974563D01*
X158147989Y-56974573D01*
X158005486Y-57083920D01*
X157940317Y-57109114D01*
X157871872Y-57095076D01*
X157854514Y-57083920D01*
X157712010Y-56974573D01*
X157712008Y-56974572D01*
X157712002Y-56974567D01*
X157497498Y-56850723D01*
X157497491Y-56850720D01*
X157268667Y-56755938D01*
X157029410Y-56691829D01*
X156783853Y-56659501D01*
X156783850Y-56659500D01*
X156783844Y-56659500D01*
X156536156Y-56659500D01*
X156536150Y-56659500D01*
X156536146Y-56659501D01*
X156290589Y-56691829D01*
X156051332Y-56755938D01*
X155822508Y-56850720D01*
X155822499Y-56850724D01*
X155608004Y-56974563D01*
X155607989Y-56974573D01*
X155465486Y-57083920D01*
X155400317Y-57109114D01*
X155331872Y-57095076D01*
X155314514Y-57083920D01*
X155172010Y-56974573D01*
X155172008Y-56974572D01*
X155172002Y-56974567D01*
X154957498Y-56850723D01*
X154957491Y-56850720D01*
X154728667Y-56755938D01*
X154489410Y-56691829D01*
X154243853Y-56659501D01*
X154243850Y-56659500D01*
X154243844Y-56659500D01*
X153996156Y-56659500D01*
X153996150Y-56659500D01*
X153996146Y-56659501D01*
X153750589Y-56691829D01*
X153511332Y-56755938D01*
X153282508Y-56850720D01*
X153282499Y-56850724D01*
X153068004Y-56974563D01*
X153067989Y-56974573D01*
X152925486Y-57083920D01*
X152860317Y-57109114D01*
X152791872Y-57095076D01*
X152774514Y-57083920D01*
X152632010Y-56974573D01*
X152632008Y-56974572D01*
X152632002Y-56974567D01*
X152417498Y-56850723D01*
X152417491Y-56850720D01*
X152188667Y-56755938D01*
X151949410Y-56691829D01*
X151703853Y-56659501D01*
X151703850Y-56659500D01*
X151703844Y-56659500D01*
X151456156Y-56659500D01*
X151456150Y-56659500D01*
X151456146Y-56659501D01*
X151210589Y-56691829D01*
X150971332Y-56755938D01*
X150742508Y-56850720D01*
X150742499Y-56850724D01*
X150528004Y-56974563D01*
X150527989Y-56974573D01*
X150385486Y-57083920D01*
X150320317Y-57109114D01*
X150251872Y-57095076D01*
X150234514Y-57083920D01*
X150092010Y-56974573D01*
X150092008Y-56974572D01*
X150092002Y-56974567D01*
X149877498Y-56850723D01*
X149877491Y-56850720D01*
X149648667Y-56755938D01*
X149409410Y-56691829D01*
X149163853Y-56659501D01*
X149163850Y-56659500D01*
X149163844Y-56659500D01*
X148916156Y-56659500D01*
X148916150Y-56659500D01*
X148916146Y-56659501D01*
X148670589Y-56691829D01*
X148431332Y-56755938D01*
X148202508Y-56850720D01*
X148202499Y-56850724D01*
X147988004Y-56974563D01*
X147987989Y-56974573D01*
X147845486Y-57083920D01*
X147780317Y-57109114D01*
X147711872Y-57095076D01*
X147694514Y-57083920D01*
X147552010Y-56974573D01*
X147552008Y-56974572D01*
X147552002Y-56974567D01*
X147337498Y-56850723D01*
X147337491Y-56850720D01*
X147108667Y-56755938D01*
X146869410Y-56691829D01*
X146623853Y-56659501D01*
X146623850Y-56659500D01*
X146623844Y-56659500D01*
X146376156Y-56659500D01*
X146376150Y-56659500D01*
X146376146Y-56659501D01*
X146130589Y-56691829D01*
X145891332Y-56755938D01*
X145662508Y-56850720D01*
X145662499Y-56850724D01*
X145448004Y-56974563D01*
X145447989Y-56974573D01*
X145305486Y-57083920D01*
X145240317Y-57109114D01*
X145171872Y-57095076D01*
X145154514Y-57083920D01*
X145012010Y-56974573D01*
X145012008Y-56974572D01*
X145012002Y-56974567D01*
X144797498Y-56850723D01*
X144797491Y-56850720D01*
X144568667Y-56755938D01*
X144329410Y-56691829D01*
X144083853Y-56659501D01*
X144083850Y-56659500D01*
X144083844Y-56659500D01*
X143836156Y-56659500D01*
X143836150Y-56659500D01*
X143836146Y-56659501D01*
X143590589Y-56691829D01*
X143351332Y-56755938D01*
X143122508Y-56850720D01*
X143122499Y-56850724D01*
X142908004Y-56974563D01*
X142907989Y-56974573D01*
X142711494Y-57125349D01*
X142711487Y-57125355D01*
X142536355Y-57300487D01*
X142536349Y-57300494D01*
X142385573Y-57496989D01*
X142385563Y-57497004D01*
X142261724Y-57711499D01*
X142261720Y-57711508D01*
X142166938Y-57940332D01*
X142102829Y-58179589D01*
X142070501Y-58425146D01*
X142070500Y-58425162D01*
X108192645Y-58425162D01*
X108189685Y-58398892D01*
X108189682Y-58398875D01*
X108128438Y-58130546D01*
X108128434Y-58130534D01*
X108061879Y-57940332D01*
X108037534Y-57870757D01*
X107918114Y-57622779D01*
X107771681Y-57389732D01*
X107600075Y-57174545D01*
X107405455Y-56979925D01*
X107398736Y-56974567D01*
X107243442Y-56850724D01*
X107190268Y-56808319D01*
X106957221Y-56661886D01*
X106957218Y-56661884D01*
X106709246Y-56542467D01*
X106449465Y-56451565D01*
X106449453Y-56451561D01*
X106181124Y-56390317D01*
X106181108Y-56390315D01*
X105907621Y-56359500D01*
X105907617Y-56359500D01*
X105632383Y-56359500D01*
X105632379Y-56359500D01*
X105358891Y-56390315D01*
X105358875Y-56390317D01*
X105090546Y-56451561D01*
X105090534Y-56451565D01*
X104830753Y-56542467D01*
X104582781Y-56661884D01*
X104349733Y-56808318D01*
X104134545Y-56979924D01*
X103939924Y-57174545D01*
X103768318Y-57389733D01*
X103621884Y-57622781D01*
X103502467Y-57870753D01*
X103411565Y-58130534D01*
X103411561Y-58130546D01*
X103350317Y-58398875D01*
X103350315Y-58398891D01*
X103319500Y-58672378D01*
X82300500Y-58672378D01*
X82300500Y-45256961D01*
X82301280Y-45243077D01*
X82301280Y-45243076D01*
X82311460Y-45152729D01*
X82317635Y-45125670D01*
X82345353Y-45046456D01*
X82357396Y-45021450D01*
X82402046Y-44950389D01*
X82419351Y-44928690D01*
X82478690Y-44869351D01*
X82500389Y-44852046D01*
X82571450Y-44807396D01*
X82596456Y-44795353D01*
X82675670Y-44767635D01*
X82702733Y-44761459D01*
X82765419Y-44754396D01*
X82793079Y-44751280D01*
X82806962Y-44750500D01*
X82865892Y-44750500D01*
X161684108Y-44750500D01*
X161743038Y-44750500D01*
X161756922Y-44751280D01*
G37*
%TD.AperFunction*%
%TD*%
M02*
