%TF.GenerationSoftware,KiCad,Pcbnew,9.0.6*%
%TF.CreationDate,2026-03-03T16:08:20-08:00*%
%TF.ProjectId,SnoreSense_Display_PCB_v1,536e6f72-6553-4656-9e73-655f44697370,rev?*%
%TF.SameCoordinates,Original*%
%TF.FileFunction,Legend,Top*%
%TF.FilePolarity,Positive*%
%FSLAX46Y46*%
G04 Gerber Fmt 4.6, Leading zero omitted, Abs format (unit mm)*
G04 Created by KiCad (PCBNEW 9.0.6) date 2026-03-03 16:08:20*
%MOMM*%
%LPD*%
G01*
G04 APERTURE LIST*
%ADD10C,0.100000*%
%ADD11C,0.150000*%
%ADD12C,0.120000*%
G04 APERTURE END LIST*
D10*
X121580074Y-48472419D02*
X121103884Y-48472419D01*
X121103884Y-48472419D02*
X121103884Y-47472419D01*
X122341979Y-47805752D02*
X122341979Y-48472419D01*
X121913408Y-47805752D02*
X121913408Y-48329561D01*
X121913408Y-48329561D02*
X121961027Y-48424800D01*
X121961027Y-48424800D02*
X122056265Y-48472419D01*
X122056265Y-48472419D02*
X122199122Y-48472419D01*
X122199122Y-48472419D02*
X122294360Y-48424800D01*
X122294360Y-48424800D02*
X122341979Y-48377180D01*
X122818170Y-48472419D02*
X122818170Y-47472419D01*
X122913408Y-48091466D02*
X123199122Y-48472419D01*
X123199122Y-47805752D02*
X122818170Y-48186704D01*
X123627694Y-48472419D02*
X123627694Y-47805752D01*
X123627694Y-47472419D02*
X123580075Y-47520038D01*
X123580075Y-47520038D02*
X123627694Y-47567657D01*
X123627694Y-47567657D02*
X123675313Y-47520038D01*
X123675313Y-47520038D02*
X123627694Y-47472419D01*
X123627694Y-47472419D02*
X123627694Y-47567657D01*
X124103884Y-47805752D02*
X124103884Y-48472419D01*
X124103884Y-47900990D02*
X124151503Y-47853371D01*
X124151503Y-47853371D02*
X124246741Y-47805752D01*
X124246741Y-47805752D02*
X124389598Y-47805752D01*
X124389598Y-47805752D02*
X124484836Y-47853371D01*
X124484836Y-47853371D02*
X124532455Y-47948609D01*
X124532455Y-47948609D02*
X124532455Y-48472419D01*
X125437217Y-48472419D02*
X125437217Y-47948609D01*
X125437217Y-47948609D02*
X125389598Y-47853371D01*
X125389598Y-47853371D02*
X125294360Y-47805752D01*
X125294360Y-47805752D02*
X125103884Y-47805752D01*
X125103884Y-47805752D02*
X125008646Y-47853371D01*
X125437217Y-48424800D02*
X125341979Y-48472419D01*
X125341979Y-48472419D02*
X125103884Y-48472419D01*
X125103884Y-48472419D02*
X125008646Y-48424800D01*
X125008646Y-48424800D02*
X124961027Y-48329561D01*
X124961027Y-48329561D02*
X124961027Y-48234323D01*
X124961027Y-48234323D02*
X125008646Y-48139085D01*
X125008646Y-48139085D02*
X125103884Y-48091466D01*
X125103884Y-48091466D02*
X125341979Y-48091466D01*
X125341979Y-48091466D02*
X125437217Y-48043847D01*
X127246741Y-48377180D02*
X127199122Y-48424800D01*
X127199122Y-48424800D02*
X127056265Y-48472419D01*
X127056265Y-48472419D02*
X126961027Y-48472419D01*
X126961027Y-48472419D02*
X126818170Y-48424800D01*
X126818170Y-48424800D02*
X126722932Y-48329561D01*
X126722932Y-48329561D02*
X126675313Y-48234323D01*
X126675313Y-48234323D02*
X126627694Y-48043847D01*
X126627694Y-48043847D02*
X126627694Y-47900990D01*
X126627694Y-47900990D02*
X126675313Y-47710514D01*
X126675313Y-47710514D02*
X126722932Y-47615276D01*
X126722932Y-47615276D02*
X126818170Y-47520038D01*
X126818170Y-47520038D02*
X126961027Y-47472419D01*
X126961027Y-47472419D02*
X127056265Y-47472419D01*
X127056265Y-47472419D02*
X127199122Y-47520038D01*
X127199122Y-47520038D02*
X127246741Y-47567657D01*
X127675313Y-48472419D02*
X127675313Y-47472419D01*
X128103884Y-48472419D02*
X128103884Y-47948609D01*
X128103884Y-47948609D02*
X128056265Y-47853371D01*
X128056265Y-47853371D02*
X127961027Y-47805752D01*
X127961027Y-47805752D02*
X127818170Y-47805752D01*
X127818170Y-47805752D02*
X127722932Y-47853371D01*
X127722932Y-47853371D02*
X127675313Y-47900990D01*
X128961027Y-48424800D02*
X128865789Y-48472419D01*
X128865789Y-48472419D02*
X128675313Y-48472419D01*
X128675313Y-48472419D02*
X128580075Y-48424800D01*
X128580075Y-48424800D02*
X128532456Y-48329561D01*
X128532456Y-48329561D02*
X128532456Y-47948609D01*
X128532456Y-47948609D02*
X128580075Y-47853371D01*
X128580075Y-47853371D02*
X128675313Y-47805752D01*
X128675313Y-47805752D02*
X128865789Y-47805752D01*
X128865789Y-47805752D02*
X128961027Y-47853371D01*
X128961027Y-47853371D02*
X129008646Y-47948609D01*
X129008646Y-47948609D02*
X129008646Y-48043847D01*
X129008646Y-48043847D02*
X128532456Y-48139085D01*
X129437218Y-47805752D02*
X129437218Y-48472419D01*
X129437218Y-47900990D02*
X129484837Y-47853371D01*
X129484837Y-47853371D02*
X129580075Y-47805752D01*
X129580075Y-47805752D02*
X129722932Y-47805752D01*
X129722932Y-47805752D02*
X129818170Y-47853371D01*
X129818170Y-47853371D02*
X129865789Y-47948609D01*
X129865789Y-47948609D02*
X129865789Y-48472419D01*
X131103885Y-48091466D02*
X131865790Y-48091466D01*
X133056266Y-48424800D02*
X133199123Y-48472419D01*
X133199123Y-48472419D02*
X133437218Y-48472419D01*
X133437218Y-48472419D02*
X133532456Y-48424800D01*
X133532456Y-48424800D02*
X133580075Y-48377180D01*
X133580075Y-48377180D02*
X133627694Y-48281942D01*
X133627694Y-48281942D02*
X133627694Y-48186704D01*
X133627694Y-48186704D02*
X133580075Y-48091466D01*
X133580075Y-48091466D02*
X133532456Y-48043847D01*
X133532456Y-48043847D02*
X133437218Y-47996228D01*
X133437218Y-47996228D02*
X133246742Y-47948609D01*
X133246742Y-47948609D02*
X133151504Y-47900990D01*
X133151504Y-47900990D02*
X133103885Y-47853371D01*
X133103885Y-47853371D02*
X133056266Y-47758133D01*
X133056266Y-47758133D02*
X133056266Y-47662895D01*
X133056266Y-47662895D02*
X133103885Y-47567657D01*
X133103885Y-47567657D02*
X133151504Y-47520038D01*
X133151504Y-47520038D02*
X133246742Y-47472419D01*
X133246742Y-47472419D02*
X133484837Y-47472419D01*
X133484837Y-47472419D02*
X133627694Y-47520038D01*
X134056266Y-47805752D02*
X134056266Y-48472419D01*
X134056266Y-47900990D02*
X134103885Y-47853371D01*
X134103885Y-47853371D02*
X134199123Y-47805752D01*
X134199123Y-47805752D02*
X134341980Y-47805752D01*
X134341980Y-47805752D02*
X134437218Y-47853371D01*
X134437218Y-47853371D02*
X134484837Y-47948609D01*
X134484837Y-47948609D02*
X134484837Y-48472419D01*
X135103885Y-48472419D02*
X135008647Y-48424800D01*
X135008647Y-48424800D02*
X134961028Y-48377180D01*
X134961028Y-48377180D02*
X134913409Y-48281942D01*
X134913409Y-48281942D02*
X134913409Y-47996228D01*
X134913409Y-47996228D02*
X134961028Y-47900990D01*
X134961028Y-47900990D02*
X135008647Y-47853371D01*
X135008647Y-47853371D02*
X135103885Y-47805752D01*
X135103885Y-47805752D02*
X135246742Y-47805752D01*
X135246742Y-47805752D02*
X135341980Y-47853371D01*
X135341980Y-47853371D02*
X135389599Y-47900990D01*
X135389599Y-47900990D02*
X135437218Y-47996228D01*
X135437218Y-47996228D02*
X135437218Y-48281942D01*
X135437218Y-48281942D02*
X135389599Y-48377180D01*
X135389599Y-48377180D02*
X135341980Y-48424800D01*
X135341980Y-48424800D02*
X135246742Y-48472419D01*
X135246742Y-48472419D02*
X135103885Y-48472419D01*
X135865790Y-48472419D02*
X135865790Y-47805752D01*
X135865790Y-47996228D02*
X135913409Y-47900990D01*
X135913409Y-47900990D02*
X135961028Y-47853371D01*
X135961028Y-47853371D02*
X136056266Y-47805752D01*
X136056266Y-47805752D02*
X136151504Y-47805752D01*
X136865790Y-48424800D02*
X136770552Y-48472419D01*
X136770552Y-48472419D02*
X136580076Y-48472419D01*
X136580076Y-48472419D02*
X136484838Y-48424800D01*
X136484838Y-48424800D02*
X136437219Y-48329561D01*
X136437219Y-48329561D02*
X136437219Y-47948609D01*
X136437219Y-47948609D02*
X136484838Y-47853371D01*
X136484838Y-47853371D02*
X136580076Y-47805752D01*
X136580076Y-47805752D02*
X136770552Y-47805752D01*
X136770552Y-47805752D02*
X136865790Y-47853371D01*
X136865790Y-47853371D02*
X136913409Y-47948609D01*
X136913409Y-47948609D02*
X136913409Y-48043847D01*
X136913409Y-48043847D02*
X136437219Y-48139085D01*
X137294362Y-48424800D02*
X137437219Y-48472419D01*
X137437219Y-48472419D02*
X137675314Y-48472419D01*
X137675314Y-48472419D02*
X137770552Y-48424800D01*
X137770552Y-48424800D02*
X137818171Y-48377180D01*
X137818171Y-48377180D02*
X137865790Y-48281942D01*
X137865790Y-48281942D02*
X137865790Y-48186704D01*
X137865790Y-48186704D02*
X137818171Y-48091466D01*
X137818171Y-48091466D02*
X137770552Y-48043847D01*
X137770552Y-48043847D02*
X137675314Y-47996228D01*
X137675314Y-47996228D02*
X137484838Y-47948609D01*
X137484838Y-47948609D02*
X137389600Y-47900990D01*
X137389600Y-47900990D02*
X137341981Y-47853371D01*
X137341981Y-47853371D02*
X137294362Y-47758133D01*
X137294362Y-47758133D02*
X137294362Y-47662895D01*
X137294362Y-47662895D02*
X137341981Y-47567657D01*
X137341981Y-47567657D02*
X137389600Y-47520038D01*
X137389600Y-47520038D02*
X137484838Y-47472419D01*
X137484838Y-47472419D02*
X137722933Y-47472419D01*
X137722933Y-47472419D02*
X137865790Y-47520038D01*
X138675314Y-48424800D02*
X138580076Y-48472419D01*
X138580076Y-48472419D02*
X138389600Y-48472419D01*
X138389600Y-48472419D02*
X138294362Y-48424800D01*
X138294362Y-48424800D02*
X138246743Y-48329561D01*
X138246743Y-48329561D02*
X138246743Y-47948609D01*
X138246743Y-47948609D02*
X138294362Y-47853371D01*
X138294362Y-47853371D02*
X138389600Y-47805752D01*
X138389600Y-47805752D02*
X138580076Y-47805752D01*
X138580076Y-47805752D02*
X138675314Y-47853371D01*
X138675314Y-47853371D02*
X138722933Y-47948609D01*
X138722933Y-47948609D02*
X138722933Y-48043847D01*
X138722933Y-48043847D02*
X138246743Y-48139085D01*
X139151505Y-47805752D02*
X139151505Y-48472419D01*
X139151505Y-47900990D02*
X139199124Y-47853371D01*
X139199124Y-47853371D02*
X139294362Y-47805752D01*
X139294362Y-47805752D02*
X139437219Y-47805752D01*
X139437219Y-47805752D02*
X139532457Y-47853371D01*
X139532457Y-47853371D02*
X139580076Y-47948609D01*
X139580076Y-47948609D02*
X139580076Y-48472419D01*
X140008648Y-48424800D02*
X140103886Y-48472419D01*
X140103886Y-48472419D02*
X140294362Y-48472419D01*
X140294362Y-48472419D02*
X140389600Y-48424800D01*
X140389600Y-48424800D02*
X140437219Y-48329561D01*
X140437219Y-48329561D02*
X140437219Y-48281942D01*
X140437219Y-48281942D02*
X140389600Y-48186704D01*
X140389600Y-48186704D02*
X140294362Y-48139085D01*
X140294362Y-48139085D02*
X140151505Y-48139085D01*
X140151505Y-48139085D02*
X140056267Y-48091466D01*
X140056267Y-48091466D02*
X140008648Y-47996228D01*
X140008648Y-47996228D02*
X140008648Y-47948609D01*
X140008648Y-47948609D02*
X140056267Y-47853371D01*
X140056267Y-47853371D02*
X140151505Y-47805752D01*
X140151505Y-47805752D02*
X140294362Y-47805752D01*
X140294362Y-47805752D02*
X140389600Y-47853371D01*
X141246743Y-48424800D02*
X141151505Y-48472419D01*
X141151505Y-48472419D02*
X140961029Y-48472419D01*
X140961029Y-48472419D02*
X140865791Y-48424800D01*
X140865791Y-48424800D02*
X140818172Y-48329561D01*
X140818172Y-48329561D02*
X140818172Y-47948609D01*
X140818172Y-47948609D02*
X140865791Y-47853371D01*
X140865791Y-47853371D02*
X140961029Y-47805752D01*
X140961029Y-47805752D02*
X141151505Y-47805752D01*
X141151505Y-47805752D02*
X141246743Y-47853371D01*
X141246743Y-47853371D02*
X141294362Y-47948609D01*
X141294362Y-47948609D02*
X141294362Y-48043847D01*
X141294362Y-48043847D02*
X140818172Y-48139085D01*
X142484839Y-48472419D02*
X142484839Y-47472419D01*
X142484839Y-47472419D02*
X142722934Y-47472419D01*
X142722934Y-47472419D02*
X142865791Y-47520038D01*
X142865791Y-47520038D02*
X142961029Y-47615276D01*
X142961029Y-47615276D02*
X143008648Y-47710514D01*
X143008648Y-47710514D02*
X143056267Y-47900990D01*
X143056267Y-47900990D02*
X143056267Y-48043847D01*
X143056267Y-48043847D02*
X143008648Y-48234323D01*
X143008648Y-48234323D02*
X142961029Y-48329561D01*
X142961029Y-48329561D02*
X142865791Y-48424800D01*
X142865791Y-48424800D02*
X142722934Y-48472419D01*
X142722934Y-48472419D02*
X142484839Y-48472419D01*
X143484839Y-48472419D02*
X143484839Y-47805752D01*
X143484839Y-47472419D02*
X143437220Y-47520038D01*
X143437220Y-47520038D02*
X143484839Y-47567657D01*
X143484839Y-47567657D02*
X143532458Y-47520038D01*
X143532458Y-47520038D02*
X143484839Y-47472419D01*
X143484839Y-47472419D02*
X143484839Y-47567657D01*
X143913410Y-48424800D02*
X144008648Y-48472419D01*
X144008648Y-48472419D02*
X144199124Y-48472419D01*
X144199124Y-48472419D02*
X144294362Y-48424800D01*
X144294362Y-48424800D02*
X144341981Y-48329561D01*
X144341981Y-48329561D02*
X144341981Y-48281942D01*
X144341981Y-48281942D02*
X144294362Y-48186704D01*
X144294362Y-48186704D02*
X144199124Y-48139085D01*
X144199124Y-48139085D02*
X144056267Y-48139085D01*
X144056267Y-48139085D02*
X143961029Y-48091466D01*
X143961029Y-48091466D02*
X143913410Y-47996228D01*
X143913410Y-47996228D02*
X143913410Y-47948609D01*
X143913410Y-47948609D02*
X143961029Y-47853371D01*
X143961029Y-47853371D02*
X144056267Y-47805752D01*
X144056267Y-47805752D02*
X144199124Y-47805752D01*
X144199124Y-47805752D02*
X144294362Y-47853371D01*
X144770553Y-47805752D02*
X144770553Y-48805752D01*
X144770553Y-47853371D02*
X144865791Y-47805752D01*
X144865791Y-47805752D02*
X145056267Y-47805752D01*
X145056267Y-47805752D02*
X145151505Y-47853371D01*
X145151505Y-47853371D02*
X145199124Y-47900990D01*
X145199124Y-47900990D02*
X145246743Y-47996228D01*
X145246743Y-47996228D02*
X145246743Y-48281942D01*
X145246743Y-48281942D02*
X145199124Y-48377180D01*
X145199124Y-48377180D02*
X145151505Y-48424800D01*
X145151505Y-48424800D02*
X145056267Y-48472419D01*
X145056267Y-48472419D02*
X144865791Y-48472419D01*
X144865791Y-48472419D02*
X144770553Y-48424800D01*
X145818172Y-48472419D02*
X145722934Y-48424800D01*
X145722934Y-48424800D02*
X145675315Y-48329561D01*
X145675315Y-48329561D02*
X145675315Y-47472419D01*
X146627696Y-48472419D02*
X146627696Y-47948609D01*
X146627696Y-47948609D02*
X146580077Y-47853371D01*
X146580077Y-47853371D02*
X146484839Y-47805752D01*
X146484839Y-47805752D02*
X146294363Y-47805752D01*
X146294363Y-47805752D02*
X146199125Y-47853371D01*
X146627696Y-48424800D02*
X146532458Y-48472419D01*
X146532458Y-48472419D02*
X146294363Y-48472419D01*
X146294363Y-48472419D02*
X146199125Y-48424800D01*
X146199125Y-48424800D02*
X146151506Y-48329561D01*
X146151506Y-48329561D02*
X146151506Y-48234323D01*
X146151506Y-48234323D02*
X146199125Y-48139085D01*
X146199125Y-48139085D02*
X146294363Y-48091466D01*
X146294363Y-48091466D02*
X146532458Y-48091466D01*
X146532458Y-48091466D02*
X146627696Y-48043847D01*
X147008649Y-47805752D02*
X147246744Y-48472419D01*
X147484839Y-47805752D02*
X147246744Y-48472419D01*
X147246744Y-48472419D02*
X147151506Y-48710514D01*
X147151506Y-48710514D02*
X147103887Y-48758133D01*
X147103887Y-48758133D02*
X147008649Y-48805752D01*
D11*
X150854819Y-92133333D02*
X151569104Y-92133333D01*
X151569104Y-92133333D02*
X151711961Y-92180952D01*
X151711961Y-92180952D02*
X151807200Y-92276190D01*
X151807200Y-92276190D02*
X151854819Y-92419047D01*
X151854819Y-92419047D02*
X151854819Y-92514285D01*
X150950057Y-91704761D02*
X150902438Y-91657142D01*
X150902438Y-91657142D02*
X150854819Y-91561904D01*
X150854819Y-91561904D02*
X150854819Y-91323809D01*
X150854819Y-91323809D02*
X150902438Y-91228571D01*
X150902438Y-91228571D02*
X150950057Y-91180952D01*
X150950057Y-91180952D02*
X151045295Y-91133333D01*
X151045295Y-91133333D02*
X151140533Y-91133333D01*
X151140533Y-91133333D02*
X151283390Y-91180952D01*
X151283390Y-91180952D02*
X151854819Y-91752380D01*
X151854819Y-91752380D02*
X151854819Y-91133333D01*
X132061905Y-89254819D02*
X132061905Y-88254819D01*
X132061905Y-88254819D02*
X132300000Y-88254819D01*
X132300000Y-88254819D02*
X132442857Y-88302438D01*
X132442857Y-88302438D02*
X132538095Y-88397676D01*
X132538095Y-88397676D02*
X132585714Y-88492914D01*
X132585714Y-88492914D02*
X132633333Y-88683390D01*
X132633333Y-88683390D02*
X132633333Y-88826247D01*
X132633333Y-88826247D02*
X132585714Y-89016723D01*
X132585714Y-89016723D02*
X132538095Y-89111961D01*
X132538095Y-89111961D02*
X132442857Y-89207200D01*
X132442857Y-89207200D02*
X132300000Y-89254819D01*
X132300000Y-89254819D02*
X132061905Y-89254819D01*
X133585714Y-89254819D02*
X133014286Y-89254819D01*
X133300000Y-89254819D02*
X133300000Y-88254819D01*
X133300000Y-88254819D02*
X133204762Y-88397676D01*
X133204762Y-88397676D02*
X133109524Y-88492914D01*
X133109524Y-88492914D02*
X133014286Y-88540533D01*
X84266667Y-83037200D02*
X84409524Y-83084819D01*
X84409524Y-83084819D02*
X84647619Y-83084819D01*
X84647619Y-83084819D02*
X84742857Y-83037200D01*
X84742857Y-83037200D02*
X84790476Y-82989580D01*
X84790476Y-82989580D02*
X84838095Y-82894342D01*
X84838095Y-82894342D02*
X84838095Y-82799104D01*
X84838095Y-82799104D02*
X84790476Y-82703866D01*
X84790476Y-82703866D02*
X84742857Y-82656247D01*
X84742857Y-82656247D02*
X84647619Y-82608628D01*
X84647619Y-82608628D02*
X84457143Y-82561009D01*
X84457143Y-82561009D02*
X84361905Y-82513390D01*
X84361905Y-82513390D02*
X84314286Y-82465771D01*
X84314286Y-82465771D02*
X84266667Y-82370533D01*
X84266667Y-82370533D02*
X84266667Y-82275295D01*
X84266667Y-82275295D02*
X84314286Y-82180057D01*
X84314286Y-82180057D02*
X84361905Y-82132438D01*
X84361905Y-82132438D02*
X84457143Y-82084819D01*
X84457143Y-82084819D02*
X84695238Y-82084819D01*
X84695238Y-82084819D02*
X84838095Y-82132438D01*
X85171429Y-82084819D02*
X85409524Y-83084819D01*
X85409524Y-83084819D02*
X85600000Y-82370533D01*
X85600000Y-82370533D02*
X85790476Y-83084819D01*
X85790476Y-83084819D02*
X86028572Y-82084819D01*
X86361905Y-82180057D02*
X86409524Y-82132438D01*
X86409524Y-82132438D02*
X86504762Y-82084819D01*
X86504762Y-82084819D02*
X86742857Y-82084819D01*
X86742857Y-82084819D02*
X86838095Y-82132438D01*
X86838095Y-82132438D02*
X86885714Y-82180057D01*
X86885714Y-82180057D02*
X86933333Y-82275295D01*
X86933333Y-82275295D02*
X86933333Y-82370533D01*
X86933333Y-82370533D02*
X86885714Y-82513390D01*
X86885714Y-82513390D02*
X86314286Y-83084819D01*
X86314286Y-83084819D02*
X86933333Y-83084819D01*
X105516667Y-89407200D02*
X105659524Y-89454819D01*
X105659524Y-89454819D02*
X105897619Y-89454819D01*
X105897619Y-89454819D02*
X105992857Y-89407200D01*
X105992857Y-89407200D02*
X106040476Y-89359580D01*
X106040476Y-89359580D02*
X106088095Y-89264342D01*
X106088095Y-89264342D02*
X106088095Y-89169104D01*
X106088095Y-89169104D02*
X106040476Y-89073866D01*
X106040476Y-89073866D02*
X105992857Y-89026247D01*
X105992857Y-89026247D02*
X105897619Y-88978628D01*
X105897619Y-88978628D02*
X105707143Y-88931009D01*
X105707143Y-88931009D02*
X105611905Y-88883390D01*
X105611905Y-88883390D02*
X105564286Y-88835771D01*
X105564286Y-88835771D02*
X105516667Y-88740533D01*
X105516667Y-88740533D02*
X105516667Y-88645295D01*
X105516667Y-88645295D02*
X105564286Y-88550057D01*
X105564286Y-88550057D02*
X105611905Y-88502438D01*
X105611905Y-88502438D02*
X105707143Y-88454819D01*
X105707143Y-88454819D02*
X105945238Y-88454819D01*
X105945238Y-88454819D02*
X106088095Y-88502438D01*
X106421429Y-88454819D02*
X106659524Y-89454819D01*
X106659524Y-89454819D02*
X106850000Y-88740533D01*
X106850000Y-88740533D02*
X107040476Y-89454819D01*
X107040476Y-89454819D02*
X107278572Y-88454819D01*
X108183333Y-89454819D02*
X107611905Y-89454819D01*
X107897619Y-89454819D02*
X107897619Y-88454819D01*
X107897619Y-88454819D02*
X107802381Y-88597676D01*
X107802381Y-88597676D02*
X107707143Y-88692914D01*
X107707143Y-88692914D02*
X107611905Y-88740533D01*
D10*
X102985714Y-50997419D02*
X102985714Y-51711704D01*
X102985714Y-51711704D02*
X102938095Y-51854561D01*
X102938095Y-51854561D02*
X102842857Y-51949800D01*
X102842857Y-51949800D02*
X102700000Y-51997419D01*
X102700000Y-51997419D02*
X102604762Y-51997419D01*
X103223810Y-52092657D02*
X103985714Y-52092657D01*
X104223810Y-51997419D02*
X104223810Y-50997419D01*
X104223810Y-50997419D02*
X104557143Y-51711704D01*
X104557143Y-51711704D02*
X104890476Y-50997419D01*
X104890476Y-50997419D02*
X104890476Y-51997419D01*
X105557143Y-50997419D02*
X105747619Y-50997419D01*
X105747619Y-50997419D02*
X105842857Y-51045038D01*
X105842857Y-51045038D02*
X105938095Y-51140276D01*
X105938095Y-51140276D02*
X105985714Y-51330752D01*
X105985714Y-51330752D02*
X105985714Y-51664085D01*
X105985714Y-51664085D02*
X105938095Y-51854561D01*
X105938095Y-51854561D02*
X105842857Y-51949800D01*
X105842857Y-51949800D02*
X105747619Y-51997419D01*
X105747619Y-51997419D02*
X105557143Y-51997419D01*
X105557143Y-51997419D02*
X105461905Y-51949800D01*
X105461905Y-51949800D02*
X105366667Y-51854561D01*
X105366667Y-51854561D02*
X105319048Y-51664085D01*
X105319048Y-51664085D02*
X105319048Y-51330752D01*
X105319048Y-51330752D02*
X105366667Y-51140276D01*
X105366667Y-51140276D02*
X105461905Y-51045038D01*
X105461905Y-51045038D02*
X105557143Y-50997419D01*
X106271429Y-50997419D02*
X106842857Y-50997419D01*
X106557143Y-51997419D02*
X106557143Y-50997419D01*
X107366667Y-50997419D02*
X107557143Y-50997419D01*
X107557143Y-50997419D02*
X107652381Y-51045038D01*
X107652381Y-51045038D02*
X107747619Y-51140276D01*
X107747619Y-51140276D02*
X107795238Y-51330752D01*
X107795238Y-51330752D02*
X107795238Y-51664085D01*
X107795238Y-51664085D02*
X107747619Y-51854561D01*
X107747619Y-51854561D02*
X107652381Y-51949800D01*
X107652381Y-51949800D02*
X107557143Y-51997419D01*
X107557143Y-51997419D02*
X107366667Y-51997419D01*
X107366667Y-51997419D02*
X107271429Y-51949800D01*
X107271429Y-51949800D02*
X107176191Y-51854561D01*
X107176191Y-51854561D02*
X107128572Y-51664085D01*
X107128572Y-51664085D02*
X107128572Y-51330752D01*
X107128572Y-51330752D02*
X107176191Y-51140276D01*
X107176191Y-51140276D02*
X107271429Y-51045038D01*
X107271429Y-51045038D02*
X107366667Y-50997419D01*
X108795238Y-51997419D02*
X108461905Y-51521228D01*
X108223810Y-51997419D02*
X108223810Y-50997419D01*
X108223810Y-50997419D02*
X108604762Y-50997419D01*
X108604762Y-50997419D02*
X108700000Y-51045038D01*
X108700000Y-51045038D02*
X108747619Y-51092657D01*
X108747619Y-51092657D02*
X108795238Y-51187895D01*
X108795238Y-51187895D02*
X108795238Y-51330752D01*
X108795238Y-51330752D02*
X108747619Y-51425990D01*
X108747619Y-51425990D02*
X108700000Y-51473609D01*
X108700000Y-51473609D02*
X108604762Y-51521228D01*
X108604762Y-51521228D02*
X108223810Y-51521228D01*
X109747619Y-51997419D02*
X109176191Y-51997419D01*
X109461905Y-51997419D02*
X109461905Y-50997419D01*
X109461905Y-50997419D02*
X109366667Y-51140276D01*
X109366667Y-51140276D02*
X109271429Y-51235514D01*
X109271429Y-51235514D02*
X109176191Y-51283133D01*
X158982580Y-55238095D02*
X158173057Y-55238095D01*
X158173057Y-55238095D02*
X158077819Y-55285714D01*
X158077819Y-55285714D02*
X158030200Y-55333333D01*
X158030200Y-55333333D02*
X157982580Y-55428571D01*
X157982580Y-55428571D02*
X157982580Y-55619047D01*
X157982580Y-55619047D02*
X158030200Y-55714285D01*
X158030200Y-55714285D02*
X158077819Y-55761904D01*
X158077819Y-55761904D02*
X158173057Y-55809523D01*
X158173057Y-55809523D02*
X158982580Y-55809523D01*
X157982580Y-56809523D02*
X157982580Y-56238095D01*
X157982580Y-56523809D02*
X158982580Y-56523809D01*
X158982580Y-56523809D02*
X158839723Y-56428571D01*
X158839723Y-56428571D02*
X158744485Y-56333333D01*
X158744485Y-56333333D02*
X158696866Y-56238095D01*
D12*
%TO.C,J2*%
X152490000Y-88740000D02*
X152490000Y-89660000D01*
X152490000Y-89660000D02*
X154090000Y-89660000D01*
X152490000Y-93940000D02*
X152490000Y-94860000D01*
X152490000Y-94860000D02*
X160310000Y-94860000D01*
X154090000Y-88740000D02*
X154090000Y-89660000D01*
X154090000Y-89660000D02*
X154090000Y-89940000D01*
X154090000Y-93660000D02*
X152875000Y-93660000D01*
X154090000Y-93660000D02*
X154090000Y-93940000D01*
X154090000Y-93940000D02*
X152490000Y-93940000D01*
X154090000Y-94860000D02*
X154090000Y-93940000D01*
X155950000Y-91300000D02*
X160310000Y-91300000D01*
X155950000Y-92300000D02*
X155950000Y-91300000D01*
X156450000Y-89500000D02*
X158050000Y-89500000D01*
X156450000Y-90500000D02*
X156450000Y-89500000D01*
X156450000Y-93100000D02*
X156450000Y-94100000D01*
X156450000Y-94100000D02*
X158050000Y-94100000D01*
X158050000Y-89500000D02*
X158050000Y-90500000D01*
X158050000Y-90500000D02*
X156450000Y-90500000D01*
X158050000Y-93100000D02*
X156450000Y-93100000D01*
X158050000Y-93100000D02*
X160310000Y-93100000D01*
X158050000Y-93600000D02*
X160310000Y-93600000D01*
X158050000Y-94100000D02*
X158050000Y-93100000D01*
X160310000Y-88740000D02*
X152490000Y-88740000D01*
X160310000Y-92300000D02*
X155950000Y-92300000D01*
X160310000Y-94860000D02*
X160310000Y-88740000D01*
%TO.C,D1*%
X131255000Y-95630000D02*
X134345000Y-95630000D01*
X131255170Y-95630000D02*
G75*
G02*
X132800000Y-90080000I1544830J2560000D01*
G01*
X132800000Y-90080000D02*
G75*
G02*
X134344830Y-95630000I0J-2990000D01*
G01*
X135300000Y-93070000D02*
G75*
G02*
X130300000Y-93070000I-2500000J0D01*
G01*
X130300000Y-93070000D02*
G75*
G02*
X135300000Y-93070000I2500000J0D01*
G01*
%TO.C,SW2*%
X84270000Y-86670000D02*
X84270000Y-91810000D01*
X84270000Y-86670000D02*
X86930000Y-86670000D01*
X84270000Y-91810000D02*
X86930000Y-91810000D01*
X85600000Y-84070000D02*
X86930000Y-84070000D01*
X86930000Y-84070000D02*
X86930000Y-85400000D01*
X86930000Y-86670000D02*
X86930000Y-91810000D01*
%TO.C,SW1*%
X103350000Y-92500000D02*
X103350000Y-94000000D01*
X104600000Y-96500000D02*
X109100000Y-96500000D01*
X109100000Y-90000000D02*
X104600000Y-90000000D01*
X110350000Y-94000000D02*
X110350000Y-92500000D01*
D10*
%TO.C,U1*%
X131260000Y-69852000D02*
X131260000Y-70868000D01*
X131768000Y-69344000D02*
X131768000Y-71376000D01*
X132276000Y-68836000D02*
X135324000Y-68836000D01*
X132276000Y-71884000D02*
X132276000Y-68836000D01*
X135324000Y-68836000D02*
X135324000Y-71884000D01*
X135324000Y-71884000D02*
X132276000Y-71884000D01*
X157930000Y-64010000D02*
X157930000Y-71630000D01*
X157930000Y-71630000D02*
X161740000Y-71630000D01*
X161740000Y-64010000D02*
X157930000Y-64010000D01*
%TD*%
M02*
