%TF.GenerationSoftware,KiCad,Pcbnew,9.0.6*%
%TF.CreationDate,2026-03-03T16:08:21-08:00*%
%TF.ProjectId,SnoreSense_Display_PCB_v1,536e6f72-6553-4656-9e73-655f44697370,rev?*%
%TF.SameCoordinates,Original*%
%TF.FileFunction,Legend,Bot*%
%TF.FilePolarity,Positive*%
%FSLAX46Y46*%
G04 Gerber Fmt 4.6, Leading zero omitted, Abs format (unit mm)*
G04 Created by KiCad (PCBNEW 9.0.6) date 2026-03-03 16:08:21*
%MOMM*%
%LPD*%
G01*
G04 APERTURE LIST*
%ADD10C,0.150000*%
%ADD11C,0.120000*%
G04 APERTURE END LIST*
D10*
X145859580Y-96633333D02*
X145907200Y-96585714D01*
X145907200Y-96585714D02*
X145954819Y-96442857D01*
X145954819Y-96442857D02*
X145954819Y-96347619D01*
X145954819Y-96347619D02*
X145907200Y-96204762D01*
X145907200Y-96204762D02*
X145811961Y-96109524D01*
X145811961Y-96109524D02*
X145716723Y-96061905D01*
X145716723Y-96061905D02*
X145526247Y-96014286D01*
X145526247Y-96014286D02*
X145383390Y-96014286D01*
X145383390Y-96014286D02*
X145192914Y-96061905D01*
X145192914Y-96061905D02*
X145097676Y-96109524D01*
X145097676Y-96109524D02*
X145002438Y-96204762D01*
X145002438Y-96204762D02*
X144954819Y-96347619D01*
X144954819Y-96347619D02*
X144954819Y-96442857D01*
X144954819Y-96442857D02*
X145002438Y-96585714D01*
X145002438Y-96585714D02*
X145050057Y-96633333D01*
X145050057Y-97014286D02*
X145002438Y-97061905D01*
X145002438Y-97061905D02*
X144954819Y-97157143D01*
X144954819Y-97157143D02*
X144954819Y-97395238D01*
X144954819Y-97395238D02*
X145002438Y-97490476D01*
X145002438Y-97490476D02*
X145050057Y-97538095D01*
X145050057Y-97538095D02*
X145145295Y-97585714D01*
X145145295Y-97585714D02*
X145240533Y-97585714D01*
X145240533Y-97585714D02*
X145383390Y-97538095D01*
X145383390Y-97538095D02*
X145954819Y-96966667D01*
X145954819Y-96966667D02*
X145954819Y-97585714D01*
X155966666Y-83517319D02*
X156299999Y-83041128D01*
X156538094Y-83517319D02*
X156538094Y-82517319D01*
X156538094Y-82517319D02*
X156157142Y-82517319D01*
X156157142Y-82517319D02*
X156061904Y-82564938D01*
X156061904Y-82564938D02*
X156014285Y-82612557D01*
X156014285Y-82612557D02*
X155966666Y-82707795D01*
X155966666Y-82707795D02*
X155966666Y-82850652D01*
X155966666Y-82850652D02*
X156014285Y-82945890D01*
X156014285Y-82945890D02*
X156061904Y-82993509D01*
X156061904Y-82993509D02*
X156157142Y-83041128D01*
X156157142Y-83041128D02*
X156538094Y-83041128D01*
X155585713Y-82612557D02*
X155538094Y-82564938D01*
X155538094Y-82564938D02*
X155442856Y-82517319D01*
X155442856Y-82517319D02*
X155204761Y-82517319D01*
X155204761Y-82517319D02*
X155109523Y-82564938D01*
X155109523Y-82564938D02*
X155061904Y-82612557D01*
X155061904Y-82612557D02*
X155014285Y-82707795D01*
X155014285Y-82707795D02*
X155014285Y-82803033D01*
X155014285Y-82803033D02*
X155061904Y-82945890D01*
X155061904Y-82945890D02*
X155633332Y-83517319D01*
X155633332Y-83517319D02*
X155014285Y-83517319D01*
X142349580Y-96633333D02*
X142397200Y-96585714D01*
X142397200Y-96585714D02*
X142444819Y-96442857D01*
X142444819Y-96442857D02*
X142444819Y-96347619D01*
X142444819Y-96347619D02*
X142397200Y-96204762D01*
X142397200Y-96204762D02*
X142301961Y-96109524D01*
X142301961Y-96109524D02*
X142206723Y-96061905D01*
X142206723Y-96061905D02*
X142016247Y-96014286D01*
X142016247Y-96014286D02*
X141873390Y-96014286D01*
X141873390Y-96014286D02*
X141682914Y-96061905D01*
X141682914Y-96061905D02*
X141587676Y-96109524D01*
X141587676Y-96109524D02*
X141492438Y-96204762D01*
X141492438Y-96204762D02*
X141444819Y-96347619D01*
X141444819Y-96347619D02*
X141444819Y-96442857D01*
X141444819Y-96442857D02*
X141492438Y-96585714D01*
X141492438Y-96585714D02*
X141540057Y-96633333D01*
X142444819Y-97585714D02*
X142444819Y-97014286D01*
X142444819Y-97300000D02*
X141444819Y-97300000D01*
X141444819Y-97300000D02*
X141587676Y-97204762D01*
X141587676Y-97204762D02*
X141682914Y-97109524D01*
X141682914Y-97109524D02*
X141730533Y-97014286D01*
X122454166Y-97604819D02*
X122787499Y-97128628D01*
X123025594Y-97604819D02*
X123025594Y-96604819D01*
X123025594Y-96604819D02*
X122644642Y-96604819D01*
X122644642Y-96604819D02*
X122549404Y-96652438D01*
X122549404Y-96652438D02*
X122501785Y-96700057D01*
X122501785Y-96700057D02*
X122454166Y-96795295D01*
X122454166Y-96795295D02*
X122454166Y-96938152D01*
X122454166Y-96938152D02*
X122501785Y-97033390D01*
X122501785Y-97033390D02*
X122549404Y-97081009D01*
X122549404Y-97081009D02*
X122644642Y-97128628D01*
X122644642Y-97128628D02*
X123025594Y-97128628D01*
X121501785Y-97604819D02*
X122073213Y-97604819D01*
X121787499Y-97604819D02*
X121787499Y-96604819D01*
X121787499Y-96604819D02*
X121882737Y-96747676D01*
X121882737Y-96747676D02*
X121977975Y-96842914D01*
X121977975Y-96842914D02*
X122073213Y-96890533D01*
D11*
%TO.C,C2*%
X144765000Y-100011252D02*
X144765000Y-99488748D01*
X146235000Y-100011252D02*
X146235000Y-99488748D01*
%TO.C,R2*%
X156027064Y-83977500D02*
X155572936Y-83977500D01*
X156027064Y-85447500D02*
X155572936Y-85447500D01*
%TO.C,C1*%
X141265000Y-100011252D02*
X141265000Y-99488748D01*
X142735000Y-100011252D02*
X142735000Y-99488748D01*
%TO.C,R1*%
X122514564Y-98065000D02*
X122060436Y-98065000D01*
X122514564Y-99535000D02*
X122060436Y-99535000D01*
%TD*%
M02*
