%TF.GenerationSoftware,KiCad,Pcbnew,9.0.6*%
%TF.CreationDate,2026-02-17T01:28:02-08:00*%
%TF.ProjectId,SnoreSense_Display_PCB_v1,536e6f72-6553-4656-9e73-655f44697370,rev?*%
%TF.SameCoordinates,Original*%
%TF.FileFunction,Copper,L1,Top*%
%TF.FilePolarity,Positive*%
%FSLAX46Y46*%
G04 Gerber Fmt 4.6, Leading zero omitted, Abs format (unit mm)*
G04 Created by KiCad (PCBNEW 9.0.6) date 2026-02-17 01:28:02*
%MOMM*%
%LPD*%
G01*
G04 APERTURE LIST*
G04 Aperture macros list*
%AMRoundRect*
0 Rectangle with rounded corners*
0 $1 Rounding radius*
0 $2 $3 $4 $5 $6 $7 $8 $9 X,Y pos of 4 corners*
0 Add a 4 corners polygon primitive as box body*
4,1,4,$2,$3,$4,$5,$6,$7,$8,$9,$2,$3,0*
0 Add four circle primitives for the rounded corners*
1,1,$1+$1,$2,$3*
1,1,$1+$1,$4,$5*
1,1,$1+$1,$6,$7*
1,1,$1+$1,$8,$9*
0 Add four rect primitives between the rounded corners*
20,1,$1+$1,$2,$3,$4,$5,0*
20,1,$1+$1,$4,$5,$6,$7,0*
20,1,$1+$1,$6,$7,$8,$9,0*
20,1,$1+$1,$8,$9,$2,$3,0*%
G04 Aperture macros list end*
%ADD10C,0.100000*%
%ADD11C,0.150000*%
%ADD12C,0.300000*%
%ADD13C,0.400000*%
%TA.AperFunction,ComponentPad*%
%ADD14RoundRect,0.250000X0.550000X-0.550000X0.550000X0.550000X-0.550000X0.550000X-0.550000X-0.550000X0*%
%TD*%
%TA.AperFunction,ComponentPad*%
%ADD15C,1.600000*%
%TD*%
%TA.AperFunction,ComponentPad*%
%ADD16O,3.500000X2.200000*%
%TD*%
%TA.AperFunction,ComponentPad*%
%ADD17R,2.500000X1.500000*%
%TD*%
%TA.AperFunction,ComponentPad*%
%ADD18O,2.500000X1.500000*%
%TD*%
%TA.AperFunction,ComponentPad*%
%ADD19RoundRect,0.250000X-0.550000X0.550000X-0.550000X-0.550000X0.550000X-0.550000X0.550000X0.550000X0*%
%TD*%
%TA.AperFunction,SMDPad,CuDef*%
%ADD20RoundRect,0.250000X0.475000X-0.250000X0.475000X0.250000X-0.475000X0.250000X-0.475000X-0.250000X0*%
%TD*%
%TA.AperFunction,SMDPad,CuDef*%
%ADD21RoundRect,0.250000X-0.450000X0.262500X-0.450000X-0.262500X0.450000X-0.262500X0.450000X0.262500X0*%
%TD*%
%TA.AperFunction,ComponentPad*%
%ADD22RoundRect,0.250000X0.625000X-0.350000X0.625000X0.350000X-0.625000X0.350000X-0.625000X-0.350000X0*%
%TD*%
%TA.AperFunction,ComponentPad*%
%ADD23O,1.750000X1.200000*%
%TD*%
%TA.AperFunction,ComponentPad*%
%ADD24R,1.800000X1.800000*%
%TD*%
%TA.AperFunction,ComponentPad*%
%ADD25C,1.800000*%
%TD*%
%TA.AperFunction,ComponentPad*%
%ADD26C,2.000000*%
%TD*%
%TA.AperFunction,SMDPad,CuDef*%
%ADD27RoundRect,0.250000X-0.262500X-0.450000X0.262500X-0.450000X0.262500X0.450000X-0.262500X0.450000X0*%
%TD*%
%TA.AperFunction,ComponentPad*%
%ADD28C,1.700000*%
%TD*%
%TA.AperFunction,SMDPad,CuDef*%
%ADD29RoundRect,0.500000X-0.500000X1.000000X-0.500000X-1.000000X0.500000X-1.000000X0.500000X1.000000X0*%
%TD*%
%TA.AperFunction,HeatsinkPad*%
%ADD30RoundRect,0.250000X-1.500000X1.500000X-1.500000X-1.500000X1.500000X-1.500000X1.500000X1.500000X0*%
%TD*%
%TA.AperFunction,SMDPad,CuDef*%
%ADD31RoundRect,0.250000X-0.400000X0.900000X-0.400000X-0.900000X0.400000X-0.900000X0.400000X0.900000X0*%
%TD*%
%TA.AperFunction,SMDPad,CuDef*%
%ADD32C,1.300000*%
%TD*%
%TA.AperFunction,ViaPad*%
%ADD33C,0.600000*%
%TD*%
%TA.AperFunction,Conductor*%
%ADD34C,0.250000*%
%TD*%
G04 APERTURE END LIST*
D10*
D11*
X177002200Y-166007200D02*
X285002200Y-166007200D01*
X285002200Y-198007200D01*
X177002200Y-198007200D01*
X177002200Y-166007200D01*
D10*
D11*
X10000000Y-10000000D02*
X287002200Y-10000000D01*
X287002200Y-200007200D01*
X10000000Y-200007200D01*
X10000000Y-10000000D01*
D10*
D11*
X12000000Y-12000000D02*
X285002200Y-12000000D01*
X285002200Y-198007200D01*
X12000000Y-198007200D01*
X12000000Y-12000000D01*
D10*
D11*
X60000000Y-12000000D02*
X60000000Y-10000000D01*
D10*
D11*
X110000000Y-12000000D02*
X110000000Y-10000000D01*
D10*
D11*
X160000000Y-12000000D02*
X160000000Y-10000000D01*
D10*
D11*
X210000000Y-12000000D02*
X210000000Y-10000000D01*
D10*
D11*
X260000000Y-12000000D02*
X260000000Y-10000000D01*
D10*
D11*
X36089160Y-11593604D02*
X35346303Y-11593604D01*
X35717731Y-11593604D02*
X35717731Y-10293604D01*
X35717731Y-10293604D02*
X35593922Y-10479319D01*
X35593922Y-10479319D02*
X35470112Y-10603128D01*
X35470112Y-10603128D02*
X35346303Y-10665033D01*
D10*
D11*
X85346303Y-10417414D02*
X85408207Y-10355509D01*
X85408207Y-10355509D02*
X85532017Y-10293604D01*
X85532017Y-10293604D02*
X85841541Y-10293604D01*
X85841541Y-10293604D02*
X85965350Y-10355509D01*
X85965350Y-10355509D02*
X86027255Y-10417414D01*
X86027255Y-10417414D02*
X86089160Y-10541223D01*
X86089160Y-10541223D02*
X86089160Y-10665033D01*
X86089160Y-10665033D02*
X86027255Y-10850747D01*
X86027255Y-10850747D02*
X85284398Y-11593604D01*
X85284398Y-11593604D02*
X86089160Y-11593604D01*
D10*
D11*
X135284398Y-10293604D02*
X136089160Y-10293604D01*
X136089160Y-10293604D02*
X135655826Y-10788842D01*
X135655826Y-10788842D02*
X135841541Y-10788842D01*
X135841541Y-10788842D02*
X135965350Y-10850747D01*
X135965350Y-10850747D02*
X136027255Y-10912652D01*
X136027255Y-10912652D02*
X136089160Y-11036461D01*
X136089160Y-11036461D02*
X136089160Y-11345985D01*
X136089160Y-11345985D02*
X136027255Y-11469795D01*
X136027255Y-11469795D02*
X135965350Y-11531700D01*
X135965350Y-11531700D02*
X135841541Y-11593604D01*
X135841541Y-11593604D02*
X135470112Y-11593604D01*
X135470112Y-11593604D02*
X135346303Y-11531700D01*
X135346303Y-11531700D02*
X135284398Y-11469795D01*
D10*
D11*
X185965350Y-10726938D02*
X185965350Y-11593604D01*
X185655826Y-10231700D02*
X185346303Y-11160271D01*
X185346303Y-11160271D02*
X186151064Y-11160271D01*
D10*
D11*
X236027255Y-10293604D02*
X235408207Y-10293604D01*
X235408207Y-10293604D02*
X235346303Y-10912652D01*
X235346303Y-10912652D02*
X235408207Y-10850747D01*
X235408207Y-10850747D02*
X235532017Y-10788842D01*
X235532017Y-10788842D02*
X235841541Y-10788842D01*
X235841541Y-10788842D02*
X235965350Y-10850747D01*
X235965350Y-10850747D02*
X236027255Y-10912652D01*
X236027255Y-10912652D02*
X236089160Y-11036461D01*
X236089160Y-11036461D02*
X236089160Y-11345985D01*
X236089160Y-11345985D02*
X236027255Y-11469795D01*
X236027255Y-11469795D02*
X235965350Y-11531700D01*
X235965350Y-11531700D02*
X235841541Y-11593604D01*
X235841541Y-11593604D02*
X235532017Y-11593604D01*
X235532017Y-11593604D02*
X235408207Y-11531700D01*
X235408207Y-11531700D02*
X235346303Y-11469795D01*
D10*
D11*
X285965350Y-10293604D02*
X285717731Y-10293604D01*
X285717731Y-10293604D02*
X285593922Y-10355509D01*
X285593922Y-10355509D02*
X285532017Y-10417414D01*
X285532017Y-10417414D02*
X285408207Y-10603128D01*
X285408207Y-10603128D02*
X285346303Y-10850747D01*
X285346303Y-10850747D02*
X285346303Y-11345985D01*
X285346303Y-11345985D02*
X285408207Y-11469795D01*
X285408207Y-11469795D02*
X285470112Y-11531700D01*
X285470112Y-11531700D02*
X285593922Y-11593604D01*
X285593922Y-11593604D02*
X285841541Y-11593604D01*
X285841541Y-11593604D02*
X285965350Y-11531700D01*
X285965350Y-11531700D02*
X286027255Y-11469795D01*
X286027255Y-11469795D02*
X286089160Y-11345985D01*
X286089160Y-11345985D02*
X286089160Y-11036461D01*
X286089160Y-11036461D02*
X286027255Y-10912652D01*
X286027255Y-10912652D02*
X285965350Y-10850747D01*
X285965350Y-10850747D02*
X285841541Y-10788842D01*
X285841541Y-10788842D02*
X285593922Y-10788842D01*
X285593922Y-10788842D02*
X285470112Y-10850747D01*
X285470112Y-10850747D02*
X285408207Y-10912652D01*
X285408207Y-10912652D02*
X285346303Y-11036461D01*
D10*
D11*
X60000000Y-198007200D02*
X60000000Y-200007200D01*
D10*
D11*
X110000000Y-198007200D02*
X110000000Y-200007200D01*
D10*
D11*
X160000000Y-198007200D02*
X160000000Y-200007200D01*
D10*
D11*
X210000000Y-198007200D02*
X210000000Y-200007200D01*
D10*
D11*
X260000000Y-198007200D02*
X260000000Y-200007200D01*
D10*
D11*
X36089160Y-199600804D02*
X35346303Y-199600804D01*
X35717731Y-199600804D02*
X35717731Y-198300804D01*
X35717731Y-198300804D02*
X35593922Y-198486519D01*
X35593922Y-198486519D02*
X35470112Y-198610328D01*
X35470112Y-198610328D02*
X35346303Y-198672233D01*
D10*
D11*
X85346303Y-198424614D02*
X85408207Y-198362709D01*
X85408207Y-198362709D02*
X85532017Y-198300804D01*
X85532017Y-198300804D02*
X85841541Y-198300804D01*
X85841541Y-198300804D02*
X85965350Y-198362709D01*
X85965350Y-198362709D02*
X86027255Y-198424614D01*
X86027255Y-198424614D02*
X86089160Y-198548423D01*
X86089160Y-198548423D02*
X86089160Y-198672233D01*
X86089160Y-198672233D02*
X86027255Y-198857947D01*
X86027255Y-198857947D02*
X85284398Y-199600804D01*
X85284398Y-199600804D02*
X86089160Y-199600804D01*
D10*
D11*
X135284398Y-198300804D02*
X136089160Y-198300804D01*
X136089160Y-198300804D02*
X135655826Y-198796042D01*
X135655826Y-198796042D02*
X135841541Y-198796042D01*
X135841541Y-198796042D02*
X135965350Y-198857947D01*
X135965350Y-198857947D02*
X136027255Y-198919852D01*
X136027255Y-198919852D02*
X136089160Y-199043661D01*
X136089160Y-199043661D02*
X136089160Y-199353185D01*
X136089160Y-199353185D02*
X136027255Y-199476995D01*
X136027255Y-199476995D02*
X135965350Y-199538900D01*
X135965350Y-199538900D02*
X135841541Y-199600804D01*
X135841541Y-199600804D02*
X135470112Y-199600804D01*
X135470112Y-199600804D02*
X135346303Y-199538900D01*
X135346303Y-199538900D02*
X135284398Y-199476995D01*
D10*
D11*
X185965350Y-198734138D02*
X185965350Y-199600804D01*
X185655826Y-198238900D02*
X185346303Y-199167471D01*
X185346303Y-199167471D02*
X186151064Y-199167471D01*
D10*
D11*
X236027255Y-198300804D02*
X235408207Y-198300804D01*
X235408207Y-198300804D02*
X235346303Y-198919852D01*
X235346303Y-198919852D02*
X235408207Y-198857947D01*
X235408207Y-198857947D02*
X235532017Y-198796042D01*
X235532017Y-198796042D02*
X235841541Y-198796042D01*
X235841541Y-198796042D02*
X235965350Y-198857947D01*
X235965350Y-198857947D02*
X236027255Y-198919852D01*
X236027255Y-198919852D02*
X236089160Y-199043661D01*
X236089160Y-199043661D02*
X236089160Y-199353185D01*
X236089160Y-199353185D02*
X236027255Y-199476995D01*
X236027255Y-199476995D02*
X235965350Y-199538900D01*
X235965350Y-199538900D02*
X235841541Y-199600804D01*
X235841541Y-199600804D02*
X235532017Y-199600804D01*
X235532017Y-199600804D02*
X235408207Y-199538900D01*
X235408207Y-199538900D02*
X235346303Y-199476995D01*
D10*
D11*
X285965350Y-198300804D02*
X285717731Y-198300804D01*
X285717731Y-198300804D02*
X285593922Y-198362709D01*
X285593922Y-198362709D02*
X285532017Y-198424614D01*
X285532017Y-198424614D02*
X285408207Y-198610328D01*
X285408207Y-198610328D02*
X285346303Y-198857947D01*
X285346303Y-198857947D02*
X285346303Y-199353185D01*
X285346303Y-199353185D02*
X285408207Y-199476995D01*
X285408207Y-199476995D02*
X285470112Y-199538900D01*
X285470112Y-199538900D02*
X285593922Y-199600804D01*
X285593922Y-199600804D02*
X285841541Y-199600804D01*
X285841541Y-199600804D02*
X285965350Y-199538900D01*
X285965350Y-199538900D02*
X286027255Y-199476995D01*
X286027255Y-199476995D02*
X286089160Y-199353185D01*
X286089160Y-199353185D02*
X286089160Y-199043661D01*
X286089160Y-199043661D02*
X286027255Y-198919852D01*
X286027255Y-198919852D02*
X285965350Y-198857947D01*
X285965350Y-198857947D02*
X285841541Y-198796042D01*
X285841541Y-198796042D02*
X285593922Y-198796042D01*
X285593922Y-198796042D02*
X285470112Y-198857947D01*
X285470112Y-198857947D02*
X285408207Y-198919852D01*
X285408207Y-198919852D02*
X285346303Y-199043661D01*
D10*
D11*
X10000000Y-60000000D02*
X12000000Y-60000000D01*
D10*
D11*
X10000000Y-110000000D02*
X12000000Y-110000000D01*
D10*
D11*
X10000000Y-160000000D02*
X12000000Y-160000000D01*
D10*
D11*
X10690476Y-35222176D02*
X11309523Y-35222176D01*
X10566666Y-35593604D02*
X10999999Y-34293604D01*
X10999999Y-34293604D02*
X11433333Y-35593604D01*
D10*
D11*
X11092857Y-84912652D02*
X11278571Y-84974557D01*
X11278571Y-84974557D02*
X11340476Y-85036461D01*
X11340476Y-85036461D02*
X11402380Y-85160271D01*
X11402380Y-85160271D02*
X11402380Y-85345985D01*
X11402380Y-85345985D02*
X11340476Y-85469795D01*
X11340476Y-85469795D02*
X11278571Y-85531700D01*
X11278571Y-85531700D02*
X11154761Y-85593604D01*
X11154761Y-85593604D02*
X10659523Y-85593604D01*
X10659523Y-85593604D02*
X10659523Y-84293604D01*
X10659523Y-84293604D02*
X11092857Y-84293604D01*
X11092857Y-84293604D02*
X11216666Y-84355509D01*
X11216666Y-84355509D02*
X11278571Y-84417414D01*
X11278571Y-84417414D02*
X11340476Y-84541223D01*
X11340476Y-84541223D02*
X11340476Y-84665033D01*
X11340476Y-84665033D02*
X11278571Y-84788842D01*
X11278571Y-84788842D02*
X11216666Y-84850747D01*
X11216666Y-84850747D02*
X11092857Y-84912652D01*
X11092857Y-84912652D02*
X10659523Y-84912652D01*
D10*
D11*
X11402380Y-135469795D02*
X11340476Y-135531700D01*
X11340476Y-135531700D02*
X11154761Y-135593604D01*
X11154761Y-135593604D02*
X11030952Y-135593604D01*
X11030952Y-135593604D02*
X10845238Y-135531700D01*
X10845238Y-135531700D02*
X10721428Y-135407890D01*
X10721428Y-135407890D02*
X10659523Y-135284080D01*
X10659523Y-135284080D02*
X10597619Y-135036461D01*
X10597619Y-135036461D02*
X10597619Y-134850747D01*
X10597619Y-134850747D02*
X10659523Y-134603128D01*
X10659523Y-134603128D02*
X10721428Y-134479319D01*
X10721428Y-134479319D02*
X10845238Y-134355509D01*
X10845238Y-134355509D02*
X11030952Y-134293604D01*
X11030952Y-134293604D02*
X11154761Y-134293604D01*
X11154761Y-134293604D02*
X11340476Y-134355509D01*
X11340476Y-134355509D02*
X11402380Y-134417414D01*
D10*
D11*
X10659523Y-185593604D02*
X10659523Y-184293604D01*
X10659523Y-184293604D02*
X10969047Y-184293604D01*
X10969047Y-184293604D02*
X11154761Y-184355509D01*
X11154761Y-184355509D02*
X11278571Y-184479319D01*
X11278571Y-184479319D02*
X11340476Y-184603128D01*
X11340476Y-184603128D02*
X11402380Y-184850747D01*
X11402380Y-184850747D02*
X11402380Y-185036461D01*
X11402380Y-185036461D02*
X11340476Y-185284080D01*
X11340476Y-185284080D02*
X11278571Y-185407890D01*
X11278571Y-185407890D02*
X11154761Y-185531700D01*
X11154761Y-185531700D02*
X10969047Y-185593604D01*
X10969047Y-185593604D02*
X10659523Y-185593604D01*
D10*
D11*
X287002200Y-60000000D02*
X285002200Y-60000000D01*
D10*
D11*
X287002200Y-110000000D02*
X285002200Y-110000000D01*
D10*
D11*
X287002200Y-160000000D02*
X285002200Y-160000000D01*
D10*
D11*
X285692676Y-35222176D02*
X286311723Y-35222176D01*
X285568866Y-35593604D02*
X286002199Y-34293604D01*
X286002199Y-34293604D02*
X286435533Y-35593604D01*
D10*
D11*
X286095057Y-84912652D02*
X286280771Y-84974557D01*
X286280771Y-84974557D02*
X286342676Y-85036461D01*
X286342676Y-85036461D02*
X286404580Y-85160271D01*
X286404580Y-85160271D02*
X286404580Y-85345985D01*
X286404580Y-85345985D02*
X286342676Y-85469795D01*
X286342676Y-85469795D02*
X286280771Y-85531700D01*
X286280771Y-85531700D02*
X286156961Y-85593604D01*
X286156961Y-85593604D02*
X285661723Y-85593604D01*
X285661723Y-85593604D02*
X285661723Y-84293604D01*
X285661723Y-84293604D02*
X286095057Y-84293604D01*
X286095057Y-84293604D02*
X286218866Y-84355509D01*
X286218866Y-84355509D02*
X286280771Y-84417414D01*
X286280771Y-84417414D02*
X286342676Y-84541223D01*
X286342676Y-84541223D02*
X286342676Y-84665033D01*
X286342676Y-84665033D02*
X286280771Y-84788842D01*
X286280771Y-84788842D02*
X286218866Y-84850747D01*
X286218866Y-84850747D02*
X286095057Y-84912652D01*
X286095057Y-84912652D02*
X285661723Y-84912652D01*
D10*
D11*
X286404580Y-135469795D02*
X286342676Y-135531700D01*
X286342676Y-135531700D02*
X286156961Y-135593604D01*
X286156961Y-135593604D02*
X286033152Y-135593604D01*
X286033152Y-135593604D02*
X285847438Y-135531700D01*
X285847438Y-135531700D02*
X285723628Y-135407890D01*
X285723628Y-135407890D02*
X285661723Y-135284080D01*
X285661723Y-135284080D02*
X285599819Y-135036461D01*
X285599819Y-135036461D02*
X285599819Y-134850747D01*
X285599819Y-134850747D02*
X285661723Y-134603128D01*
X285661723Y-134603128D02*
X285723628Y-134479319D01*
X285723628Y-134479319D02*
X285847438Y-134355509D01*
X285847438Y-134355509D02*
X286033152Y-134293604D01*
X286033152Y-134293604D02*
X286156961Y-134293604D01*
X286156961Y-134293604D02*
X286342676Y-134355509D01*
X286342676Y-134355509D02*
X286404580Y-134417414D01*
D10*
D11*
X285661723Y-185593604D02*
X285661723Y-184293604D01*
X285661723Y-184293604D02*
X285971247Y-184293604D01*
X285971247Y-184293604D02*
X286156961Y-184355509D01*
X286156961Y-184355509D02*
X286280771Y-184479319D01*
X286280771Y-184479319D02*
X286342676Y-184603128D01*
X286342676Y-184603128D02*
X286404580Y-184850747D01*
X286404580Y-184850747D02*
X286404580Y-185036461D01*
X286404580Y-185036461D02*
X286342676Y-185284080D01*
X286342676Y-185284080D02*
X286280771Y-185407890D01*
X286280771Y-185407890D02*
X286156961Y-185531700D01*
X286156961Y-185531700D02*
X285971247Y-185593604D01*
X285971247Y-185593604D02*
X285661723Y-185593604D01*
D10*
D11*
X200458026Y-193793328D02*
X200458026Y-192293328D01*
X200458026Y-192293328D02*
X200815169Y-192293328D01*
X200815169Y-192293328D02*
X201029455Y-192364757D01*
X201029455Y-192364757D02*
X201172312Y-192507614D01*
X201172312Y-192507614D02*
X201243741Y-192650471D01*
X201243741Y-192650471D02*
X201315169Y-192936185D01*
X201315169Y-192936185D02*
X201315169Y-193150471D01*
X201315169Y-193150471D02*
X201243741Y-193436185D01*
X201243741Y-193436185D02*
X201172312Y-193579042D01*
X201172312Y-193579042D02*
X201029455Y-193721900D01*
X201029455Y-193721900D02*
X200815169Y-193793328D01*
X200815169Y-193793328D02*
X200458026Y-193793328D01*
X202600884Y-193793328D02*
X202600884Y-193007614D01*
X202600884Y-193007614D02*
X202529455Y-192864757D01*
X202529455Y-192864757D02*
X202386598Y-192793328D01*
X202386598Y-192793328D02*
X202100884Y-192793328D01*
X202100884Y-192793328D02*
X201958026Y-192864757D01*
X202600884Y-193721900D02*
X202458026Y-193793328D01*
X202458026Y-193793328D02*
X202100884Y-193793328D01*
X202100884Y-193793328D02*
X201958026Y-193721900D01*
X201958026Y-193721900D02*
X201886598Y-193579042D01*
X201886598Y-193579042D02*
X201886598Y-193436185D01*
X201886598Y-193436185D02*
X201958026Y-193293328D01*
X201958026Y-193293328D02*
X202100884Y-193221900D01*
X202100884Y-193221900D02*
X202458026Y-193221900D01*
X202458026Y-193221900D02*
X202600884Y-193150471D01*
X203100884Y-192793328D02*
X203672312Y-192793328D01*
X203315169Y-192293328D02*
X203315169Y-193579042D01*
X203315169Y-193579042D02*
X203386598Y-193721900D01*
X203386598Y-193721900D02*
X203529455Y-193793328D01*
X203529455Y-193793328D02*
X203672312Y-193793328D01*
X204743741Y-193721900D02*
X204600884Y-193793328D01*
X204600884Y-193793328D02*
X204315170Y-193793328D01*
X204315170Y-193793328D02*
X204172312Y-193721900D01*
X204172312Y-193721900D02*
X204100884Y-193579042D01*
X204100884Y-193579042D02*
X204100884Y-193007614D01*
X204100884Y-193007614D02*
X204172312Y-192864757D01*
X204172312Y-192864757D02*
X204315170Y-192793328D01*
X204315170Y-192793328D02*
X204600884Y-192793328D01*
X204600884Y-192793328D02*
X204743741Y-192864757D01*
X204743741Y-192864757D02*
X204815170Y-193007614D01*
X204815170Y-193007614D02*
X204815170Y-193150471D01*
X204815170Y-193150471D02*
X204100884Y-193293328D01*
X205458026Y-193650471D02*
X205529455Y-193721900D01*
X205529455Y-193721900D02*
X205458026Y-193793328D01*
X205458026Y-193793328D02*
X205386598Y-193721900D01*
X205386598Y-193721900D02*
X205458026Y-193650471D01*
X205458026Y-193650471D02*
X205458026Y-193793328D01*
X205458026Y-192864757D02*
X205529455Y-192936185D01*
X205529455Y-192936185D02*
X205458026Y-193007614D01*
X205458026Y-193007614D02*
X205386598Y-192936185D01*
X205386598Y-192936185D02*
X205458026Y-192864757D01*
X205458026Y-192864757D02*
X205458026Y-193007614D01*
D10*
D11*
X177002200Y-194507200D02*
X285002200Y-194507200D01*
D10*
D11*
X178458026Y-196593328D02*
X178458026Y-195093328D01*
X179315169Y-196593328D02*
X178672312Y-195736185D01*
X179315169Y-195093328D02*
X178458026Y-195950471D01*
X179958026Y-196593328D02*
X179958026Y-195593328D01*
X179958026Y-195093328D02*
X179886598Y-195164757D01*
X179886598Y-195164757D02*
X179958026Y-195236185D01*
X179958026Y-195236185D02*
X180029455Y-195164757D01*
X180029455Y-195164757D02*
X179958026Y-195093328D01*
X179958026Y-195093328D02*
X179958026Y-195236185D01*
X181529455Y-196450471D02*
X181458027Y-196521900D01*
X181458027Y-196521900D02*
X181243741Y-196593328D01*
X181243741Y-196593328D02*
X181100884Y-196593328D01*
X181100884Y-196593328D02*
X180886598Y-196521900D01*
X180886598Y-196521900D02*
X180743741Y-196379042D01*
X180743741Y-196379042D02*
X180672312Y-196236185D01*
X180672312Y-196236185D02*
X180600884Y-195950471D01*
X180600884Y-195950471D02*
X180600884Y-195736185D01*
X180600884Y-195736185D02*
X180672312Y-195450471D01*
X180672312Y-195450471D02*
X180743741Y-195307614D01*
X180743741Y-195307614D02*
X180886598Y-195164757D01*
X180886598Y-195164757D02*
X181100884Y-195093328D01*
X181100884Y-195093328D02*
X181243741Y-195093328D01*
X181243741Y-195093328D02*
X181458027Y-195164757D01*
X181458027Y-195164757D02*
X181529455Y-195236185D01*
X182815170Y-196593328D02*
X182815170Y-195807614D01*
X182815170Y-195807614D02*
X182743741Y-195664757D01*
X182743741Y-195664757D02*
X182600884Y-195593328D01*
X182600884Y-195593328D02*
X182315170Y-195593328D01*
X182315170Y-195593328D02*
X182172312Y-195664757D01*
X182815170Y-196521900D02*
X182672312Y-196593328D01*
X182672312Y-196593328D02*
X182315170Y-196593328D01*
X182315170Y-196593328D02*
X182172312Y-196521900D01*
X182172312Y-196521900D02*
X182100884Y-196379042D01*
X182100884Y-196379042D02*
X182100884Y-196236185D01*
X182100884Y-196236185D02*
X182172312Y-196093328D01*
X182172312Y-196093328D02*
X182315170Y-196021900D01*
X182315170Y-196021900D02*
X182672312Y-196021900D01*
X182672312Y-196021900D02*
X182815170Y-195950471D01*
X184172313Y-196593328D02*
X184172313Y-195093328D01*
X184172313Y-196521900D02*
X184029455Y-196593328D01*
X184029455Y-196593328D02*
X183743741Y-196593328D01*
X183743741Y-196593328D02*
X183600884Y-196521900D01*
X183600884Y-196521900D02*
X183529455Y-196450471D01*
X183529455Y-196450471D02*
X183458027Y-196307614D01*
X183458027Y-196307614D02*
X183458027Y-195879042D01*
X183458027Y-195879042D02*
X183529455Y-195736185D01*
X183529455Y-195736185D02*
X183600884Y-195664757D01*
X183600884Y-195664757D02*
X183743741Y-195593328D01*
X183743741Y-195593328D02*
X184029455Y-195593328D01*
X184029455Y-195593328D02*
X184172313Y-195664757D01*
X186029455Y-195807614D02*
X186529455Y-195807614D01*
X186743741Y-196593328D02*
X186029455Y-196593328D01*
X186029455Y-196593328D02*
X186029455Y-195093328D01*
X186029455Y-195093328D02*
X186743741Y-195093328D01*
X187386598Y-196450471D02*
X187458027Y-196521900D01*
X187458027Y-196521900D02*
X187386598Y-196593328D01*
X187386598Y-196593328D02*
X187315170Y-196521900D01*
X187315170Y-196521900D02*
X187386598Y-196450471D01*
X187386598Y-196450471D02*
X187386598Y-196593328D01*
X188100884Y-196593328D02*
X188100884Y-195093328D01*
X188100884Y-195093328D02*
X188458027Y-195093328D01*
X188458027Y-195093328D02*
X188672313Y-195164757D01*
X188672313Y-195164757D02*
X188815170Y-195307614D01*
X188815170Y-195307614D02*
X188886599Y-195450471D01*
X188886599Y-195450471D02*
X188958027Y-195736185D01*
X188958027Y-195736185D02*
X188958027Y-195950471D01*
X188958027Y-195950471D02*
X188886599Y-196236185D01*
X188886599Y-196236185D02*
X188815170Y-196379042D01*
X188815170Y-196379042D02*
X188672313Y-196521900D01*
X188672313Y-196521900D02*
X188458027Y-196593328D01*
X188458027Y-196593328D02*
X188100884Y-196593328D01*
X189600884Y-196450471D02*
X189672313Y-196521900D01*
X189672313Y-196521900D02*
X189600884Y-196593328D01*
X189600884Y-196593328D02*
X189529456Y-196521900D01*
X189529456Y-196521900D02*
X189600884Y-196450471D01*
X189600884Y-196450471D02*
X189600884Y-196593328D01*
X190243742Y-196164757D02*
X190958028Y-196164757D01*
X190100885Y-196593328D02*
X190600885Y-195093328D01*
X190600885Y-195093328D02*
X191100885Y-196593328D01*
X191600884Y-196450471D02*
X191672313Y-196521900D01*
X191672313Y-196521900D02*
X191600884Y-196593328D01*
X191600884Y-196593328D02*
X191529456Y-196521900D01*
X191529456Y-196521900D02*
X191600884Y-196450471D01*
X191600884Y-196450471D02*
X191600884Y-196593328D01*
X193529456Y-196593328D02*
X193815170Y-196593328D01*
X193815170Y-196593328D02*
X193958027Y-196521900D01*
X193958027Y-196521900D02*
X194029456Y-196450471D01*
X194029456Y-196450471D02*
X194172313Y-196236185D01*
X194172313Y-196236185D02*
X194243742Y-195950471D01*
X194243742Y-195950471D02*
X194243742Y-195379042D01*
X194243742Y-195379042D02*
X194172313Y-195236185D01*
X194172313Y-195236185D02*
X194100885Y-195164757D01*
X194100885Y-195164757D02*
X193958027Y-195093328D01*
X193958027Y-195093328D02*
X193672313Y-195093328D01*
X193672313Y-195093328D02*
X193529456Y-195164757D01*
X193529456Y-195164757D02*
X193458027Y-195236185D01*
X193458027Y-195236185D02*
X193386599Y-195379042D01*
X193386599Y-195379042D02*
X193386599Y-195736185D01*
X193386599Y-195736185D02*
X193458027Y-195879042D01*
X193458027Y-195879042D02*
X193529456Y-195950471D01*
X193529456Y-195950471D02*
X193672313Y-196021900D01*
X193672313Y-196021900D02*
X193958027Y-196021900D01*
X193958027Y-196021900D02*
X194100885Y-195950471D01*
X194100885Y-195950471D02*
X194172313Y-195879042D01*
X194172313Y-195879042D02*
X194243742Y-195736185D01*
X194886598Y-196450471D02*
X194958027Y-196521900D01*
X194958027Y-196521900D02*
X194886598Y-196593328D01*
X194886598Y-196593328D02*
X194815170Y-196521900D01*
X194815170Y-196521900D02*
X194886598Y-196450471D01*
X194886598Y-196450471D02*
X194886598Y-196593328D01*
X195886599Y-195093328D02*
X196029456Y-195093328D01*
X196029456Y-195093328D02*
X196172313Y-195164757D01*
X196172313Y-195164757D02*
X196243742Y-195236185D01*
X196243742Y-195236185D02*
X196315170Y-195379042D01*
X196315170Y-195379042D02*
X196386599Y-195664757D01*
X196386599Y-195664757D02*
X196386599Y-196021900D01*
X196386599Y-196021900D02*
X196315170Y-196307614D01*
X196315170Y-196307614D02*
X196243742Y-196450471D01*
X196243742Y-196450471D02*
X196172313Y-196521900D01*
X196172313Y-196521900D02*
X196029456Y-196593328D01*
X196029456Y-196593328D02*
X195886599Y-196593328D01*
X195886599Y-196593328D02*
X195743742Y-196521900D01*
X195743742Y-196521900D02*
X195672313Y-196450471D01*
X195672313Y-196450471D02*
X195600884Y-196307614D01*
X195600884Y-196307614D02*
X195529456Y-196021900D01*
X195529456Y-196021900D02*
X195529456Y-195664757D01*
X195529456Y-195664757D02*
X195600884Y-195379042D01*
X195600884Y-195379042D02*
X195672313Y-195236185D01*
X195672313Y-195236185D02*
X195743742Y-195164757D01*
X195743742Y-195164757D02*
X195886599Y-195093328D01*
X197029455Y-196450471D02*
X197100884Y-196521900D01*
X197100884Y-196521900D02*
X197029455Y-196593328D01*
X197029455Y-196593328D02*
X196958027Y-196521900D01*
X196958027Y-196521900D02*
X197029455Y-196450471D01*
X197029455Y-196450471D02*
X197029455Y-196593328D01*
X198386599Y-195093328D02*
X198100884Y-195093328D01*
X198100884Y-195093328D02*
X197958027Y-195164757D01*
X197958027Y-195164757D02*
X197886599Y-195236185D01*
X197886599Y-195236185D02*
X197743741Y-195450471D01*
X197743741Y-195450471D02*
X197672313Y-195736185D01*
X197672313Y-195736185D02*
X197672313Y-196307614D01*
X197672313Y-196307614D02*
X197743741Y-196450471D01*
X197743741Y-196450471D02*
X197815170Y-196521900D01*
X197815170Y-196521900D02*
X197958027Y-196593328D01*
X197958027Y-196593328D02*
X198243741Y-196593328D01*
X198243741Y-196593328D02*
X198386599Y-196521900D01*
X198386599Y-196521900D02*
X198458027Y-196450471D01*
X198458027Y-196450471D02*
X198529456Y-196307614D01*
X198529456Y-196307614D02*
X198529456Y-195950471D01*
X198529456Y-195950471D02*
X198458027Y-195807614D01*
X198458027Y-195807614D02*
X198386599Y-195736185D01*
X198386599Y-195736185D02*
X198243741Y-195664757D01*
X198243741Y-195664757D02*
X197958027Y-195664757D01*
X197958027Y-195664757D02*
X197815170Y-195736185D01*
X197815170Y-195736185D02*
X197743741Y-195807614D01*
X197743741Y-195807614D02*
X197672313Y-195950471D01*
D10*
D11*
X177002200Y-191507200D02*
X285002200Y-191507200D01*
D10*
D12*
X264413853Y-193785528D02*
X263913853Y-193071242D01*
X263556710Y-193785528D02*
X263556710Y-192285528D01*
X263556710Y-192285528D02*
X264128139Y-192285528D01*
X264128139Y-192285528D02*
X264270996Y-192356957D01*
X264270996Y-192356957D02*
X264342425Y-192428385D01*
X264342425Y-192428385D02*
X264413853Y-192571242D01*
X264413853Y-192571242D02*
X264413853Y-192785528D01*
X264413853Y-192785528D02*
X264342425Y-192928385D01*
X264342425Y-192928385D02*
X264270996Y-192999814D01*
X264270996Y-192999814D02*
X264128139Y-193071242D01*
X264128139Y-193071242D02*
X263556710Y-193071242D01*
X265628139Y-193714100D02*
X265485282Y-193785528D01*
X265485282Y-193785528D02*
X265199568Y-193785528D01*
X265199568Y-193785528D02*
X265056710Y-193714100D01*
X265056710Y-193714100D02*
X264985282Y-193571242D01*
X264985282Y-193571242D02*
X264985282Y-192999814D01*
X264985282Y-192999814D02*
X265056710Y-192856957D01*
X265056710Y-192856957D02*
X265199568Y-192785528D01*
X265199568Y-192785528D02*
X265485282Y-192785528D01*
X265485282Y-192785528D02*
X265628139Y-192856957D01*
X265628139Y-192856957D02*
X265699568Y-192999814D01*
X265699568Y-192999814D02*
X265699568Y-193142671D01*
X265699568Y-193142671D02*
X264985282Y-193285528D01*
X266199567Y-192785528D02*
X266556710Y-193785528D01*
X266556710Y-193785528D02*
X266913853Y-192785528D01*
X267485281Y-193642671D02*
X267556710Y-193714100D01*
X267556710Y-193714100D02*
X267485281Y-193785528D01*
X267485281Y-193785528D02*
X267413853Y-193714100D01*
X267413853Y-193714100D02*
X267485281Y-193642671D01*
X267485281Y-193642671D02*
X267485281Y-193785528D01*
X267485281Y-192856957D02*
X267556710Y-192928385D01*
X267556710Y-192928385D02*
X267485281Y-192999814D01*
X267485281Y-192999814D02*
X267413853Y-192928385D01*
X267413853Y-192928385D02*
X267485281Y-192856957D01*
X267485281Y-192856957D02*
X267485281Y-192999814D01*
D10*
D11*
X178386598Y-193721900D02*
X178600884Y-193793328D01*
X178600884Y-193793328D02*
X178958026Y-193793328D01*
X178958026Y-193793328D02*
X179100884Y-193721900D01*
X179100884Y-193721900D02*
X179172312Y-193650471D01*
X179172312Y-193650471D02*
X179243741Y-193507614D01*
X179243741Y-193507614D02*
X179243741Y-193364757D01*
X179243741Y-193364757D02*
X179172312Y-193221900D01*
X179172312Y-193221900D02*
X179100884Y-193150471D01*
X179100884Y-193150471D02*
X178958026Y-193079042D01*
X178958026Y-193079042D02*
X178672312Y-193007614D01*
X178672312Y-193007614D02*
X178529455Y-192936185D01*
X178529455Y-192936185D02*
X178458026Y-192864757D01*
X178458026Y-192864757D02*
X178386598Y-192721900D01*
X178386598Y-192721900D02*
X178386598Y-192579042D01*
X178386598Y-192579042D02*
X178458026Y-192436185D01*
X178458026Y-192436185D02*
X178529455Y-192364757D01*
X178529455Y-192364757D02*
X178672312Y-192293328D01*
X178672312Y-192293328D02*
X179029455Y-192293328D01*
X179029455Y-192293328D02*
X179243741Y-192364757D01*
X179886597Y-193793328D02*
X179886597Y-192793328D01*
X179886597Y-192293328D02*
X179815169Y-192364757D01*
X179815169Y-192364757D02*
X179886597Y-192436185D01*
X179886597Y-192436185D02*
X179958026Y-192364757D01*
X179958026Y-192364757D02*
X179886597Y-192293328D01*
X179886597Y-192293328D02*
X179886597Y-192436185D01*
X180458026Y-192793328D02*
X181243741Y-192793328D01*
X181243741Y-192793328D02*
X180458026Y-193793328D01*
X180458026Y-193793328D02*
X181243741Y-193793328D01*
X182386598Y-193721900D02*
X182243741Y-193793328D01*
X182243741Y-193793328D02*
X181958027Y-193793328D01*
X181958027Y-193793328D02*
X181815169Y-193721900D01*
X181815169Y-193721900D02*
X181743741Y-193579042D01*
X181743741Y-193579042D02*
X181743741Y-193007614D01*
X181743741Y-193007614D02*
X181815169Y-192864757D01*
X181815169Y-192864757D02*
X181958027Y-192793328D01*
X181958027Y-192793328D02*
X182243741Y-192793328D01*
X182243741Y-192793328D02*
X182386598Y-192864757D01*
X182386598Y-192864757D02*
X182458027Y-193007614D01*
X182458027Y-193007614D02*
X182458027Y-193150471D01*
X182458027Y-193150471D02*
X181743741Y-193293328D01*
X183100883Y-193650471D02*
X183172312Y-193721900D01*
X183172312Y-193721900D02*
X183100883Y-193793328D01*
X183100883Y-193793328D02*
X183029455Y-193721900D01*
X183029455Y-193721900D02*
X183100883Y-193650471D01*
X183100883Y-193650471D02*
X183100883Y-193793328D01*
X183100883Y-192864757D02*
X183172312Y-192936185D01*
X183172312Y-192936185D02*
X183100883Y-193007614D01*
X183100883Y-193007614D02*
X183029455Y-192936185D01*
X183029455Y-192936185D02*
X183100883Y-192864757D01*
X183100883Y-192864757D02*
X183100883Y-193007614D01*
X184886598Y-193364757D02*
X185600884Y-193364757D01*
X184743741Y-193793328D02*
X185243741Y-192293328D01*
X185243741Y-192293328D02*
X185743741Y-193793328D01*
X186886598Y-192793328D02*
X186886598Y-193793328D01*
X186529455Y-192221900D02*
X186172312Y-193293328D01*
X186172312Y-193293328D02*
X187100883Y-193293328D01*
D10*
D11*
X263458026Y-196593328D02*
X263458026Y-195093328D01*
X264815170Y-196593328D02*
X264815170Y-195093328D01*
X264815170Y-196521900D02*
X264672312Y-196593328D01*
X264672312Y-196593328D02*
X264386598Y-196593328D01*
X264386598Y-196593328D02*
X264243741Y-196521900D01*
X264243741Y-196521900D02*
X264172312Y-196450471D01*
X264172312Y-196450471D02*
X264100884Y-196307614D01*
X264100884Y-196307614D02*
X264100884Y-195879042D01*
X264100884Y-195879042D02*
X264172312Y-195736185D01*
X264172312Y-195736185D02*
X264243741Y-195664757D01*
X264243741Y-195664757D02*
X264386598Y-195593328D01*
X264386598Y-195593328D02*
X264672312Y-195593328D01*
X264672312Y-195593328D02*
X264815170Y-195664757D01*
X265529455Y-196450471D02*
X265600884Y-196521900D01*
X265600884Y-196521900D02*
X265529455Y-196593328D01*
X265529455Y-196593328D02*
X265458027Y-196521900D01*
X265458027Y-196521900D02*
X265529455Y-196450471D01*
X265529455Y-196450471D02*
X265529455Y-196593328D01*
X265529455Y-195664757D02*
X265600884Y-195736185D01*
X265600884Y-195736185D02*
X265529455Y-195807614D01*
X265529455Y-195807614D02*
X265458027Y-195736185D01*
X265458027Y-195736185D02*
X265529455Y-195664757D01*
X265529455Y-195664757D02*
X265529455Y-195807614D01*
X268172313Y-196593328D02*
X267315170Y-196593328D01*
X267743741Y-196593328D02*
X267743741Y-195093328D01*
X267743741Y-195093328D02*
X267600884Y-195307614D01*
X267600884Y-195307614D02*
X267458027Y-195450471D01*
X267458027Y-195450471D02*
X267315170Y-195521900D01*
X269886598Y-195021900D02*
X268600884Y-196950471D01*
X270458027Y-196593328D02*
X270743741Y-196593328D01*
X270743741Y-196593328D02*
X270886598Y-196521900D01*
X270886598Y-196521900D02*
X270958027Y-196450471D01*
X270958027Y-196450471D02*
X271100884Y-196236185D01*
X271100884Y-196236185D02*
X271172313Y-195950471D01*
X271172313Y-195950471D02*
X271172313Y-195379042D01*
X271172313Y-195379042D02*
X271100884Y-195236185D01*
X271100884Y-195236185D02*
X271029456Y-195164757D01*
X271029456Y-195164757D02*
X270886598Y-195093328D01*
X270886598Y-195093328D02*
X270600884Y-195093328D01*
X270600884Y-195093328D02*
X270458027Y-195164757D01*
X270458027Y-195164757D02*
X270386598Y-195236185D01*
X270386598Y-195236185D02*
X270315170Y-195379042D01*
X270315170Y-195379042D02*
X270315170Y-195736185D01*
X270315170Y-195736185D02*
X270386598Y-195879042D01*
X270386598Y-195879042D02*
X270458027Y-195950471D01*
X270458027Y-195950471D02*
X270600884Y-196021900D01*
X270600884Y-196021900D02*
X270886598Y-196021900D01*
X270886598Y-196021900D02*
X271029456Y-195950471D01*
X271029456Y-195950471D02*
X271100884Y-195879042D01*
X271100884Y-195879042D02*
X271172313Y-195736185D01*
D10*
D11*
X177002200Y-187507200D02*
X285002200Y-187507200D01*
D10*
D13*
X178693928Y-188211638D02*
X179836785Y-188211638D01*
X179015357Y-190211638D02*
X179265357Y-188211638D01*
X180253452Y-190211638D02*
X180420119Y-188878304D01*
X180503452Y-188211638D02*
X180396309Y-188306876D01*
X180396309Y-188306876D02*
X180479643Y-188402114D01*
X180479643Y-188402114D02*
X180586786Y-188306876D01*
X180586786Y-188306876D02*
X180503452Y-188211638D01*
X180503452Y-188211638D02*
X180479643Y-188402114D01*
X181086786Y-188878304D02*
X181848690Y-188878304D01*
X181455833Y-188211638D02*
X181241548Y-189925923D01*
X181241548Y-189925923D02*
X181312976Y-190116400D01*
X181312976Y-190116400D02*
X181491548Y-190211638D01*
X181491548Y-190211638D02*
X181682024Y-190211638D01*
X182634405Y-190211638D02*
X182455833Y-190116400D01*
X182455833Y-190116400D02*
X182384405Y-189925923D01*
X182384405Y-189925923D02*
X182598690Y-188211638D01*
X184170119Y-190116400D02*
X183967738Y-190211638D01*
X183967738Y-190211638D02*
X183586785Y-190211638D01*
X183586785Y-190211638D02*
X183408214Y-190116400D01*
X183408214Y-190116400D02*
X183336785Y-189925923D01*
X183336785Y-189925923D02*
X183432024Y-189164019D01*
X183432024Y-189164019D02*
X183551071Y-188973542D01*
X183551071Y-188973542D02*
X183753452Y-188878304D01*
X183753452Y-188878304D02*
X184134404Y-188878304D01*
X184134404Y-188878304D02*
X184312976Y-188973542D01*
X184312976Y-188973542D02*
X184384404Y-189164019D01*
X184384404Y-189164019D02*
X184360595Y-189354495D01*
X184360595Y-189354495D02*
X183384404Y-189544971D01*
X185134405Y-190021161D02*
X185217738Y-190116400D01*
X185217738Y-190116400D02*
X185110595Y-190211638D01*
X185110595Y-190211638D02*
X185027262Y-190116400D01*
X185027262Y-190116400D02*
X185134405Y-190021161D01*
X185134405Y-190021161D02*
X185110595Y-190211638D01*
X185265357Y-188973542D02*
X185348690Y-189068780D01*
X185348690Y-189068780D02*
X185241548Y-189164019D01*
X185241548Y-189164019D02*
X185158214Y-189068780D01*
X185158214Y-189068780D02*
X185265357Y-188973542D01*
X185265357Y-188973542D02*
X185241548Y-189164019D01*
D10*
D11*
X178958026Y-185607614D02*
X178458026Y-185607614D01*
X178458026Y-186393328D02*
X178458026Y-184893328D01*
X178458026Y-184893328D02*
X179172312Y-184893328D01*
X179743740Y-186393328D02*
X179743740Y-185393328D01*
X179743740Y-184893328D02*
X179672312Y-184964757D01*
X179672312Y-184964757D02*
X179743740Y-185036185D01*
X179743740Y-185036185D02*
X179815169Y-184964757D01*
X179815169Y-184964757D02*
X179743740Y-184893328D01*
X179743740Y-184893328D02*
X179743740Y-185036185D01*
X180672312Y-186393328D02*
X180529455Y-186321900D01*
X180529455Y-186321900D02*
X180458026Y-186179042D01*
X180458026Y-186179042D02*
X180458026Y-184893328D01*
X181815169Y-186321900D02*
X181672312Y-186393328D01*
X181672312Y-186393328D02*
X181386598Y-186393328D01*
X181386598Y-186393328D02*
X181243740Y-186321900D01*
X181243740Y-186321900D02*
X181172312Y-186179042D01*
X181172312Y-186179042D02*
X181172312Y-185607614D01*
X181172312Y-185607614D02*
X181243740Y-185464757D01*
X181243740Y-185464757D02*
X181386598Y-185393328D01*
X181386598Y-185393328D02*
X181672312Y-185393328D01*
X181672312Y-185393328D02*
X181815169Y-185464757D01*
X181815169Y-185464757D02*
X181886598Y-185607614D01*
X181886598Y-185607614D02*
X181886598Y-185750471D01*
X181886598Y-185750471D02*
X181172312Y-185893328D01*
X182529454Y-186250471D02*
X182600883Y-186321900D01*
X182600883Y-186321900D02*
X182529454Y-186393328D01*
X182529454Y-186393328D02*
X182458026Y-186321900D01*
X182458026Y-186321900D02*
X182529454Y-186250471D01*
X182529454Y-186250471D02*
X182529454Y-186393328D01*
X182529454Y-185464757D02*
X182600883Y-185536185D01*
X182600883Y-185536185D02*
X182529454Y-185607614D01*
X182529454Y-185607614D02*
X182458026Y-185536185D01*
X182458026Y-185536185D02*
X182529454Y-185464757D01*
X182529454Y-185464757D02*
X182529454Y-185607614D01*
X184315169Y-186321900D02*
X184529455Y-186393328D01*
X184529455Y-186393328D02*
X184886597Y-186393328D01*
X184886597Y-186393328D02*
X185029455Y-186321900D01*
X185029455Y-186321900D02*
X185100883Y-186250471D01*
X185100883Y-186250471D02*
X185172312Y-186107614D01*
X185172312Y-186107614D02*
X185172312Y-185964757D01*
X185172312Y-185964757D02*
X185100883Y-185821900D01*
X185100883Y-185821900D02*
X185029455Y-185750471D01*
X185029455Y-185750471D02*
X184886597Y-185679042D01*
X184886597Y-185679042D02*
X184600883Y-185607614D01*
X184600883Y-185607614D02*
X184458026Y-185536185D01*
X184458026Y-185536185D02*
X184386597Y-185464757D01*
X184386597Y-185464757D02*
X184315169Y-185321900D01*
X184315169Y-185321900D02*
X184315169Y-185179042D01*
X184315169Y-185179042D02*
X184386597Y-185036185D01*
X184386597Y-185036185D02*
X184458026Y-184964757D01*
X184458026Y-184964757D02*
X184600883Y-184893328D01*
X184600883Y-184893328D02*
X184958026Y-184893328D01*
X184958026Y-184893328D02*
X185172312Y-184964757D01*
X185815168Y-185393328D02*
X185815168Y-186393328D01*
X185815168Y-185536185D02*
X185886597Y-185464757D01*
X185886597Y-185464757D02*
X186029454Y-185393328D01*
X186029454Y-185393328D02*
X186243740Y-185393328D01*
X186243740Y-185393328D02*
X186386597Y-185464757D01*
X186386597Y-185464757D02*
X186458026Y-185607614D01*
X186458026Y-185607614D02*
X186458026Y-186393328D01*
X187386597Y-186393328D02*
X187243740Y-186321900D01*
X187243740Y-186321900D02*
X187172311Y-186250471D01*
X187172311Y-186250471D02*
X187100883Y-186107614D01*
X187100883Y-186107614D02*
X187100883Y-185679042D01*
X187100883Y-185679042D02*
X187172311Y-185536185D01*
X187172311Y-185536185D02*
X187243740Y-185464757D01*
X187243740Y-185464757D02*
X187386597Y-185393328D01*
X187386597Y-185393328D02*
X187600883Y-185393328D01*
X187600883Y-185393328D02*
X187743740Y-185464757D01*
X187743740Y-185464757D02*
X187815169Y-185536185D01*
X187815169Y-185536185D02*
X187886597Y-185679042D01*
X187886597Y-185679042D02*
X187886597Y-186107614D01*
X187886597Y-186107614D02*
X187815169Y-186250471D01*
X187815169Y-186250471D02*
X187743740Y-186321900D01*
X187743740Y-186321900D02*
X187600883Y-186393328D01*
X187600883Y-186393328D02*
X187386597Y-186393328D01*
X188529454Y-186393328D02*
X188529454Y-185393328D01*
X188529454Y-185679042D02*
X188600883Y-185536185D01*
X188600883Y-185536185D02*
X188672312Y-185464757D01*
X188672312Y-185464757D02*
X188815169Y-185393328D01*
X188815169Y-185393328D02*
X188958026Y-185393328D01*
X190029454Y-186321900D02*
X189886597Y-186393328D01*
X189886597Y-186393328D02*
X189600883Y-186393328D01*
X189600883Y-186393328D02*
X189458025Y-186321900D01*
X189458025Y-186321900D02*
X189386597Y-186179042D01*
X189386597Y-186179042D02*
X189386597Y-185607614D01*
X189386597Y-185607614D02*
X189458025Y-185464757D01*
X189458025Y-185464757D02*
X189600883Y-185393328D01*
X189600883Y-185393328D02*
X189886597Y-185393328D01*
X189886597Y-185393328D02*
X190029454Y-185464757D01*
X190029454Y-185464757D02*
X190100883Y-185607614D01*
X190100883Y-185607614D02*
X190100883Y-185750471D01*
X190100883Y-185750471D02*
X189386597Y-185893328D01*
X190672311Y-186321900D02*
X190886597Y-186393328D01*
X190886597Y-186393328D02*
X191243739Y-186393328D01*
X191243739Y-186393328D02*
X191386597Y-186321900D01*
X191386597Y-186321900D02*
X191458025Y-186250471D01*
X191458025Y-186250471D02*
X191529454Y-186107614D01*
X191529454Y-186107614D02*
X191529454Y-185964757D01*
X191529454Y-185964757D02*
X191458025Y-185821900D01*
X191458025Y-185821900D02*
X191386597Y-185750471D01*
X191386597Y-185750471D02*
X191243739Y-185679042D01*
X191243739Y-185679042D02*
X190958025Y-185607614D01*
X190958025Y-185607614D02*
X190815168Y-185536185D01*
X190815168Y-185536185D02*
X190743739Y-185464757D01*
X190743739Y-185464757D02*
X190672311Y-185321900D01*
X190672311Y-185321900D02*
X190672311Y-185179042D01*
X190672311Y-185179042D02*
X190743739Y-185036185D01*
X190743739Y-185036185D02*
X190815168Y-184964757D01*
X190815168Y-184964757D02*
X190958025Y-184893328D01*
X190958025Y-184893328D02*
X191315168Y-184893328D01*
X191315168Y-184893328D02*
X191529454Y-184964757D01*
X192743739Y-186321900D02*
X192600882Y-186393328D01*
X192600882Y-186393328D02*
X192315168Y-186393328D01*
X192315168Y-186393328D02*
X192172310Y-186321900D01*
X192172310Y-186321900D02*
X192100882Y-186179042D01*
X192100882Y-186179042D02*
X192100882Y-185607614D01*
X192100882Y-185607614D02*
X192172310Y-185464757D01*
X192172310Y-185464757D02*
X192315168Y-185393328D01*
X192315168Y-185393328D02*
X192600882Y-185393328D01*
X192600882Y-185393328D02*
X192743739Y-185464757D01*
X192743739Y-185464757D02*
X192815168Y-185607614D01*
X192815168Y-185607614D02*
X192815168Y-185750471D01*
X192815168Y-185750471D02*
X192100882Y-185893328D01*
X193458024Y-185393328D02*
X193458024Y-186393328D01*
X193458024Y-185536185D02*
X193529453Y-185464757D01*
X193529453Y-185464757D02*
X193672310Y-185393328D01*
X193672310Y-185393328D02*
X193886596Y-185393328D01*
X193886596Y-185393328D02*
X194029453Y-185464757D01*
X194029453Y-185464757D02*
X194100882Y-185607614D01*
X194100882Y-185607614D02*
X194100882Y-186393328D01*
X194743739Y-186321900D02*
X194886596Y-186393328D01*
X194886596Y-186393328D02*
X195172310Y-186393328D01*
X195172310Y-186393328D02*
X195315167Y-186321900D01*
X195315167Y-186321900D02*
X195386596Y-186179042D01*
X195386596Y-186179042D02*
X195386596Y-186107614D01*
X195386596Y-186107614D02*
X195315167Y-185964757D01*
X195315167Y-185964757D02*
X195172310Y-185893328D01*
X195172310Y-185893328D02*
X194958025Y-185893328D01*
X194958025Y-185893328D02*
X194815167Y-185821900D01*
X194815167Y-185821900D02*
X194743739Y-185679042D01*
X194743739Y-185679042D02*
X194743739Y-185607614D01*
X194743739Y-185607614D02*
X194815167Y-185464757D01*
X194815167Y-185464757D02*
X194958025Y-185393328D01*
X194958025Y-185393328D02*
X195172310Y-185393328D01*
X195172310Y-185393328D02*
X195315167Y-185464757D01*
X196600882Y-186321900D02*
X196458025Y-186393328D01*
X196458025Y-186393328D02*
X196172311Y-186393328D01*
X196172311Y-186393328D02*
X196029453Y-186321900D01*
X196029453Y-186321900D02*
X195958025Y-186179042D01*
X195958025Y-186179042D02*
X195958025Y-185607614D01*
X195958025Y-185607614D02*
X196029453Y-185464757D01*
X196029453Y-185464757D02*
X196172311Y-185393328D01*
X196172311Y-185393328D02*
X196458025Y-185393328D01*
X196458025Y-185393328D02*
X196600882Y-185464757D01*
X196600882Y-185464757D02*
X196672311Y-185607614D01*
X196672311Y-185607614D02*
X196672311Y-185750471D01*
X196672311Y-185750471D02*
X195958025Y-185893328D01*
X196958025Y-186536185D02*
X198100882Y-186536185D01*
X198458024Y-186393328D02*
X198458024Y-184893328D01*
X198458024Y-184893328D02*
X198815167Y-184893328D01*
X198815167Y-184893328D02*
X199029453Y-184964757D01*
X199029453Y-184964757D02*
X199172310Y-185107614D01*
X199172310Y-185107614D02*
X199243739Y-185250471D01*
X199243739Y-185250471D02*
X199315167Y-185536185D01*
X199315167Y-185536185D02*
X199315167Y-185750471D01*
X199315167Y-185750471D02*
X199243739Y-186036185D01*
X199243739Y-186036185D02*
X199172310Y-186179042D01*
X199172310Y-186179042D02*
X199029453Y-186321900D01*
X199029453Y-186321900D02*
X198815167Y-186393328D01*
X198815167Y-186393328D02*
X198458024Y-186393328D01*
X199958024Y-186393328D02*
X199958024Y-185393328D01*
X199958024Y-184893328D02*
X199886596Y-184964757D01*
X199886596Y-184964757D02*
X199958024Y-185036185D01*
X199958024Y-185036185D02*
X200029453Y-184964757D01*
X200029453Y-184964757D02*
X199958024Y-184893328D01*
X199958024Y-184893328D02*
X199958024Y-185036185D01*
X200600882Y-186321900D02*
X200743739Y-186393328D01*
X200743739Y-186393328D02*
X201029453Y-186393328D01*
X201029453Y-186393328D02*
X201172310Y-186321900D01*
X201172310Y-186321900D02*
X201243739Y-186179042D01*
X201243739Y-186179042D02*
X201243739Y-186107614D01*
X201243739Y-186107614D02*
X201172310Y-185964757D01*
X201172310Y-185964757D02*
X201029453Y-185893328D01*
X201029453Y-185893328D02*
X200815168Y-185893328D01*
X200815168Y-185893328D02*
X200672310Y-185821900D01*
X200672310Y-185821900D02*
X200600882Y-185679042D01*
X200600882Y-185679042D02*
X200600882Y-185607614D01*
X200600882Y-185607614D02*
X200672310Y-185464757D01*
X200672310Y-185464757D02*
X200815168Y-185393328D01*
X200815168Y-185393328D02*
X201029453Y-185393328D01*
X201029453Y-185393328D02*
X201172310Y-185464757D01*
X201886596Y-185393328D02*
X201886596Y-186893328D01*
X201886596Y-185464757D02*
X202029454Y-185393328D01*
X202029454Y-185393328D02*
X202315168Y-185393328D01*
X202315168Y-185393328D02*
X202458025Y-185464757D01*
X202458025Y-185464757D02*
X202529454Y-185536185D01*
X202529454Y-185536185D02*
X202600882Y-185679042D01*
X202600882Y-185679042D02*
X202600882Y-186107614D01*
X202600882Y-186107614D02*
X202529454Y-186250471D01*
X202529454Y-186250471D02*
X202458025Y-186321900D01*
X202458025Y-186321900D02*
X202315168Y-186393328D01*
X202315168Y-186393328D02*
X202029454Y-186393328D01*
X202029454Y-186393328D02*
X201886596Y-186321900D01*
X203458025Y-186393328D02*
X203315168Y-186321900D01*
X203315168Y-186321900D02*
X203243739Y-186179042D01*
X203243739Y-186179042D02*
X203243739Y-184893328D01*
X204672311Y-186393328D02*
X204672311Y-185607614D01*
X204672311Y-185607614D02*
X204600882Y-185464757D01*
X204600882Y-185464757D02*
X204458025Y-185393328D01*
X204458025Y-185393328D02*
X204172311Y-185393328D01*
X204172311Y-185393328D02*
X204029453Y-185464757D01*
X204672311Y-186321900D02*
X204529453Y-186393328D01*
X204529453Y-186393328D02*
X204172311Y-186393328D01*
X204172311Y-186393328D02*
X204029453Y-186321900D01*
X204029453Y-186321900D02*
X203958025Y-186179042D01*
X203958025Y-186179042D02*
X203958025Y-186036185D01*
X203958025Y-186036185D02*
X204029453Y-185893328D01*
X204029453Y-185893328D02*
X204172311Y-185821900D01*
X204172311Y-185821900D02*
X204529453Y-185821900D01*
X204529453Y-185821900D02*
X204672311Y-185750471D01*
X205243739Y-185393328D02*
X205600882Y-186393328D01*
X205958025Y-185393328D02*
X205600882Y-186393328D01*
X205600882Y-186393328D02*
X205458025Y-186750471D01*
X205458025Y-186750471D02*
X205386596Y-186821900D01*
X205386596Y-186821900D02*
X205243739Y-186893328D01*
X206172311Y-186536185D02*
X207315168Y-186536185D01*
X207672310Y-186393328D02*
X207672310Y-184893328D01*
X207672310Y-184893328D02*
X208243739Y-184893328D01*
X208243739Y-184893328D02*
X208386596Y-184964757D01*
X208386596Y-184964757D02*
X208458025Y-185036185D01*
X208458025Y-185036185D02*
X208529453Y-185179042D01*
X208529453Y-185179042D02*
X208529453Y-185393328D01*
X208529453Y-185393328D02*
X208458025Y-185536185D01*
X208458025Y-185536185D02*
X208386596Y-185607614D01*
X208386596Y-185607614D02*
X208243739Y-185679042D01*
X208243739Y-185679042D02*
X207672310Y-185679042D01*
X210029453Y-186250471D02*
X209958025Y-186321900D01*
X209958025Y-186321900D02*
X209743739Y-186393328D01*
X209743739Y-186393328D02*
X209600882Y-186393328D01*
X209600882Y-186393328D02*
X209386596Y-186321900D01*
X209386596Y-186321900D02*
X209243739Y-186179042D01*
X209243739Y-186179042D02*
X209172310Y-186036185D01*
X209172310Y-186036185D02*
X209100882Y-185750471D01*
X209100882Y-185750471D02*
X209100882Y-185536185D01*
X209100882Y-185536185D02*
X209172310Y-185250471D01*
X209172310Y-185250471D02*
X209243739Y-185107614D01*
X209243739Y-185107614D02*
X209386596Y-184964757D01*
X209386596Y-184964757D02*
X209600882Y-184893328D01*
X209600882Y-184893328D02*
X209743739Y-184893328D01*
X209743739Y-184893328D02*
X209958025Y-184964757D01*
X209958025Y-184964757D02*
X210029453Y-185036185D01*
X211172310Y-185607614D02*
X211386596Y-185679042D01*
X211386596Y-185679042D02*
X211458025Y-185750471D01*
X211458025Y-185750471D02*
X211529453Y-185893328D01*
X211529453Y-185893328D02*
X211529453Y-186107614D01*
X211529453Y-186107614D02*
X211458025Y-186250471D01*
X211458025Y-186250471D02*
X211386596Y-186321900D01*
X211386596Y-186321900D02*
X211243739Y-186393328D01*
X211243739Y-186393328D02*
X210672310Y-186393328D01*
X210672310Y-186393328D02*
X210672310Y-184893328D01*
X210672310Y-184893328D02*
X211172310Y-184893328D01*
X211172310Y-184893328D02*
X211315168Y-184964757D01*
X211315168Y-184964757D02*
X211386596Y-185036185D01*
X211386596Y-185036185D02*
X211458025Y-185179042D01*
X211458025Y-185179042D02*
X211458025Y-185321900D01*
X211458025Y-185321900D02*
X211386596Y-185464757D01*
X211386596Y-185464757D02*
X211315168Y-185536185D01*
X211315168Y-185536185D02*
X211172310Y-185607614D01*
X211172310Y-185607614D02*
X210672310Y-185607614D01*
X211815168Y-186536185D02*
X212958025Y-186536185D01*
X213172310Y-185393328D02*
X213529453Y-186393328D01*
X213529453Y-186393328D02*
X213886596Y-185393328D01*
X215243739Y-186393328D02*
X214386596Y-186393328D01*
X214815167Y-186393328D02*
X214815167Y-184893328D01*
X214815167Y-184893328D02*
X214672310Y-185107614D01*
X214672310Y-185107614D02*
X214529453Y-185250471D01*
X214529453Y-185250471D02*
X214386596Y-185321900D01*
X215886595Y-186250471D02*
X215958024Y-186321900D01*
X215958024Y-186321900D02*
X215886595Y-186393328D01*
X215886595Y-186393328D02*
X215815167Y-186321900D01*
X215815167Y-186321900D02*
X215886595Y-186250471D01*
X215886595Y-186250471D02*
X215886595Y-186393328D01*
X216600881Y-186393328D02*
X216600881Y-184893328D01*
X216743739Y-185821900D02*
X217172310Y-186393328D01*
X217172310Y-185393328D02*
X216600881Y-185964757D01*
X217815167Y-186393328D02*
X217815167Y-185393328D01*
X217815167Y-184893328D02*
X217743739Y-184964757D01*
X217743739Y-184964757D02*
X217815167Y-185036185D01*
X217815167Y-185036185D02*
X217886596Y-184964757D01*
X217886596Y-184964757D02*
X217815167Y-184893328D01*
X217815167Y-184893328D02*
X217815167Y-185036185D01*
X219172311Y-186321900D02*
X219029453Y-186393328D01*
X219029453Y-186393328D02*
X218743739Y-186393328D01*
X218743739Y-186393328D02*
X218600882Y-186321900D01*
X218600882Y-186321900D02*
X218529453Y-186250471D01*
X218529453Y-186250471D02*
X218458025Y-186107614D01*
X218458025Y-186107614D02*
X218458025Y-185679042D01*
X218458025Y-185679042D02*
X218529453Y-185536185D01*
X218529453Y-185536185D02*
X218600882Y-185464757D01*
X218600882Y-185464757D02*
X218743739Y-185393328D01*
X218743739Y-185393328D02*
X219029453Y-185393328D01*
X219029453Y-185393328D02*
X219172311Y-185464757D01*
X220458025Y-186393328D02*
X220458025Y-185607614D01*
X220458025Y-185607614D02*
X220386596Y-185464757D01*
X220386596Y-185464757D02*
X220243739Y-185393328D01*
X220243739Y-185393328D02*
X219958025Y-185393328D01*
X219958025Y-185393328D02*
X219815167Y-185464757D01*
X220458025Y-186321900D02*
X220315167Y-186393328D01*
X220315167Y-186393328D02*
X219958025Y-186393328D01*
X219958025Y-186393328D02*
X219815167Y-186321900D01*
X219815167Y-186321900D02*
X219743739Y-186179042D01*
X219743739Y-186179042D02*
X219743739Y-186036185D01*
X219743739Y-186036185D02*
X219815167Y-185893328D01*
X219815167Y-185893328D02*
X219958025Y-185821900D01*
X219958025Y-185821900D02*
X220315167Y-185821900D01*
X220315167Y-185821900D02*
X220458025Y-185750471D01*
X221815168Y-186393328D02*
X221815168Y-184893328D01*
X221815168Y-186321900D02*
X221672310Y-186393328D01*
X221672310Y-186393328D02*
X221386596Y-186393328D01*
X221386596Y-186393328D02*
X221243739Y-186321900D01*
X221243739Y-186321900D02*
X221172310Y-186250471D01*
X221172310Y-186250471D02*
X221100882Y-186107614D01*
X221100882Y-186107614D02*
X221100882Y-185679042D01*
X221100882Y-185679042D02*
X221172310Y-185536185D01*
X221172310Y-185536185D02*
X221243739Y-185464757D01*
X221243739Y-185464757D02*
X221386596Y-185393328D01*
X221386596Y-185393328D02*
X221672310Y-185393328D01*
X221672310Y-185393328D02*
X221815168Y-185464757D01*
X222172311Y-186536185D02*
X223315168Y-186536185D01*
X223672310Y-185393328D02*
X223672310Y-186893328D01*
X223672310Y-185464757D02*
X223815168Y-185393328D01*
X223815168Y-185393328D02*
X224100882Y-185393328D01*
X224100882Y-185393328D02*
X224243739Y-185464757D01*
X224243739Y-185464757D02*
X224315168Y-185536185D01*
X224315168Y-185536185D02*
X224386596Y-185679042D01*
X224386596Y-185679042D02*
X224386596Y-186107614D01*
X224386596Y-186107614D02*
X224315168Y-186250471D01*
X224315168Y-186250471D02*
X224243739Y-186321900D01*
X224243739Y-186321900D02*
X224100882Y-186393328D01*
X224100882Y-186393328D02*
X223815168Y-186393328D01*
X223815168Y-186393328D02*
X223672310Y-186321900D01*
X225672311Y-186321900D02*
X225529453Y-186393328D01*
X225529453Y-186393328D02*
X225243739Y-186393328D01*
X225243739Y-186393328D02*
X225100882Y-186321900D01*
X225100882Y-186321900D02*
X225029453Y-186250471D01*
X225029453Y-186250471D02*
X224958025Y-186107614D01*
X224958025Y-186107614D02*
X224958025Y-185679042D01*
X224958025Y-185679042D02*
X225029453Y-185536185D01*
X225029453Y-185536185D02*
X225100882Y-185464757D01*
X225100882Y-185464757D02*
X225243739Y-185393328D01*
X225243739Y-185393328D02*
X225529453Y-185393328D01*
X225529453Y-185393328D02*
X225672311Y-185464757D01*
X226315167Y-186393328D02*
X226315167Y-184893328D01*
X226315167Y-185464757D02*
X226458025Y-185393328D01*
X226458025Y-185393328D02*
X226743739Y-185393328D01*
X226743739Y-185393328D02*
X226886596Y-185464757D01*
X226886596Y-185464757D02*
X226958025Y-185536185D01*
X226958025Y-185536185D02*
X227029453Y-185679042D01*
X227029453Y-185679042D02*
X227029453Y-186107614D01*
X227029453Y-186107614D02*
X226958025Y-186250471D01*
X226958025Y-186250471D02*
X226886596Y-186321900D01*
X226886596Y-186321900D02*
X226743739Y-186393328D01*
X226743739Y-186393328D02*
X226458025Y-186393328D01*
X226458025Y-186393328D02*
X226315167Y-186321900D01*
D10*
D11*
X177002200Y-181507200D02*
X285002200Y-181507200D01*
D10*
D11*
X178386598Y-183621900D02*
X178600884Y-183693328D01*
X178600884Y-183693328D02*
X178958026Y-183693328D01*
X178958026Y-183693328D02*
X179100884Y-183621900D01*
X179100884Y-183621900D02*
X179172312Y-183550471D01*
X179172312Y-183550471D02*
X179243741Y-183407614D01*
X179243741Y-183407614D02*
X179243741Y-183264757D01*
X179243741Y-183264757D02*
X179172312Y-183121900D01*
X179172312Y-183121900D02*
X179100884Y-183050471D01*
X179100884Y-183050471D02*
X178958026Y-182979042D01*
X178958026Y-182979042D02*
X178672312Y-182907614D01*
X178672312Y-182907614D02*
X178529455Y-182836185D01*
X178529455Y-182836185D02*
X178458026Y-182764757D01*
X178458026Y-182764757D02*
X178386598Y-182621900D01*
X178386598Y-182621900D02*
X178386598Y-182479042D01*
X178386598Y-182479042D02*
X178458026Y-182336185D01*
X178458026Y-182336185D02*
X178529455Y-182264757D01*
X178529455Y-182264757D02*
X178672312Y-182193328D01*
X178672312Y-182193328D02*
X179029455Y-182193328D01*
X179029455Y-182193328D02*
X179243741Y-182264757D01*
X179886597Y-183693328D02*
X179886597Y-182193328D01*
X180529455Y-183693328D02*
X180529455Y-182907614D01*
X180529455Y-182907614D02*
X180458026Y-182764757D01*
X180458026Y-182764757D02*
X180315169Y-182693328D01*
X180315169Y-182693328D02*
X180100883Y-182693328D01*
X180100883Y-182693328D02*
X179958026Y-182764757D01*
X179958026Y-182764757D02*
X179886597Y-182836185D01*
X181815169Y-183621900D02*
X181672312Y-183693328D01*
X181672312Y-183693328D02*
X181386598Y-183693328D01*
X181386598Y-183693328D02*
X181243740Y-183621900D01*
X181243740Y-183621900D02*
X181172312Y-183479042D01*
X181172312Y-183479042D02*
X181172312Y-182907614D01*
X181172312Y-182907614D02*
X181243740Y-182764757D01*
X181243740Y-182764757D02*
X181386598Y-182693328D01*
X181386598Y-182693328D02*
X181672312Y-182693328D01*
X181672312Y-182693328D02*
X181815169Y-182764757D01*
X181815169Y-182764757D02*
X181886598Y-182907614D01*
X181886598Y-182907614D02*
X181886598Y-183050471D01*
X181886598Y-183050471D02*
X181172312Y-183193328D01*
X183100883Y-183621900D02*
X182958026Y-183693328D01*
X182958026Y-183693328D02*
X182672312Y-183693328D01*
X182672312Y-183693328D02*
X182529454Y-183621900D01*
X182529454Y-183621900D02*
X182458026Y-183479042D01*
X182458026Y-183479042D02*
X182458026Y-182907614D01*
X182458026Y-182907614D02*
X182529454Y-182764757D01*
X182529454Y-182764757D02*
X182672312Y-182693328D01*
X182672312Y-182693328D02*
X182958026Y-182693328D01*
X182958026Y-182693328D02*
X183100883Y-182764757D01*
X183100883Y-182764757D02*
X183172312Y-182907614D01*
X183172312Y-182907614D02*
X183172312Y-183050471D01*
X183172312Y-183050471D02*
X182458026Y-183193328D01*
X183600883Y-182693328D02*
X184172311Y-182693328D01*
X183815168Y-182193328D02*
X183815168Y-183479042D01*
X183815168Y-183479042D02*
X183886597Y-183621900D01*
X183886597Y-183621900D02*
X184029454Y-183693328D01*
X184029454Y-183693328D02*
X184172311Y-183693328D01*
X184672311Y-183550471D02*
X184743740Y-183621900D01*
X184743740Y-183621900D02*
X184672311Y-183693328D01*
X184672311Y-183693328D02*
X184600883Y-183621900D01*
X184600883Y-183621900D02*
X184672311Y-183550471D01*
X184672311Y-183550471D02*
X184672311Y-183693328D01*
X184672311Y-182764757D02*
X184743740Y-182836185D01*
X184743740Y-182836185D02*
X184672311Y-182907614D01*
X184672311Y-182907614D02*
X184600883Y-182836185D01*
X184600883Y-182836185D02*
X184672311Y-182764757D01*
X184672311Y-182764757D02*
X184672311Y-182907614D01*
D10*
D11*
X197002200Y-191507200D02*
X197002200Y-194507200D01*
D10*
D11*
X261002200Y-191507200D02*
X261002200Y-198007200D01*
D14*
%TO.P,D9,1,K*%
%TO.N,/+BAT*%
X133400000Y-77990000D03*
D15*
%TO.P,D9,2,A*%
%TO.N,/M4*%
X133400000Y-70370000D03*
%TD*%
D14*
%TO.P,D8,1,K*%
%TO.N,/+BAT*%
X129850000Y-77990000D03*
D15*
%TO.P,D8,2,A*%
%TO.N,/M3*%
X129850000Y-70370000D03*
%TD*%
D14*
%TO.P,D7,1,K*%
%TO.N,/+BAT*%
X126300000Y-77990000D03*
D15*
%TO.P,D7,2,A*%
%TO.N,/M2*%
X126300000Y-70370000D03*
%TD*%
D14*
%TO.P,D6,1,K*%
%TO.N,/+BAT*%
X122750000Y-77990000D03*
D15*
%TO.P,D6,2,A*%
%TO.N,/M1*%
X122750000Y-70370000D03*
%TD*%
D16*
%TO.P,SW2,*%
%TO.N,*%
X85200000Y-94800000D03*
X85200000Y-86600000D03*
D17*
%TO.P,SW2,1,A*%
%TO.N,/+BAT*%
X85200000Y-92700000D03*
D18*
%TO.P,SW2,2,B*%
%TO.N,unconnected-(SW2-B-Pad2)*%
X85200000Y-90700000D03*
%TO.P,SW2,3,C*%
%TO.N,/+BAT*%
X85200000Y-88700000D03*
%TD*%
D19*
%TO.P,D5,1,K*%
%TO.N,/M4*%
X122850000Y-57190000D03*
D15*
%TO.P,D5,2,A*%
%TO.N,GND*%
X122850000Y-64810000D03*
%TD*%
D19*
%TO.P,D4,1,K*%
%TO.N,/M1*%
X126400000Y-57190000D03*
D15*
%TO.P,D4,2,A*%
%TO.N,GND*%
X126400000Y-64810000D03*
%TD*%
D19*
%TO.P,D3,1,K*%
%TO.N,/M3*%
X129950000Y-57190000D03*
D15*
%TO.P,D3,2,A*%
%TO.N,GND*%
X129950000Y-64810000D03*
%TD*%
D19*
%TO.P,D2,1,K*%
%TO.N,/M2*%
X133500000Y-57190000D03*
D15*
%TO.P,D2,2,A*%
%TO.N,GND*%
X133500000Y-64810000D03*
%TD*%
D20*
%TO.P,C2,1*%
%TO.N,+3.3V*%
X143500000Y-85900000D03*
%TO.P,C2,2*%
%TO.N,GND*%
X143500000Y-84000000D03*
%TD*%
D21*
%TO.P,R2,1*%
%TO.N,+3.3V*%
X101450000Y-92587500D03*
%TO.P,R2,2*%
%TO.N,Net-(U1-GPIO8_A9_D9_CIPO)*%
X101450000Y-94412500D03*
%TD*%
D22*
%TO.P,J2,1,Pin_1*%
%TO.N,/+BAT*%
X153950000Y-94400000D03*
D23*
%TO.P,J2,2,Pin_2*%
%TO.N,/-BAT*%
X153950000Y-92400000D03*
%TD*%
D24*
%TO.P,D1,1,K*%
%TO.N,Net-(D1-K)*%
X133913500Y-94114000D03*
D25*
%TO.P,D1,2,A*%
%TO.N,Net-(D1-A)*%
X133913500Y-91574000D03*
%TD*%
D26*
%TO.P,SW1,1,1*%
%TO.N,Net-(U1-GPIO8_A9_D9_CIPO)*%
X113450000Y-95000000D03*
X106950000Y-95000000D03*
%TO.P,SW1,2,2*%
%TO.N,GND*%
X113450000Y-90500000D03*
X106950000Y-90500000D03*
%TD*%
D27*
%TO.P,R1,1*%
%TO.N,Net-(D1-K)*%
X142675000Y-92587500D03*
%TO.P,R1,2*%
%TO.N,GND*%
X144500000Y-92587500D03*
%TD*%
D28*
%TO.P,J_MOTOR1,1,Pin_1*%
%TO.N,/M1*%
X113000000Y-65200000D03*
%TO.P,J_MOTOR1,2,Pin_2*%
%TO.N,/M2*%
X113000000Y-72820000D03*
%TO.P,J_MOTOR1,3,Pin_3*%
%TO.N,/M3*%
X90140000Y-72820000D03*
%TO.P,J_MOTOR1,4,Pin_4*%
%TO.N,/M4*%
X90140000Y-65200000D03*
%TD*%
D20*
%TO.P,C1,1*%
%TO.N,+3.3V*%
X147000000Y-85900000D03*
%TO.P,C1,2*%
%TO.N,GND*%
X147000000Y-84000000D03*
%TD*%
D29*
%TO.P,U1,1,GPIO1_A0_D0*%
%TO.N,/M1*%
X157750000Y-59770000D03*
%TO.P,U1,2,GPIO2_A1_D1*%
%TO.N,/M2*%
X155210000Y-59770000D03*
%TO.P,U1,3,GPIO3_A2_D2*%
%TO.N,/M3*%
X152670000Y-59770000D03*
%TO.P,U1,4,GPIO4_A3_D3*%
%TO.N,/M4*%
X150130000Y-59770000D03*
%TO.P,U1,5,GPIO4_A3_D3_SDA*%
%TO.N,unconnected-(U1-GPIO4_A3_D3_SDA-Pad5)*%
X147590000Y-59770000D03*
%TO.P,U1,6,GPIO6_A5_D5_SCL*%
%TO.N,unconnected-(U1-GPIO6_A5_D5_SCL-Pad6)*%
X145050000Y-59770000D03*
%TO.P,U1,7,GPIO43_TX_D6*%
%TO.N,unconnected-(U1-GPIO43_TX_D6-Pad7)*%
X142510000Y-59770000D03*
%TO.P,U1,8,GPIO44_D7_RX*%
%TO.N,unconnected-(U1-GPIO44_D7_RX-Pad8)*%
X142510000Y-76770000D03*
%TO.P,U1,9,GPIO7_A8_D8_SCK*%
%TO.N,Net-(D1-A)*%
X145050000Y-76770000D03*
%TO.P,U1,10,GPIO8_A9_D9_CIPO*%
%TO.N,Net-(U1-GPIO8_A9_D9_CIPO)*%
X147590000Y-76770000D03*
%TO.P,U1,11,GPIO9_A10_D10_COPI*%
%TO.N,unconnected-(U1-GPIO9_A10_D10_COPI-Pad11)*%
X150130000Y-76770000D03*
%TO.P,U1,12,3V3*%
%TO.N,+3.3V*%
X152670000Y-76770000D03*
%TO.P,U1,13,GND*%
%TO.N,GND*%
X155210000Y-76770000D03*
%TO.P,U1,14,5V*%
%TO.N,+5V*%
X157750000Y-76770000D03*
D30*
%TO.P,U1,15,+BATT*%
%TO.N,/+BAT*%
X149530000Y-70370000D03*
D31*
%TO.P,U1,16,-BATT*%
%TO.N,/-BAT*%
X150530000Y-63770000D03*
%TO.P,U1,17*%
%TO.N,N/C*%
X152430000Y-63770000D03*
D32*
%TO.P,U1,18*%
X158750000Y-67000000D03*
%TO.P,U1,19*%
X156170000Y-67000000D03*
%TO.P,U1,20*%
X153630000Y-67000000D03*
%TO.P,U1,21*%
X153630000Y-69540000D03*
%TO.P,U1,22*%
X156170000Y-69540000D03*
%TO.P,U1,23*%
X158750000Y-69540000D03*
%TD*%
D33*
%TO.N,GND*%
X131175000Y-66378883D03*
X126600000Y-66800000D03*
X124000000Y-66800000D03*
%TO.N,/M4*%
X137400000Y-56625000D03*
X131800000Y-67200000D03*
X122800000Y-52000000D03*
%TO.N,/M1*%
X124400000Y-54000000D03*
X116800000Y-58800000D03*
%TO.N,GND*%
X148750000Y-80250000D03*
X154250000Y-80250000D03*
%TD*%
D34*
%TO.N,GND*%
X132110000Y-66200000D02*
X131200000Y-66200000D01*
X131200000Y-66200000D02*
X131200000Y-66353883D01*
X131200000Y-66353883D02*
X131175000Y-66378883D01*
X133500000Y-64810000D02*
X132110000Y-66200000D01*
X126600000Y-66800000D02*
X126600000Y-65010000D01*
X126600000Y-65010000D02*
X126400000Y-64810000D01*
X124000000Y-65960000D02*
X124000000Y-66800000D01*
X122850000Y-64810000D02*
X124000000Y-65960000D01*
X126400000Y-64810000D02*
X129950000Y-64810000D01*
%TO.N,/M3*%
X119300000Y-69190000D02*
X121606000Y-71496000D01*
X121606000Y-71496000D02*
X124514405Y-71496000D01*
X124514405Y-71496000D02*
X125174000Y-70836405D01*
X90140000Y-72820000D02*
X91316000Y-71644000D01*
X91316000Y-71644000D02*
X116846000Y-71644000D01*
X116846000Y-71644000D02*
X119300000Y-69190000D01*
%TO.N,/+BAT*%
X153950000Y-94400000D02*
X152749000Y-93199000D01*
X152749000Y-93199000D02*
X152749000Y-87051000D01*
X152749000Y-87051000D02*
X159076000Y-80724000D01*
X159076000Y-80724000D02*
X159076000Y-75420588D01*
X159076000Y-75420588D02*
X155245412Y-71590000D01*
X155245412Y-71590000D02*
X150750000Y-71590000D01*
X150750000Y-71590000D02*
X149530000Y-70370000D01*
%TO.N,/-BAT*%
X153950000Y-92400000D02*
X153950000Y-87646514D01*
X153950000Y-87646514D02*
X154170514Y-87426000D01*
%TO.N,/+BAT*%
X133400000Y-77990000D02*
X141020000Y-70370000D01*
X141020000Y-70370000D02*
X149530000Y-70370000D01*
X122750000Y-77990000D02*
X133400000Y-77990000D01*
%TO.N,/M1*%
X122750000Y-70370000D02*
X119400000Y-67020000D01*
X119400000Y-67020000D02*
X119400000Y-62561514D01*
X119400000Y-62561514D02*
X124825843Y-57135671D01*
X124825843Y-57135671D02*
X126380226Y-57135671D01*
%TO.N,/M2*%
X126300000Y-70370000D02*
X127426000Y-69244000D01*
X127426000Y-69244000D02*
X130316405Y-69244000D01*
X130976000Y-70836405D02*
X128992405Y-72820000D01*
X130316405Y-69244000D02*
X130976000Y-69903595D01*
X130976000Y-69903595D02*
X130976000Y-70836405D01*
X128992405Y-72820000D02*
X113000000Y-72820000D01*
%TO.N,/M3*%
X129950000Y-57190000D02*
X125174000Y-61966000D01*
X125833595Y-71496000D02*
X128724000Y-71496000D01*
X125174000Y-70836405D02*
X125833595Y-71496000D01*
X128724000Y-71496000D02*
X129850000Y-70370000D01*
%TO.N,/M2*%
X133500000Y-57190000D02*
X133500000Y-63170000D01*
X133500000Y-63170000D02*
X126300000Y-70370000D01*
%TO.N,/M4*%
X148460000Y-56600000D02*
X137400000Y-56600000D01*
X150130000Y-58270000D02*
X148460000Y-56600000D01*
X150130000Y-59770000D02*
X150130000Y-58270000D01*
X137400000Y-56600000D02*
X137400000Y-56625000D01*
%TO.N,/M2*%
X133500000Y-57190000D02*
X143687000Y-67377000D01*
X143687000Y-67377000D02*
X144660810Y-67377000D01*
X144660810Y-67377000D02*
X150441810Y-61596000D01*
X150441810Y-61596000D02*
X153519412Y-61596000D01*
X153519412Y-61596000D02*
X155210000Y-59905412D01*
X155210000Y-59905412D02*
X155210000Y-59770000D01*
%TO.N,/M3*%
X149500000Y-56000000D02*
X131140000Y-56000000D01*
X131140000Y-56000000D02*
X129950000Y-57190000D01*
%TO.N,/M1*%
X157750000Y-59770000D02*
X157750000Y-58270000D01*
X153604000Y-54124000D02*
X129391897Y-54124000D01*
X126380226Y-57135671D02*
X126354892Y-57144892D01*
X157750000Y-58270000D02*
X153604000Y-54124000D01*
X129391897Y-54124000D02*
X126380226Y-57135671D01*
X126354892Y-57144892D02*
X124400000Y-55190000D01*
X124400000Y-55190000D02*
X124400000Y-54000000D01*
%TO.N,/M4*%
X131800000Y-67200000D02*
X133400000Y-68800000D01*
X133400000Y-68800000D02*
X133400000Y-70370000D01*
X122850000Y-52050000D02*
X122800000Y-52000000D01*
X122850000Y-57190000D02*
X122850000Y-52050000D01*
%TO.N,/M1*%
X116800000Y-58800000D02*
X116800000Y-64400000D01*
X113000000Y-65200000D02*
X116000000Y-65200000D01*
X116800000Y-64400000D02*
X116000000Y-65200000D01*
X116000000Y-65200000D02*
X116195298Y-65200000D01*
X121365298Y-70370000D02*
X122750000Y-70370000D01*
X116195298Y-65200000D02*
X121365298Y-70370000D01*
%TO.N,/+BAT*%
X85200000Y-88700000D02*
X85221694Y-88700000D01*
X86776000Y-91145694D02*
X85221694Y-92700000D01*
X85221694Y-88700000D02*
X86776000Y-90254306D01*
X86776000Y-90254306D02*
X86776000Y-91145694D01*
X85221694Y-92700000D02*
X85200000Y-92700000D01*
X122750000Y-77990000D02*
X112040000Y-88700000D01*
X112040000Y-88700000D02*
X85200000Y-88700000D01*
%TO.N,/M4*%
X90140000Y-65200000D02*
X103800000Y-65200000D01*
X103800000Y-65200000D02*
X111810000Y-57190000D01*
X111810000Y-57190000D02*
X122850000Y-57190000D01*
%TO.N,Net-(D1-K)*%
X133913500Y-94114000D02*
X141148500Y-94114000D01*
X141148500Y-94114000D02*
X142675000Y-92587500D01*
%TO.N,Net-(U1-GPIO8_A9_D9_CIPO)*%
X113450000Y-95000000D02*
X115650000Y-92800000D01*
X115650000Y-92800000D02*
X135600000Y-92800000D01*
X135600000Y-87753486D02*
X138200000Y-87753486D01*
X135600000Y-92800000D02*
X135600000Y-87753486D01*
X138200000Y-87753486D02*
X147590000Y-78363486D01*
X147590000Y-78363486D02*
X147590000Y-76770000D01*
%TO.N,+3.3V*%
X101450000Y-92587500D02*
X100424000Y-93613500D01*
X140470514Y-96326000D02*
X143513500Y-93283014D01*
X100424000Y-93613500D02*
X100424000Y-94920514D01*
X101829486Y-96326000D02*
X140470514Y-96326000D01*
X100424000Y-94920514D02*
X101829486Y-96326000D01*
X143513500Y-85913500D02*
X143500000Y-85900000D01*
X143513500Y-93283014D02*
X143513500Y-85913500D01*
%TO.N,Net-(D1-A)*%
X133913500Y-91574000D02*
X133913500Y-85441912D01*
X145050000Y-76905412D02*
X145050000Y-76770000D01*
X133913500Y-85441912D02*
X136513500Y-85441912D01*
X136513500Y-85441912D02*
X145050000Y-76905412D01*
%TO.N,/M1*%
X157750000Y-58500000D02*
X157750000Y-59770000D01*
%TO.N,GND*%
X147000000Y-84000000D02*
X143500000Y-84000000D01*
%TO.N,+3.3V*%
X147000000Y-85900000D02*
X143500000Y-85900000D01*
X149250000Y-83650000D02*
X147000000Y-85900000D01*
%TO.N,Net-(U1-GPIO8_A9_D9_CIPO)*%
X113450000Y-95000000D02*
X106950000Y-95000000D01*
X106950000Y-95000000D02*
X106450000Y-95000000D01*
X106450000Y-95000000D02*
X105862500Y-94412500D01*
X105862500Y-94412500D02*
X101450000Y-94412500D01*
%TO.N,/-BAT*%
X154170514Y-87426000D02*
X159527000Y-82069514D01*
%TO.N,GND*%
X147000000Y-82000000D02*
X147000000Y-84000000D01*
X148750000Y-80250000D02*
X147000000Y-82000000D01*
%TO.N,+3.3V*%
X149250000Y-82250000D02*
X149250000Y-83650000D01*
X152670000Y-78830000D02*
X149250000Y-82250000D01*
X152670000Y-76770000D02*
X152670000Y-78830000D01*
%TO.N,GND*%
X155210000Y-76770000D02*
X155210000Y-79290000D01*
X155210000Y-79290000D02*
X154250000Y-80250000D01*
%TO.N,/-BAT*%
X159527000Y-82069514D02*
X159527000Y-73468727D01*
X159527000Y-73468727D02*
X157146000Y-71087727D01*
X157146000Y-71087727D02*
X157146000Y-66364486D01*
X157146000Y-66364486D02*
X156027514Y-65246000D01*
X150530000Y-64920000D02*
X150530000Y-63770000D01*
X156027514Y-65246000D02*
X150856000Y-65246000D01*
X150856000Y-65246000D02*
X150530000Y-64920000D01*
%TO.N,/M3*%
X151670000Y-58770000D02*
X152670000Y-59770000D01*
X151670000Y-58170000D02*
X151670000Y-58770000D01*
X149500000Y-56000000D02*
X151670000Y-58170000D01*
X125174000Y-61966000D02*
X125174000Y-70836405D01*
%TD*%
%TA.AperFunction,Conductor*%
%TO.N,GND*%
G36*
X151454865Y-78481884D02*
G01*
X151478357Y-78496981D01*
X151616593Y-78609698D01*
X151722521Y-78665030D01*
X151772826Y-78713514D01*
X151788934Y-78781502D01*
X151765728Y-78847405D01*
X151752789Y-78862618D01*
X148851269Y-81764140D01*
X148851267Y-81764142D01*
X148807703Y-81807705D01*
X148764140Y-81851268D01*
X148743162Y-81882664D01*
X148743155Y-81882675D01*
X148740224Y-81887063D01*
X148695688Y-81953714D01*
X148673241Y-82007907D01*
X148648537Y-82067548D01*
X148648536Y-82067552D01*
X148648536Y-82067553D01*
X148648535Y-82067556D01*
X148624500Y-82188389D01*
X148624500Y-83339546D01*
X148604815Y-83406585D01*
X148588181Y-83427227D01*
X148407332Y-83608075D01*
X148346009Y-83641560D01*
X148276317Y-83636576D01*
X148220384Y-83594704D01*
X148201945Y-83559398D01*
X148159358Y-83430880D01*
X148159356Y-83430875D01*
X148067315Y-83281654D01*
X147943345Y-83157684D01*
X147794124Y-83065643D01*
X147794119Y-83065641D01*
X147627697Y-83010494D01*
X147627690Y-83010493D01*
X147524986Y-83000000D01*
X147250000Y-83000000D01*
X147250000Y-83876000D01*
X147230315Y-83943039D01*
X147177511Y-83988794D01*
X147126000Y-84000000D01*
X147000000Y-84000000D01*
X147000000Y-84126000D01*
X146980315Y-84193039D01*
X146927511Y-84238794D01*
X146876000Y-84250000D01*
X145775001Y-84250000D01*
X145775001Y-84299986D01*
X145785494Y-84402697D01*
X145840641Y-84569119D01*
X145840643Y-84569124D01*
X145932684Y-84718345D01*
X146056655Y-84842316D01*
X146056659Y-84842319D01*
X146059656Y-84844168D01*
X146061279Y-84845972D01*
X146062323Y-84846798D01*
X146062181Y-84846976D01*
X146106381Y-84896116D01*
X146117602Y-84965079D01*
X146089759Y-85029161D01*
X146059661Y-85055241D01*
X146056349Y-85057283D01*
X146056343Y-85057288D01*
X145932289Y-85181342D01*
X145911161Y-85215597D01*
X145859213Y-85262321D01*
X145805622Y-85274500D01*
X144694378Y-85274500D01*
X144627339Y-85254815D01*
X144588839Y-85215597D01*
X144567712Y-85181344D01*
X144443656Y-85057288D01*
X144440342Y-85055243D01*
X144438546Y-85053248D01*
X144437989Y-85052807D01*
X144438064Y-85052711D01*
X144393618Y-85003297D01*
X144382397Y-84934334D01*
X144410240Y-84870252D01*
X144440348Y-84844165D01*
X144443342Y-84842318D01*
X144567315Y-84718345D01*
X144659356Y-84569124D01*
X144659358Y-84569119D01*
X144714505Y-84402697D01*
X144714506Y-84402690D01*
X144724999Y-84299986D01*
X144725000Y-84299973D01*
X144725000Y-84250000D01*
X143624000Y-84250000D01*
X143556961Y-84230315D01*
X143511206Y-84177511D01*
X143500000Y-84126000D01*
X143500000Y-83874000D01*
X143519685Y-83806961D01*
X143572489Y-83761206D01*
X143624000Y-83750000D01*
X144724999Y-83750000D01*
X144724999Y-83700029D01*
X144724998Y-83700013D01*
X145775000Y-83700013D01*
X145775000Y-83750000D01*
X146750000Y-83750000D01*
X146750000Y-83000000D01*
X146475029Y-83000000D01*
X146475012Y-83000001D01*
X146372302Y-83010494D01*
X146205880Y-83065641D01*
X146205875Y-83065643D01*
X146056654Y-83157684D01*
X145932684Y-83281654D01*
X145840643Y-83430875D01*
X145840641Y-83430880D01*
X145785494Y-83597302D01*
X145785493Y-83597309D01*
X145775000Y-83700013D01*
X144724998Y-83700013D01*
X144724998Y-83700012D01*
X144714505Y-83597302D01*
X144659358Y-83430880D01*
X144659356Y-83430875D01*
X144567315Y-83281654D01*
X144443345Y-83157684D01*
X144294124Y-83065643D01*
X144294119Y-83065641D01*
X144127697Y-83010494D01*
X144127691Y-83010493D01*
X144114993Y-83009196D01*
X144050302Y-82982798D01*
X144010152Y-82925617D01*
X144007290Y-82855806D01*
X144039914Y-82798160D01*
X148031258Y-78806818D01*
X148092581Y-78773333D01*
X148118939Y-78770499D01*
X148148028Y-78770499D01*
X148148036Y-78770499D01*
X148267418Y-78759886D01*
X148463049Y-78703909D01*
X148643407Y-78609698D01*
X148781640Y-78496983D01*
X148846035Y-78469875D01*
X148914865Y-78481884D01*
X148938357Y-78496981D01*
X149076593Y-78609698D01*
X149256951Y-78703909D01*
X149452582Y-78759886D01*
X149571963Y-78770500D01*
X150688036Y-78770499D01*
X150807418Y-78759886D01*
X151003049Y-78703909D01*
X151183407Y-78609698D01*
X151321640Y-78496983D01*
X151386035Y-78469875D01*
X151454865Y-78481884D01*
G37*
%TD.AperFunction*%
%TA.AperFunction,Conductor*%
G36*
X153360587Y-54769185D02*
G01*
X153381229Y-54785819D01*
X156240219Y-57644810D01*
X156273704Y-57706133D01*
X156268720Y-57775825D01*
X156226848Y-57831758D01*
X156161384Y-57856175D01*
X156095127Y-57842400D01*
X156083047Y-57836090D01*
X155999370Y-57812147D01*
X155887418Y-57780114D01*
X155887415Y-57780113D01*
X155887413Y-57780113D01*
X155819753Y-57774098D01*
X155768037Y-57769500D01*
X155768032Y-57769500D01*
X154651971Y-57769500D01*
X154651965Y-57769500D01*
X154651964Y-57769501D01*
X154640316Y-57770536D01*
X154532584Y-57780113D01*
X154336954Y-57836089D01*
X154306841Y-57851819D01*
X154156593Y-57930302D01*
X154156591Y-57930303D01*
X154156590Y-57930304D01*
X154018361Y-58043015D01*
X153953964Y-58070124D01*
X153885135Y-58058115D01*
X153861639Y-58043015D01*
X153798385Y-57991438D01*
X153723407Y-57930302D01*
X153543049Y-57836091D01*
X153543048Y-57836090D01*
X153543045Y-57836089D01*
X153425829Y-57802550D01*
X153347418Y-57780114D01*
X153347415Y-57780113D01*
X153347413Y-57780113D01*
X153274631Y-57773642D01*
X153228037Y-57769500D01*
X153228033Y-57769500D01*
X152205453Y-57769500D01*
X152138414Y-57749815D01*
X152117772Y-57733181D01*
X152068732Y-57684141D01*
X151034403Y-56649812D01*
X149985859Y-55601269D01*
X149985858Y-55601267D01*
X149898733Y-55514142D01*
X149847509Y-55479915D01*
X149796286Y-55445688D01*
X149796283Y-55445686D01*
X149796280Y-55445685D01*
X149722603Y-55415168D01*
X149722601Y-55415167D01*
X149715792Y-55412347D01*
X149682452Y-55398537D01*
X149622029Y-55386518D01*
X149617306Y-55385578D01*
X149617304Y-55385578D01*
X149561610Y-55374500D01*
X149561607Y-55374500D01*
X149561606Y-55374500D01*
X131201607Y-55374500D01*
X131078393Y-55374500D01*
X131078389Y-55374500D01*
X131022697Y-55385578D01*
X131017971Y-55386518D01*
X130980259Y-55394019D01*
X130957550Y-55398536D01*
X130957548Y-55398537D01*
X130924207Y-55412347D01*
X130843719Y-55445684D01*
X130843705Y-55445692D01*
X130741272Y-55514138D01*
X130741266Y-55514143D01*
X130654139Y-55601270D01*
X130402227Y-55853181D01*
X130340904Y-55886666D01*
X130314546Y-55889500D01*
X129349998Y-55889500D01*
X129349980Y-55889501D01*
X129247203Y-55900000D01*
X129247200Y-55900001D01*
X129080668Y-55955185D01*
X129080663Y-55955187D01*
X128931342Y-56047289D01*
X128807289Y-56171342D01*
X128715187Y-56320663D01*
X128715185Y-56320668D01*
X128699355Y-56368440D01*
X128660001Y-56487203D01*
X128660001Y-56487204D01*
X128660000Y-56487204D01*
X128649500Y-56589983D01*
X128649500Y-57554547D01*
X128629815Y-57621586D01*
X128613181Y-57642228D01*
X124688144Y-61567264D01*
X124688138Y-61567272D01*
X124619692Y-61669705D01*
X124619684Y-61669720D01*
X124586346Y-61750205D01*
X124586347Y-61750206D01*
X124574648Y-61778452D01*
X124574645Y-61778459D01*
X124572539Y-61783541D01*
X124572536Y-61783550D01*
X124550910Y-61892280D01*
X124548500Y-61904396D01*
X124548500Y-70525953D01*
X124528815Y-70592992D01*
X124512181Y-70613634D01*
X124291634Y-70834181D01*
X124264706Y-70848884D01*
X124238888Y-70865477D01*
X124232687Y-70866368D01*
X124230311Y-70867666D01*
X124203953Y-70870500D01*
X124125476Y-70870500D01*
X124058437Y-70850815D01*
X124012682Y-70798011D01*
X124002738Y-70728853D01*
X124007545Y-70708183D01*
X124018475Y-70674542D01*
X124018475Y-70674538D01*
X124018477Y-70674534D01*
X124050500Y-70472352D01*
X124050500Y-70267648D01*
X124018477Y-70065465D01*
X123959563Y-69884147D01*
X123955220Y-69870781D01*
X123955218Y-69870778D01*
X123955218Y-69870776D01*
X123921503Y-69804607D01*
X123862287Y-69688390D01*
X123820265Y-69630551D01*
X123741971Y-69522786D01*
X123597213Y-69378028D01*
X123431613Y-69257715D01*
X123431612Y-69257714D01*
X123431610Y-69257713D01*
X123333635Y-69207792D01*
X123249223Y-69164781D01*
X123054534Y-69101522D01*
X122879995Y-69073878D01*
X122852352Y-69069500D01*
X122647648Y-69069500D01*
X122570514Y-69081717D01*
X122440654Y-69102285D01*
X122440333Y-69100262D01*
X122379120Y-69097149D01*
X122332371Y-69067781D01*
X120061819Y-66797228D01*
X120028334Y-66735905D01*
X120025500Y-66709547D01*
X120025500Y-64707682D01*
X121550000Y-64707682D01*
X121550000Y-64912317D01*
X121582009Y-65114417D01*
X121645244Y-65309031D01*
X121738141Y-65491350D01*
X121738147Y-65491359D01*
X121770523Y-65535921D01*
X121770524Y-65535922D01*
X122450000Y-64856446D01*
X122450000Y-64862661D01*
X122477259Y-64964394D01*
X122529920Y-65055606D01*
X122604394Y-65130080D01*
X122695606Y-65182741D01*
X122797339Y-65210000D01*
X122803553Y-65210000D01*
X122124076Y-65889474D01*
X122168650Y-65921859D01*
X122350968Y-66014755D01*
X122545582Y-66077990D01*
X122747683Y-66110000D01*
X122952317Y-66110000D01*
X123154417Y-66077990D01*
X123349031Y-66014755D01*
X123531349Y-65921859D01*
X123575921Y-65889474D01*
X122896447Y-65210000D01*
X122902661Y-65210000D01*
X123004394Y-65182741D01*
X123095606Y-65130080D01*
X123170080Y-65055606D01*
X123222741Y-64964394D01*
X123250000Y-64862661D01*
X123250000Y-64856447D01*
X123929474Y-65535921D01*
X123961859Y-65491349D01*
X124054755Y-65309031D01*
X124117990Y-65114417D01*
X124150000Y-64912317D01*
X124150000Y-64707682D01*
X124117990Y-64505582D01*
X124054755Y-64310968D01*
X123961859Y-64128650D01*
X123929474Y-64084077D01*
X123929474Y-64084076D01*
X123250000Y-64763551D01*
X123250000Y-64757339D01*
X123222741Y-64655606D01*
X123170080Y-64564394D01*
X123095606Y-64489920D01*
X123004394Y-64437259D01*
X122902661Y-64410000D01*
X122896446Y-64410000D01*
X123575922Y-63730524D01*
X123575921Y-63730523D01*
X123531359Y-63698147D01*
X123531350Y-63698141D01*
X123349031Y-63605244D01*
X123154417Y-63542009D01*
X122952317Y-63510000D01*
X122747683Y-63510000D01*
X122545582Y-63542009D01*
X122350968Y-63605244D01*
X122168644Y-63698143D01*
X122124077Y-63730523D01*
X122124077Y-63730524D01*
X122803554Y-64410000D01*
X122797339Y-64410000D01*
X122695606Y-64437259D01*
X122604394Y-64489920D01*
X122529920Y-64564394D01*
X122477259Y-64655606D01*
X122450000Y-64757339D01*
X122450000Y-64763553D01*
X121770524Y-64084077D01*
X121770523Y-64084077D01*
X121738143Y-64128644D01*
X121645244Y-64310968D01*
X121582009Y-64505582D01*
X121550000Y-64707682D01*
X120025500Y-64707682D01*
X120025500Y-62871966D01*
X120045185Y-62804927D01*
X120061819Y-62784285D01*
X122426654Y-60419450D01*
X124928850Y-57917253D01*
X124990171Y-57883770D01*
X125059863Y-57888754D01*
X125115796Y-57930626D01*
X125134235Y-57965931D01*
X125165186Y-58059334D01*
X125257288Y-58208656D01*
X125381344Y-58332712D01*
X125530666Y-58424814D01*
X125697203Y-58479999D01*
X125799991Y-58490500D01*
X127000008Y-58490499D01*
X127102797Y-58479999D01*
X127269334Y-58424814D01*
X127418656Y-58332712D01*
X127542712Y-58208656D01*
X127634814Y-58059334D01*
X127689999Y-57892797D01*
X127700500Y-57790009D01*
X127700499Y-56751347D01*
X127720183Y-56684309D01*
X127736813Y-56663672D01*
X129614668Y-54785819D01*
X129675991Y-54752334D01*
X129702349Y-54749500D01*
X153293548Y-54749500D01*
X153360587Y-54769185D01*
G37*
%TD.AperFunction*%
%TA.AperFunction,Conductor*%
G36*
X132142539Y-56645185D02*
G01*
X132188294Y-56697989D01*
X132199500Y-56749500D01*
X132199500Y-57790001D01*
X132199501Y-57790018D01*
X132210000Y-57892796D01*
X132210001Y-57892799D01*
X132234235Y-57965931D01*
X132265186Y-58059334D01*
X132357288Y-58208656D01*
X132481344Y-58332712D01*
X132630666Y-58424814D01*
X132752580Y-58465212D01*
X132789504Y-58477448D01*
X132846949Y-58517221D01*
X132873772Y-58581737D01*
X132874500Y-58595154D01*
X132874500Y-62859546D01*
X132854815Y-62926585D01*
X132838181Y-62947227D01*
X131376236Y-64409171D01*
X131314913Y-64442656D01*
X131245221Y-64437672D01*
X131189288Y-64395800D01*
X131170624Y-64359808D01*
X131154755Y-64310970D01*
X131061859Y-64128650D01*
X131029474Y-64084077D01*
X131029474Y-64084076D01*
X130350000Y-64763553D01*
X130350000Y-64757339D01*
X130322741Y-64655606D01*
X130270080Y-64564394D01*
X130195606Y-64489920D01*
X130104394Y-64437259D01*
X130002661Y-64410000D01*
X129996446Y-64410000D01*
X130675922Y-63730524D01*
X130675921Y-63730523D01*
X130631359Y-63698147D01*
X130631350Y-63698141D01*
X130449031Y-63605244D01*
X130254417Y-63542009D01*
X130052317Y-63510000D01*
X129847683Y-63510000D01*
X129645582Y-63542009D01*
X129450968Y-63605244D01*
X129268644Y-63698143D01*
X129224077Y-63730523D01*
X129224077Y-63730524D01*
X129903554Y-64410000D01*
X129897339Y-64410000D01*
X129795606Y-64437259D01*
X129704394Y-64489920D01*
X129629920Y-64564394D01*
X129577259Y-64655606D01*
X129550000Y-64757339D01*
X129550000Y-64763553D01*
X128870524Y-64084077D01*
X128870523Y-64084077D01*
X128838143Y-64128644D01*
X128745244Y-64310968D01*
X128682009Y-64505582D01*
X128650000Y-64707682D01*
X128650000Y-64912317D01*
X128682009Y-65114417D01*
X128745244Y-65309031D01*
X128838141Y-65491350D01*
X128838147Y-65491359D01*
X128870523Y-65535921D01*
X128870524Y-65535922D01*
X129550000Y-64856446D01*
X129550000Y-64862661D01*
X129577259Y-64964394D01*
X129629920Y-65055606D01*
X129704394Y-65130080D01*
X129795606Y-65182741D01*
X129897339Y-65210000D01*
X129903553Y-65210000D01*
X129224076Y-65889474D01*
X129268650Y-65921859D01*
X129450970Y-66014755D01*
X129499808Y-66030624D01*
X129557483Y-66070061D01*
X129584682Y-66134420D01*
X129572768Y-66203266D01*
X129549171Y-66236236D01*
X127027268Y-68758141D01*
X127027266Y-68758143D01*
X126717627Y-69067781D01*
X126656304Y-69101266D01*
X126609584Y-69100776D01*
X126609346Y-69102285D01*
X126479486Y-69081717D01*
X126402352Y-69069500D01*
X126197648Y-69069500D01*
X126159659Y-69075517D01*
X125995464Y-69101523D01*
X125995457Y-69101524D01*
X125961817Y-69112455D01*
X125891976Y-69114450D01*
X125832144Y-69078369D01*
X125801316Y-69015668D01*
X125799500Y-68994524D01*
X125799500Y-66152457D01*
X125819185Y-66085418D01*
X125871989Y-66039663D01*
X125941147Y-66029719D01*
X125961819Y-66034526D01*
X126095582Y-66077990D01*
X126297683Y-66110000D01*
X126502317Y-66110000D01*
X126704417Y-66077990D01*
X126899031Y-66014755D01*
X127081349Y-65921859D01*
X127125921Y-65889474D01*
X126446447Y-65210000D01*
X126452661Y-65210000D01*
X126554394Y-65182741D01*
X126645606Y-65130080D01*
X126720080Y-65055606D01*
X126772741Y-64964394D01*
X126800000Y-64862661D01*
X126800000Y-64856447D01*
X127479474Y-65535921D01*
X127511859Y-65491349D01*
X127604755Y-65309031D01*
X127667990Y-65114417D01*
X127700000Y-64912317D01*
X127700000Y-64707682D01*
X127667990Y-64505582D01*
X127604755Y-64310968D01*
X127511859Y-64128650D01*
X127479474Y-64084077D01*
X127479474Y-64084076D01*
X126800000Y-64763551D01*
X126800000Y-64757339D01*
X126772741Y-64655606D01*
X126720080Y-64564394D01*
X126645606Y-64489920D01*
X126554394Y-64437259D01*
X126452661Y-64410000D01*
X126446446Y-64410000D01*
X127125922Y-63730524D01*
X127125921Y-63730523D01*
X127081359Y-63698147D01*
X127081350Y-63698141D01*
X126899031Y-63605244D01*
X126704417Y-63542009D01*
X126502317Y-63510000D01*
X126297683Y-63510000D01*
X126095581Y-63542010D01*
X126095578Y-63542010D01*
X125961818Y-63585472D01*
X125891977Y-63587467D01*
X125832144Y-63551387D01*
X125801316Y-63488686D01*
X125799500Y-63467541D01*
X125799500Y-62276451D01*
X125819185Y-62209412D01*
X125835814Y-62188775D01*
X129497771Y-58526817D01*
X129559094Y-58493333D01*
X129585452Y-58490499D01*
X130550002Y-58490499D01*
X130550008Y-58490499D01*
X130652797Y-58479999D01*
X130819334Y-58424814D01*
X130968656Y-58332712D01*
X131092712Y-58208656D01*
X131184814Y-58059334D01*
X131239999Y-57892797D01*
X131250500Y-57790009D01*
X131250499Y-56825452D01*
X131259144Y-56796009D01*
X131265667Y-56766025D01*
X131269420Y-56761011D01*
X131270183Y-56758414D01*
X131286818Y-56737771D01*
X131362772Y-56661818D01*
X131424096Y-56628334D01*
X131450453Y-56625500D01*
X132075500Y-56625500D01*
X132142539Y-56645185D01*
G37*
%TD.AperFunction*%
%TA.AperFunction,Conductor*%
G36*
X161756922Y-44751280D02*
G01*
X161847266Y-44761459D01*
X161874331Y-44767636D01*
X161953540Y-44795352D01*
X161978553Y-44807398D01*
X162049606Y-44852043D01*
X162071313Y-44869355D01*
X162130644Y-44928686D01*
X162147957Y-44950395D01*
X162192600Y-45021444D01*
X162204648Y-45046462D01*
X162232362Y-45125666D01*
X162238540Y-45152735D01*
X162248720Y-45243076D01*
X162249500Y-45256961D01*
X162249500Y-103693038D01*
X162248720Y-103706922D01*
X162248720Y-103706923D01*
X162238540Y-103797264D01*
X162232362Y-103824333D01*
X162204648Y-103903537D01*
X162192600Y-103928555D01*
X162147957Y-103999604D01*
X162130644Y-104021313D01*
X162071313Y-104080644D01*
X162049604Y-104097957D01*
X161978555Y-104142600D01*
X161953537Y-104154648D01*
X161874333Y-104182362D01*
X161847264Y-104188540D01*
X161767075Y-104197576D01*
X161756921Y-104198720D01*
X161743038Y-104199500D01*
X82806962Y-104199500D01*
X82793078Y-104198720D01*
X82780553Y-104197308D01*
X82702735Y-104188540D01*
X82675666Y-104182362D01*
X82596462Y-104154648D01*
X82571444Y-104142600D01*
X82500395Y-104097957D01*
X82478686Y-104080644D01*
X82419355Y-104021313D01*
X82402042Y-103999604D01*
X82357399Y-103928555D01*
X82345351Y-103903537D01*
X82317637Y-103824333D01*
X82311459Y-103797263D01*
X82301280Y-103706922D01*
X82300500Y-103693038D01*
X82300500Y-100897648D01*
X84499500Y-100897648D01*
X84499500Y-101102351D01*
X84531522Y-101304534D01*
X84594781Y-101499223D01*
X84687715Y-101681613D01*
X84808028Y-101847213D01*
X84952786Y-101991971D01*
X85107749Y-102104556D01*
X85118390Y-102112287D01*
X85234607Y-102171503D01*
X85300776Y-102205218D01*
X85300778Y-102205218D01*
X85300781Y-102205220D01*
X85405137Y-102239127D01*
X85495465Y-102268477D01*
X85596557Y-102284488D01*
X85697648Y-102300500D01*
X85697649Y-102300500D01*
X85902351Y-102300500D01*
X85902352Y-102300500D01*
X86104534Y-102268477D01*
X86299219Y-102205220D01*
X86481610Y-102112287D01*
X86574590Y-102044732D01*
X86647213Y-101991971D01*
X86647215Y-101991968D01*
X86647219Y-101991966D01*
X86791966Y-101847219D01*
X86791968Y-101847215D01*
X86791971Y-101847213D01*
X86844732Y-101774590D01*
X86912287Y-101681610D01*
X87005220Y-101499219D01*
X87068477Y-101304534D01*
X87069568Y-101297648D01*
X157299500Y-101297648D01*
X157299500Y-101502351D01*
X157331522Y-101704534D01*
X157394781Y-101899223D01*
X157487715Y-102081613D01*
X157608028Y-102247213D01*
X157752786Y-102391971D01*
X157907749Y-102504556D01*
X157918390Y-102512287D01*
X158034607Y-102571503D01*
X158100776Y-102605218D01*
X158100778Y-102605218D01*
X158100781Y-102605220D01*
X158205137Y-102639127D01*
X158295465Y-102668477D01*
X158396557Y-102684488D01*
X158497648Y-102700500D01*
X158497649Y-102700500D01*
X158702351Y-102700500D01*
X158702352Y-102700500D01*
X158904534Y-102668477D01*
X159099219Y-102605220D01*
X159281610Y-102512287D01*
X159374590Y-102444732D01*
X159447213Y-102391971D01*
X159447215Y-102391968D01*
X159447219Y-102391966D01*
X159591966Y-102247219D01*
X159591968Y-102247215D01*
X159591971Y-102247213D01*
X159644732Y-102174590D01*
X159712287Y-102081610D01*
X159805220Y-101899219D01*
X159868477Y-101704534D01*
X159900500Y-101502352D01*
X159900500Y-101297648D01*
X159869568Y-101102352D01*
X159868477Y-101095465D01*
X159805218Y-100900776D01*
X159771503Y-100834607D01*
X159712287Y-100718390D01*
X159695631Y-100695465D01*
X159591971Y-100552786D01*
X159447213Y-100408028D01*
X159281613Y-100287715D01*
X159281612Y-100287714D01*
X159281610Y-100287713D01*
X159224653Y-100258691D01*
X159099223Y-100194781D01*
X158904534Y-100131522D01*
X158729995Y-100103878D01*
X158702352Y-100099500D01*
X158497648Y-100099500D01*
X158473329Y-100103351D01*
X158295465Y-100131522D01*
X158100776Y-100194781D01*
X157918386Y-100287715D01*
X157752786Y-100408028D01*
X157608028Y-100552786D01*
X157487715Y-100718386D01*
X157394781Y-100900776D01*
X157331522Y-101095465D01*
X157299500Y-101297648D01*
X87069568Y-101297648D01*
X87100500Y-101102352D01*
X87100500Y-100897648D01*
X87068477Y-100695466D01*
X87005220Y-100500781D01*
X87005218Y-100500778D01*
X87005218Y-100500776D01*
X86957960Y-100408028D01*
X86912287Y-100318390D01*
X86904556Y-100307749D01*
X86791971Y-100152786D01*
X86647213Y-100008028D01*
X86481613Y-99887715D01*
X86481612Y-99887714D01*
X86481610Y-99887713D01*
X86424653Y-99858691D01*
X86299223Y-99794781D01*
X86104534Y-99731522D01*
X85929995Y-99703878D01*
X85902352Y-99699500D01*
X85697648Y-99699500D01*
X85673329Y-99703351D01*
X85495465Y-99731522D01*
X85300776Y-99794781D01*
X85118386Y-99887715D01*
X84952786Y-100008028D01*
X84808028Y-100152786D01*
X84687715Y-100318386D01*
X84594781Y-100500776D01*
X84531522Y-100695465D01*
X84499500Y-100897648D01*
X82300500Y-100897648D01*
X82300500Y-86474038D01*
X82949500Y-86474038D01*
X82949500Y-86725962D01*
X82978457Y-86908788D01*
X82988910Y-86974785D01*
X83066760Y-87214383D01*
X83181132Y-87438848D01*
X83329201Y-87642649D01*
X83329205Y-87642654D01*
X83507349Y-87820798D01*
X83594752Y-87884299D01*
X83637418Y-87939628D01*
X83643397Y-88009242D01*
X83632352Y-88040911D01*
X83541118Y-88219967D01*
X83480290Y-88407173D01*
X83449500Y-88601577D01*
X83449500Y-88798422D01*
X83480290Y-88992826D01*
X83541117Y-89180029D01*
X83615239Y-89325500D01*
X83630476Y-89355405D01*
X83746172Y-89514646D01*
X83746174Y-89514648D01*
X83843845Y-89612319D01*
X83877330Y-89673642D01*
X83872346Y-89743334D01*
X83843845Y-89787681D01*
X83746174Y-89885351D01*
X83746174Y-89885352D01*
X83746172Y-89885354D01*
X83717951Y-89924197D01*
X83630476Y-90044594D01*
X83541117Y-90219970D01*
X83480290Y-90407173D01*
X83449500Y-90601577D01*
X83449500Y-90798422D01*
X83480290Y-90992826D01*
X83541117Y-91180029D01*
X83630476Y-91355405D01*
X83656783Y-91391613D01*
X83680263Y-91457419D01*
X83664438Y-91525473D01*
X83630777Y-91563765D01*
X83592452Y-91592455D01*
X83506206Y-91707664D01*
X83506202Y-91707671D01*
X83455908Y-91842517D01*
X83449501Y-91902116D01*
X83449500Y-91902135D01*
X83449500Y-93497870D01*
X83449501Y-93497876D01*
X83456669Y-93564555D01*
X83444262Y-93633314D01*
X83421061Y-93665488D01*
X83329205Y-93757345D01*
X83329201Y-93757350D01*
X83181132Y-93961151D01*
X83066760Y-94185616D01*
X82988910Y-94425214D01*
X82949500Y-94674038D01*
X82949500Y-94925961D01*
X82988910Y-95174785D01*
X83066760Y-95414383D01*
X83117773Y-95514500D01*
X83174330Y-95625500D01*
X83181132Y-95638848D01*
X83329201Y-95842649D01*
X83329205Y-95842654D01*
X83507345Y-96020794D01*
X83507350Y-96020798D01*
X83685117Y-96149952D01*
X83711155Y-96168870D01*
X83854184Y-96241747D01*
X83935616Y-96283239D01*
X83935618Y-96283239D01*
X83935621Y-96283241D01*
X84175215Y-96361090D01*
X84424038Y-96400500D01*
X84424039Y-96400500D01*
X85975961Y-96400500D01*
X85975962Y-96400500D01*
X86224785Y-96361090D01*
X86464379Y-96283241D01*
X86688845Y-96168870D01*
X86892656Y-96020793D01*
X87070793Y-95842656D01*
X87218870Y-95638845D01*
X87333241Y-95414379D01*
X87411090Y-95174785D01*
X87450500Y-94925962D01*
X87450500Y-94674038D01*
X87411090Y-94425215D01*
X87333241Y-94185621D01*
X87333239Y-94185618D01*
X87333239Y-94185616D01*
X87291747Y-94104184D01*
X87218870Y-93961155D01*
X87199952Y-93935117D01*
X87070798Y-93757350D01*
X87070794Y-93757345D01*
X86978939Y-93665490D01*
X86945454Y-93604167D01*
X86943331Y-93564554D01*
X86946352Y-93536449D01*
X86950500Y-93497873D01*
X86950499Y-91907146D01*
X86970184Y-91840108D01*
X86986818Y-91819466D01*
X87166099Y-91640185D01*
X87261858Y-91544427D01*
X87330312Y-91441979D01*
X87377463Y-91328145D01*
X87401501Y-91207300D01*
X87401501Y-91084087D01*
X87401501Y-91078977D01*
X87401500Y-91078951D01*
X87401500Y-90322047D01*
X87401501Y-90322026D01*
X87401501Y-90192697D01*
X87377464Y-90071861D01*
X87377463Y-90071855D01*
X87330312Y-89958021D01*
X87261858Y-89855573D01*
X87261855Y-89855569D01*
X86943466Y-89537181D01*
X86909981Y-89475858D01*
X86914965Y-89406167D01*
X86956836Y-89350233D01*
X87022301Y-89325816D01*
X87031147Y-89325500D01*
X105705859Y-89325500D01*
X105772898Y-89345185D01*
X105818653Y-89397989D01*
X105828597Y-89467147D01*
X105806177Y-89522386D01*
X105667085Y-89713828D01*
X105559897Y-89924197D01*
X105486934Y-90148752D01*
X105450000Y-90381947D01*
X105450000Y-90618052D01*
X105486934Y-90851247D01*
X105559897Y-91075802D01*
X105667087Y-91286174D01*
X105727338Y-91369104D01*
X105727340Y-91369105D01*
X106426212Y-90670233D01*
X106437482Y-90712292D01*
X106509890Y-90837708D01*
X106612292Y-90940110D01*
X106737708Y-91012518D01*
X106779765Y-91023787D01*
X106080893Y-91722658D01*
X106163828Y-91782914D01*
X106374197Y-91890102D01*
X106598752Y-91963065D01*
X106598751Y-91963065D01*
X106831948Y-92000000D01*
X107068052Y-92000000D01*
X107301247Y-91963065D01*
X107525802Y-91890102D01*
X107736163Y-91782918D01*
X107736169Y-91782914D01*
X107819104Y-91722658D01*
X107819105Y-91722658D01*
X107120233Y-91023787D01*
X107162292Y-91012518D01*
X107287708Y-90940110D01*
X107390110Y-90837708D01*
X107462518Y-90712292D01*
X107473787Y-90670234D01*
X108172658Y-91369105D01*
X108172658Y-91369104D01*
X108232914Y-91286169D01*
X108232918Y-91286163D01*
X108340102Y-91075802D01*
X108413065Y-90851247D01*
X108450000Y-90618052D01*
X108450000Y-90381947D01*
X108413065Y-90148752D01*
X108340102Y-89924197D01*
X108232914Y-89713828D01*
X108093823Y-89522386D01*
X108070343Y-89456579D01*
X108086168Y-89388525D01*
X108136274Y-89339830D01*
X108194141Y-89325500D01*
X112101607Y-89325500D01*
X112162029Y-89313481D01*
X112222452Y-89301463D01*
X112255792Y-89287652D01*
X112336286Y-89254312D01*
X112384495Y-89222097D01*
X112451171Y-89201217D01*
X112518552Y-89219699D01*
X112541070Y-89237516D01*
X113279766Y-89976212D01*
X113237708Y-89987482D01*
X113112292Y-90059890D01*
X113009890Y-90162292D01*
X112937482Y-90287708D01*
X112926212Y-90329766D01*
X112227340Y-89630894D01*
X112167084Y-89713830D01*
X112059897Y-89924197D01*
X111986934Y-90148752D01*
X111950000Y-90381947D01*
X111950000Y-90618052D01*
X111986934Y-90851247D01*
X112059897Y-91075802D01*
X112167087Y-91286174D01*
X112227338Y-91369104D01*
X112227340Y-91369105D01*
X112926212Y-90670233D01*
X112937482Y-90712292D01*
X113009890Y-90837708D01*
X113112292Y-90940110D01*
X113237708Y-91012518D01*
X113279765Y-91023787D01*
X112580893Y-91722658D01*
X112663828Y-91782914D01*
X112874197Y-91890102D01*
X113098752Y-91963065D01*
X113098751Y-91963065D01*
X113331948Y-92000000D01*
X113568052Y-92000000D01*
X113801247Y-91963065D01*
X114025802Y-91890102D01*
X114236163Y-91782918D01*
X114236169Y-91782914D01*
X114319104Y-91722658D01*
X114319105Y-91722658D01*
X113620233Y-91023787D01*
X113662292Y-91012518D01*
X113787708Y-90940110D01*
X113890110Y-90837708D01*
X113962518Y-90712292D01*
X113973787Y-90670233D01*
X114672658Y-91369105D01*
X114672658Y-91369104D01*
X114732914Y-91286169D01*
X114732918Y-91286163D01*
X114840102Y-91075802D01*
X114913065Y-90851247D01*
X114950000Y-90618052D01*
X114950000Y-90381947D01*
X114913065Y-90148752D01*
X114840102Y-89924197D01*
X114732914Y-89713828D01*
X114672658Y-89630894D01*
X114672658Y-89630893D01*
X113973787Y-90329765D01*
X113962518Y-90287708D01*
X113890110Y-90162292D01*
X113787708Y-90059890D01*
X113662292Y-89987482D01*
X113620234Y-89976212D01*
X114319105Y-89277340D01*
X114319104Y-89277338D01*
X114236174Y-89217087D01*
X114025802Y-89109897D01*
X113801247Y-89036934D01*
X113801248Y-89036934D01*
X113568052Y-89000000D01*
X113331948Y-89000000D01*
X113098752Y-89036934D01*
X112874194Y-89109898D01*
X112838794Y-89127935D01*
X112770124Y-89140831D01*
X112705384Y-89114554D01*
X112665128Y-89057447D01*
X112662136Y-88987641D01*
X112694817Y-88929771D01*
X122297771Y-79326818D01*
X122359094Y-79293333D01*
X122385452Y-79290499D01*
X123350002Y-79290499D01*
X123350008Y-79290499D01*
X123452797Y-79279999D01*
X123619334Y-79224814D01*
X123768656Y-79132712D01*
X123892712Y-79008656D01*
X123984814Y-78859334D01*
X124037448Y-78700493D01*
X124077219Y-78643051D01*
X124141735Y-78616228D01*
X124155153Y-78615500D01*
X124894846Y-78615500D01*
X124961885Y-78635185D01*
X125007640Y-78687989D01*
X125012552Y-78700496D01*
X125065185Y-78859331D01*
X125065187Y-78859336D01*
X125085092Y-78891607D01*
X125157288Y-79008656D01*
X125281344Y-79132712D01*
X125430666Y-79224814D01*
X125597203Y-79279999D01*
X125699991Y-79290500D01*
X126900008Y-79290499D01*
X127002797Y-79279999D01*
X127169334Y-79224814D01*
X127318656Y-79132712D01*
X127442712Y-79008656D01*
X127534814Y-78859334D01*
X127587448Y-78700493D01*
X127627219Y-78643051D01*
X127691735Y-78616228D01*
X127705153Y-78615500D01*
X128444846Y-78615500D01*
X128511885Y-78635185D01*
X128557640Y-78687989D01*
X128562552Y-78700496D01*
X128615185Y-78859331D01*
X128615187Y-78859336D01*
X128635092Y-78891607D01*
X128707288Y-79008656D01*
X128831344Y-79132712D01*
X128980666Y-79224814D01*
X129147203Y-79279999D01*
X129249991Y-79290500D01*
X130450008Y-79290499D01*
X130552797Y-79279999D01*
X130719334Y-79224814D01*
X130868656Y-79132712D01*
X130992712Y-79008656D01*
X131084814Y-78859334D01*
X131137448Y-78700493D01*
X131177219Y-78643051D01*
X131241735Y-78616228D01*
X131255153Y-78615500D01*
X131994846Y-78615500D01*
X132061885Y-78635185D01*
X132107640Y-78687989D01*
X132112552Y-78700496D01*
X132165185Y-78859331D01*
X132165187Y-78859336D01*
X132185092Y-78891607D01*
X132257288Y-79008656D01*
X132381344Y-79132712D01*
X132530666Y-79224814D01*
X132697203Y-79279999D01*
X132799991Y-79290500D01*
X134000008Y-79290499D01*
X134102797Y-79279999D01*
X134269334Y-79224814D01*
X134418656Y-79132712D01*
X134542712Y-79008656D01*
X134634814Y-78859334D01*
X134689999Y-78692797D01*
X134700500Y-78590009D01*
X134700499Y-77625450D01*
X134720183Y-77558412D01*
X134736813Y-77537775D01*
X141242772Y-71031819D01*
X141304095Y-70998334D01*
X141330453Y-70995500D01*
X147155501Y-70995500D01*
X147222540Y-71015185D01*
X147268295Y-71067989D01*
X147279501Y-71119500D01*
X147279501Y-71920018D01*
X147290000Y-72022796D01*
X147290001Y-72022799D01*
X147336819Y-72164084D01*
X147345186Y-72189334D01*
X147437288Y-72338656D01*
X147561344Y-72462712D01*
X147710666Y-72554814D01*
X147877203Y-72609999D01*
X147979991Y-72620500D01*
X151080008Y-72620499D01*
X151182797Y-72609999D01*
X151349334Y-72554814D01*
X151498656Y-72462712D01*
X151622712Y-72338656D01*
X151662344Y-72274402D01*
X151714291Y-72227679D01*
X151767882Y-72215500D01*
X154934960Y-72215500D01*
X155001999Y-72235185D01*
X155022641Y-72251819D01*
X157328640Y-74557819D01*
X157362125Y-74619142D01*
X157357141Y-74688834D01*
X157315269Y-74744767D01*
X157249805Y-74769184D01*
X157240961Y-74769500D01*
X157191972Y-74769500D01*
X157191965Y-74769500D01*
X157191964Y-74769501D01*
X157186351Y-74770000D01*
X157072584Y-74780113D01*
X156876954Y-74836089D01*
X156696587Y-74930305D01*
X156557963Y-75043338D01*
X156493567Y-75070447D01*
X156424737Y-75058437D01*
X156401242Y-75043338D01*
X156263129Y-74930721D01*
X156082861Y-74836557D01*
X155887328Y-74780609D01*
X155887325Y-74780608D01*
X155768000Y-74770000D01*
X154651999Y-74770000D01*
X154532674Y-74780608D01*
X154532671Y-74780609D01*
X154337138Y-74836557D01*
X154156870Y-74930721D01*
X154018757Y-75043338D01*
X153954361Y-75070447D01*
X153885531Y-75058438D01*
X153862035Y-75043338D01*
X153812258Y-75002750D01*
X153723407Y-74930302D01*
X153543049Y-74836091D01*
X153543048Y-74836090D01*
X153543045Y-74836089D01*
X153425829Y-74802550D01*
X153347418Y-74780114D01*
X153347415Y-74780113D01*
X153347413Y-74780113D01*
X153281102Y-74774217D01*
X153228037Y-74769500D01*
X153228032Y-74769500D01*
X152111971Y-74769500D01*
X152111965Y-74769500D01*
X152111964Y-74769501D01*
X152106351Y-74770000D01*
X151992584Y-74780113D01*
X151796954Y-74836089D01*
X151706772Y-74883196D01*
X151616593Y-74930302D01*
X151616591Y-74930303D01*
X151616590Y-74930304D01*
X151478361Y-75043015D01*
X151413964Y-75070124D01*
X151345135Y-75058115D01*
X151321639Y-75043015D01*
X151258385Y-74991438D01*
X151183407Y-74930302D01*
X151003049Y-74836091D01*
X151003048Y-74836090D01*
X151003045Y-74836089D01*
X150885829Y-74802550D01*
X150807418Y-74780114D01*
X150807415Y-74780113D01*
X150807413Y-74780113D01*
X150741102Y-74774217D01*
X150688037Y-74769500D01*
X150688032Y-74769500D01*
X149571971Y-74769500D01*
X149571965Y-74769500D01*
X149571964Y-74769501D01*
X149566351Y-74770000D01*
X149452584Y-74780113D01*
X149256954Y-74836089D01*
X149166772Y-74883196D01*
X149076593Y-74930302D01*
X149076591Y-74930303D01*
X149076590Y-74930304D01*
X148938361Y-75043015D01*
X148873964Y-75070124D01*
X148805135Y-75058115D01*
X148781639Y-75043015D01*
X148718385Y-74991438D01*
X148643407Y-74930302D01*
X148463049Y-74836091D01*
X148463048Y-74836090D01*
X148463045Y-74836089D01*
X148345829Y-74802550D01*
X148267418Y-74780114D01*
X148267415Y-74780113D01*
X148267413Y-74780113D01*
X148201102Y-74774217D01*
X148148037Y-74769500D01*
X148148032Y-74769500D01*
X147031971Y-74769500D01*
X147031965Y-74769500D01*
X147031964Y-74769501D01*
X147026351Y-74770000D01*
X146912584Y-74780113D01*
X146716954Y-74836089D01*
X146626772Y-74883196D01*
X146536593Y-74930302D01*
X146536591Y-74930303D01*
X146536590Y-74930304D01*
X146398361Y-75043015D01*
X146333964Y-75070124D01*
X146265135Y-75058115D01*
X146241639Y-75043015D01*
X146178385Y-74991438D01*
X146103407Y-74930302D01*
X145923049Y-74836091D01*
X145923048Y-74836090D01*
X145923045Y-74836089D01*
X145805829Y-74802550D01*
X145727418Y-74780114D01*
X145727415Y-74780113D01*
X145727413Y-74780113D01*
X145661102Y-74774217D01*
X145608037Y-74769500D01*
X145608032Y-74769500D01*
X144491971Y-74769500D01*
X144491965Y-74769500D01*
X144491964Y-74769501D01*
X144486351Y-74770000D01*
X144372584Y-74780113D01*
X144176954Y-74836089D01*
X144086772Y-74883196D01*
X143996593Y-74930302D01*
X143996591Y-74930303D01*
X143996590Y-74930304D01*
X143858361Y-75043015D01*
X143793964Y-75070124D01*
X143725135Y-75058115D01*
X143701639Y-75043015D01*
X143638385Y-74991438D01*
X143563407Y-74930302D01*
X143383049Y-74836091D01*
X143383048Y-74836090D01*
X143383045Y-74836089D01*
X143265829Y-74802550D01*
X143187418Y-74780114D01*
X143187415Y-74780113D01*
X143187413Y-74780113D01*
X143121102Y-74774217D01*
X143068037Y-74769500D01*
X143068032Y-74769500D01*
X141951971Y-74769500D01*
X141951965Y-74769500D01*
X141951964Y-74769501D01*
X141946351Y-74770000D01*
X141832584Y-74780113D01*
X141636954Y-74836089D01*
X141546772Y-74883196D01*
X141456593Y-74930302D01*
X141456591Y-74930303D01*
X141456590Y-74930304D01*
X141298890Y-75058890D01*
X141170304Y-75216590D01*
X141076089Y-75396954D01*
X141020114Y-75592583D01*
X141020113Y-75592586D01*
X141009500Y-75711966D01*
X141009500Y-77828028D01*
X141009501Y-77828034D01*
X141020113Y-77947415D01*
X141076089Y-78143045D01*
X141076090Y-78143048D01*
X141076091Y-78143049D01*
X141170302Y-78323407D01*
X141170304Y-78323409D01*
X141298890Y-78481109D01*
X141343149Y-78517197D01*
X141456593Y-78609698D01*
X141636951Y-78703909D01*
X141832582Y-78759886D01*
X141951963Y-78770500D01*
X142000959Y-78770499D01*
X142067996Y-78790182D01*
X142113752Y-78842985D01*
X142123697Y-78912144D01*
X142094674Y-78975700D01*
X142088640Y-78982180D01*
X136290729Y-84780093D01*
X136229406Y-84813578D01*
X136203048Y-84816412D01*
X133851889Y-84816412D01*
X133731055Y-84840447D01*
X133731045Y-84840450D01*
X133617216Y-84887599D01*
X133617207Y-84887604D01*
X133514767Y-84956053D01*
X133514763Y-84956056D01*
X133427644Y-85043175D01*
X133427641Y-85043179D01*
X133359192Y-85145619D01*
X133359187Y-85145628D01*
X133312038Y-85259457D01*
X133312035Y-85259467D01*
X133288000Y-85380301D01*
X133288000Y-90244902D01*
X133268315Y-90311941D01*
X133220296Y-90355386D01*
X133179476Y-90376185D01*
X133001141Y-90505752D01*
X133001136Y-90505756D01*
X132845256Y-90661636D01*
X132845252Y-90661641D01*
X132715687Y-90839974D01*
X132615604Y-91036393D01*
X132615603Y-91036396D01*
X132547485Y-91246047D01*
X132513000Y-91463778D01*
X132513000Y-91684221D01*
X132547485Y-91901954D01*
X132583300Y-92012183D01*
X132585295Y-92082024D01*
X132549214Y-92141856D01*
X132486513Y-92172684D01*
X132465369Y-92174500D01*
X115588393Y-92174500D01*
X115561203Y-92179908D01*
X115561202Y-92179907D01*
X115467555Y-92198535D01*
X115467543Y-92198538D01*
X115432174Y-92213188D01*
X115432138Y-92213204D01*
X115429875Y-92214142D01*
X115353715Y-92245688D01*
X115353714Y-92245689D01*
X115335559Y-92257819D01*
X115335552Y-92257823D01*
X115251268Y-92314140D01*
X115227909Y-92337500D01*
X115164142Y-92401267D01*
X115164139Y-92401270D01*
X114026879Y-93538529D01*
X113965556Y-93572014D01*
X113900881Y-93568779D01*
X113801371Y-93536447D01*
X113568097Y-93499500D01*
X113568092Y-93499500D01*
X113331908Y-93499500D01*
X113331903Y-93499500D01*
X113098631Y-93536446D01*
X112874003Y-93609433D01*
X112663566Y-93716657D01*
X112580505Y-93777005D01*
X112472490Y-93855483D01*
X112472488Y-93855485D01*
X112472487Y-93855485D01*
X112305485Y-94022487D01*
X112305485Y-94022488D01*
X112305483Y-94022490D01*
X112245862Y-94104550D01*
X112166657Y-94213566D01*
X112119155Y-94306795D01*
X112071180Y-94357591D01*
X112008670Y-94374500D01*
X108391330Y-94374500D01*
X108324291Y-94354815D01*
X108280845Y-94306795D01*
X108233342Y-94213566D01*
X108213035Y-94185616D01*
X108094517Y-94022490D01*
X107927510Y-93855483D01*
X107736433Y-93716657D01*
X107674026Y-93684859D01*
X107525996Y-93609433D01*
X107301368Y-93536446D01*
X107068097Y-93499500D01*
X107068092Y-93499500D01*
X106831908Y-93499500D01*
X106831903Y-93499500D01*
X106598631Y-93536446D01*
X106374003Y-93609433D01*
X106163567Y-93716656D01*
X106079969Y-93777394D01*
X106048862Y-93788492D01*
X106018141Y-93800581D01*
X106015393Y-93800433D01*
X106014162Y-93800873D01*
X105982904Y-93798693D01*
X105982896Y-93798693D01*
X105969109Y-93795951D01*
X105969109Y-93795950D01*
X105969105Y-93795950D01*
X105924111Y-93787000D01*
X105924107Y-93787000D01*
X105924106Y-93787000D01*
X102627088Y-93787000D01*
X102560049Y-93767315D01*
X102533124Y-93743912D01*
X102526709Y-93736462D01*
X102492712Y-93681344D01*
X102395778Y-93584410D01*
X102392766Y-93580912D01*
X102380180Y-93553126D01*
X102365564Y-93526358D01*
X102365903Y-93521606D01*
X102363938Y-93517266D01*
X102368372Y-93487090D01*
X102370548Y-93456666D01*
X102373523Y-93452036D01*
X102374096Y-93448139D01*
X102381444Y-93439711D01*
X102399049Y-93412319D01*
X102445628Y-93365740D01*
X102492712Y-93318656D01*
X102584814Y-93169334D01*
X102639999Y-93002797D01*
X102650500Y-92900009D01*
X102650499Y-92274992D01*
X102639999Y-92172203D01*
X102584814Y-92005666D01*
X102492712Y-91856344D01*
X102368656Y-91732288D01*
X102219334Y-91640186D01*
X102052797Y-91585001D01*
X102052795Y-91585000D01*
X101950010Y-91574500D01*
X100949998Y-91574500D01*
X100949980Y-91574501D01*
X100847203Y-91585000D01*
X100847200Y-91585001D01*
X100680668Y-91640185D01*
X100680663Y-91640187D01*
X100531342Y-91732289D01*
X100407289Y-91856342D01*
X100315187Y-92005663D01*
X100315186Y-92005666D01*
X100260001Y-92172203D01*
X100260001Y-92172204D01*
X100260000Y-92172204D01*
X100249500Y-92274983D01*
X100249500Y-92852046D01*
X100229815Y-92919085D01*
X100213181Y-92939727D01*
X100065436Y-93087473D01*
X100025270Y-93127639D01*
X100025267Y-93127642D01*
X99983578Y-93169331D01*
X99938142Y-93214766D01*
X99911719Y-93254312D01*
X99911718Y-93254313D01*
X99869690Y-93317209D01*
X99869685Y-93317218D01*
X99822540Y-93431038D01*
X99822537Y-93431047D01*
X99801574Y-93536443D01*
X99801572Y-93536449D01*
X99798500Y-93551889D01*
X99798500Y-94982120D01*
X99807619Y-95027971D01*
X99822535Y-95102960D01*
X99822538Y-95102970D01*
X99825653Y-95110489D01*
X99830207Y-95121483D01*
X99869688Y-95216800D01*
X99886430Y-95241855D01*
X99891388Y-95249276D01*
X99891391Y-95249281D01*
X99938140Y-95319245D01*
X99938141Y-95319246D01*
X99938142Y-95319247D01*
X100025267Y-95406372D01*
X100025268Y-95406372D01*
X100032335Y-95413439D01*
X100032334Y-95413439D01*
X100032337Y-95413441D01*
X101343627Y-96724732D01*
X101343628Y-96724733D01*
X101430752Y-96811857D01*
X101430754Y-96811859D01*
X101533193Y-96880307D01*
X101533197Y-96880309D01*
X101533200Y-96880311D01*
X101647034Y-96927463D01*
X101707457Y-96939481D01*
X101767879Y-96951500D01*
X140532121Y-96951500D01*
X140592543Y-96939481D01*
X140652966Y-96927463D01*
X140686306Y-96913652D01*
X140766800Y-96880312D01*
X140818023Y-96846084D01*
X140869247Y-96811858D01*
X140956372Y-96724733D01*
X140956373Y-96724731D01*
X140963439Y-96717665D01*
X140963442Y-96717661D01*
X143894992Y-93786110D01*
X143956313Y-93752627D01*
X144021675Y-93756087D01*
X144084802Y-93777005D01*
X144084809Y-93777006D01*
X144187519Y-93787499D01*
X144750000Y-93787499D01*
X144812472Y-93787499D01*
X144812486Y-93787498D01*
X144915197Y-93777005D01*
X145081619Y-93721858D01*
X145081624Y-93721856D01*
X145230845Y-93629815D01*
X145354815Y-93505845D01*
X145446856Y-93356624D01*
X145446858Y-93356619D01*
X145502005Y-93190197D01*
X145502006Y-93190190D01*
X145512499Y-93087486D01*
X145512500Y-93087473D01*
X145512500Y-92837500D01*
X144750000Y-92837500D01*
X144750000Y-93787499D01*
X144187519Y-93787499D01*
X144249999Y-93787498D01*
X144250000Y-93787498D01*
X144250000Y-92337500D01*
X144750000Y-92337500D01*
X145512499Y-92337500D01*
X145512499Y-92087528D01*
X145512498Y-92087513D01*
X145502005Y-91984802D01*
X145446858Y-91818380D01*
X145446856Y-91818375D01*
X145354815Y-91669154D01*
X145230845Y-91545184D01*
X145081624Y-91453143D01*
X145081619Y-91453141D01*
X144915197Y-91397994D01*
X144915190Y-91397993D01*
X144812486Y-91387500D01*
X144750000Y-91387500D01*
X144750000Y-92337500D01*
X144250000Y-92337500D01*
X144250000Y-91403183D01*
X144195100Y-91367257D01*
X144172707Y-91340977D01*
X144150206Y-91315010D01*
X144150077Y-91314420D01*
X144149784Y-91314076D01*
X144149423Y-91311413D01*
X144139000Y-91263499D01*
X144139000Y-86975827D01*
X144158685Y-86908788D01*
X144211489Y-86863033D01*
X144223988Y-86858123D01*
X144294334Y-86834814D01*
X144443656Y-86742712D01*
X144567712Y-86618656D01*
X144588839Y-86584402D01*
X144640787Y-86537679D01*
X144694378Y-86525500D01*
X145805622Y-86525500D01*
X145872661Y-86545185D01*
X145911159Y-86584401D01*
X145932288Y-86618656D01*
X146056344Y-86742712D01*
X146205666Y-86834814D01*
X146372203Y-86889999D01*
X146474991Y-86900500D01*
X147525008Y-86900499D01*
X147525016Y-86900498D01*
X147525019Y-86900498D01*
X147581302Y-86894748D01*
X147627797Y-86889999D01*
X147794334Y-86834814D01*
X147943656Y-86742712D01*
X148067712Y-86618656D01*
X148159814Y-86469334D01*
X148214999Y-86302797D01*
X148225500Y-86200009D01*
X148225499Y-85610452D01*
X148245183Y-85543414D01*
X148261818Y-85522772D01*
X149735855Y-84048736D01*
X149735855Y-84048735D01*
X149735858Y-84048733D01*
X149804312Y-83946285D01*
X149851463Y-83832451D01*
X149875501Y-83711606D01*
X149875501Y-83588393D01*
X149875501Y-83583283D01*
X149875500Y-83583257D01*
X149875500Y-82560452D01*
X149895185Y-82493413D01*
X149911819Y-82472771D01*
X153155854Y-79228737D01*
X153155854Y-79228736D01*
X153155857Y-79228734D01*
X153158477Y-79224814D01*
X153158486Y-79224801D01*
X153224307Y-79126292D01*
X153224307Y-79126291D01*
X153224311Y-79126286D01*
X153271463Y-79012452D01*
X153283481Y-78952029D01*
X153295500Y-78891607D01*
X153295500Y-78860000D01*
X153296588Y-78851843D01*
X153307569Y-78827133D01*
X153315185Y-78801197D01*
X153321544Y-78795686D01*
X153324963Y-78787994D01*
X153347559Y-78773144D01*
X153367989Y-78755442D01*
X153382834Y-78749962D01*
X153383353Y-78749622D01*
X153383769Y-78749617D01*
X153385375Y-78749025D01*
X153543049Y-78703909D01*
X153723407Y-78609698D01*
X153862037Y-78496660D01*
X153926431Y-78469552D01*
X153995261Y-78481561D01*
X154018757Y-78496661D01*
X154156870Y-78609278D01*
X154337138Y-78703442D01*
X154532671Y-78759390D01*
X154532674Y-78759391D01*
X154651999Y-78769999D01*
X154652002Y-78770000D01*
X155767998Y-78770000D01*
X155768000Y-78769999D01*
X155887325Y-78759391D01*
X155887328Y-78759390D01*
X156082861Y-78703442D01*
X156263130Y-78609278D01*
X156401241Y-78496662D01*
X156465637Y-78469552D01*
X156534467Y-78481561D01*
X156557964Y-78496661D01*
X156696593Y-78609698D01*
X156876951Y-78703909D01*
X157072582Y-78759886D01*
X157191963Y-78770500D01*
X158308036Y-78770499D01*
X158315520Y-78769833D01*
X158384036Y-78783502D01*
X158434288Y-78832046D01*
X158450500Y-78893346D01*
X158450500Y-80413547D01*
X158430815Y-80480586D01*
X158414181Y-80501228D01*
X152353135Y-86562273D01*
X152353127Y-86562281D01*
X152350270Y-86565139D01*
X152350267Y-86565142D01*
X152263142Y-86652267D01*
X152232306Y-86698417D01*
X152227794Y-86705168D01*
X152227789Y-86705175D01*
X152194688Y-86754712D01*
X152177747Y-86795613D01*
X152165767Y-86824536D01*
X152147539Y-86868541D01*
X152147535Y-86868555D01*
X152123500Y-86989389D01*
X152123500Y-86989394D01*
X152123500Y-93137393D01*
X152123500Y-93260607D01*
X152128523Y-93285858D01*
X152147537Y-93381452D01*
X152161347Y-93414792D01*
X152164586Y-93422612D01*
X152164588Y-93422619D01*
X152194685Y-93495281D01*
X152194690Y-93495290D01*
X152214209Y-93524501D01*
X152214210Y-93524502D01*
X152263140Y-93597731D01*
X152263141Y-93597732D01*
X152263142Y-93597733D01*
X152350267Y-93684858D01*
X152350268Y-93684858D01*
X152357335Y-93691925D01*
X152357334Y-93691925D01*
X152357338Y-93691928D01*
X152541259Y-93875850D01*
X152574744Y-93937173D01*
X152576937Y-93976128D01*
X152574500Y-93999989D01*
X152574500Y-94800001D01*
X152574501Y-94800019D01*
X152585000Y-94902796D01*
X152585001Y-94902799D01*
X152640185Y-95069331D01*
X152640187Y-95069336D01*
X152660930Y-95102966D01*
X152732288Y-95218656D01*
X152856344Y-95342712D01*
X153005666Y-95434814D01*
X153172203Y-95489999D01*
X153274991Y-95500500D01*
X154625008Y-95500499D01*
X154727797Y-95489999D01*
X154894334Y-95434814D01*
X155043656Y-95342712D01*
X155167712Y-95218656D01*
X155259814Y-95069334D01*
X155314999Y-94902797D01*
X155325500Y-94800009D01*
X155325499Y-93999992D01*
X155314999Y-93897203D01*
X155259814Y-93730666D01*
X155167712Y-93581344D01*
X155043656Y-93457288D01*
X155043652Y-93457285D01*
X154979456Y-93417688D01*
X154932731Y-93365740D01*
X154921510Y-93296777D01*
X154949353Y-93232695D01*
X154956850Y-93224491D01*
X155064414Y-93116928D01*
X155166232Y-92976788D01*
X155244873Y-92822445D01*
X155298402Y-92657701D01*
X155325500Y-92486611D01*
X155325500Y-92313389D01*
X155298402Y-92142299D01*
X155244873Y-91977555D01*
X155166232Y-91823212D01*
X155064414Y-91683072D01*
X154941928Y-91560586D01*
X154801788Y-91458768D01*
X154789849Y-91452685D01*
X154643205Y-91377966D01*
X154592409Y-91329991D01*
X154575500Y-91267481D01*
X154575500Y-87956966D01*
X154595185Y-87889927D01*
X154611819Y-87869285D01*
X154656371Y-87824733D01*
X155509748Y-86971356D01*
X159925729Y-82555374D01*
X159925733Y-82555372D01*
X160012858Y-82468247D01*
X160047084Y-82417023D01*
X160081312Y-82365800D01*
X160128463Y-82251965D01*
X160152500Y-82131121D01*
X160152500Y-82007907D01*
X160152500Y-73407121D01*
X160152500Y-73407120D01*
X160152500Y-73407118D01*
X160152499Y-73407116D01*
X160145974Y-73374312D01*
X160128463Y-73286275D01*
X160081311Y-73172441D01*
X160081310Y-73172440D01*
X160081307Y-73172434D01*
X160012859Y-73069995D01*
X160012858Y-73069994D01*
X159925733Y-72982869D01*
X159925732Y-72982868D01*
X157807819Y-70864955D01*
X157774334Y-70803632D01*
X157771500Y-70777274D01*
X157771500Y-70487916D01*
X157791185Y-70420877D01*
X157843989Y-70375122D01*
X157913147Y-70365178D01*
X157976703Y-70394203D01*
X157983181Y-70400235D01*
X158000500Y-70417554D01*
X158000505Y-70417558D01*
X158097346Y-70487916D01*
X158147006Y-70523996D01*
X158251650Y-70577315D01*
X158308360Y-70606211D01*
X158308363Y-70606212D01*
X158394476Y-70634191D01*
X158480591Y-70662171D01*
X158558648Y-70674534D01*
X158659449Y-70690500D01*
X158659454Y-70690500D01*
X158840551Y-70690500D01*
X158927259Y-70676765D01*
X159019409Y-70662171D01*
X159191639Y-70606211D01*
X159352994Y-70523996D01*
X159499501Y-70417553D01*
X159627553Y-70289501D01*
X159733996Y-70142994D01*
X159816211Y-69981639D01*
X159872171Y-69809409D01*
X159886765Y-69717259D01*
X159900500Y-69630551D01*
X159900500Y-69449448D01*
X159874237Y-69283638D01*
X159872171Y-69270591D01*
X159837792Y-69164781D01*
X159816212Y-69098363D01*
X159816211Y-69098360D01*
X159777696Y-69022771D01*
X159733996Y-68937006D01*
X159720396Y-68918287D01*
X159627558Y-68790505D01*
X159627554Y-68790500D01*
X159499499Y-68662445D01*
X159499494Y-68662441D01*
X159352997Y-68556006D01*
X159352996Y-68556005D01*
X159352994Y-68556004D01*
X159301300Y-68529664D01*
X159191639Y-68473788D01*
X159191636Y-68473787D01*
X159019410Y-68417829D01*
X158859321Y-68392473D01*
X158796186Y-68362544D01*
X158759255Y-68303232D01*
X158760253Y-68233370D01*
X158798863Y-68175137D01*
X158859321Y-68147527D01*
X158929425Y-68136422D01*
X159019409Y-68122171D01*
X159191639Y-68066211D01*
X159352994Y-67983996D01*
X159499501Y-67877553D01*
X159627553Y-67749501D01*
X159733996Y-67602994D01*
X159816211Y-67441639D01*
X159872171Y-67269409D01*
X159895652Y-67121158D01*
X159900500Y-67090551D01*
X159900500Y-66909448D01*
X159880437Y-66782781D01*
X159872171Y-66730591D01*
X159841331Y-66635673D01*
X159816212Y-66558363D01*
X159816211Y-66558360D01*
X159781686Y-66490602D01*
X159733996Y-66397006D01*
X159665610Y-66302880D01*
X159627558Y-66250505D01*
X159627554Y-66250500D01*
X159499497Y-66122443D01*
X159499494Y-66122441D01*
X159352997Y-66016006D01*
X159352996Y-66016005D01*
X159352994Y-66016004D01*
X159301300Y-65989664D01*
X159191639Y-65933788D01*
X159191636Y-65933787D01*
X159019410Y-65877829D01*
X158840551Y-65849500D01*
X158840546Y-65849500D01*
X158659454Y-65849500D01*
X158659449Y-65849500D01*
X158480589Y-65877829D01*
X158308363Y-65933787D01*
X158308360Y-65933788D01*
X158147002Y-66016006D01*
X158000506Y-66122440D01*
X157935346Y-66187600D01*
X157910997Y-66200894D01*
X157888434Y-66217024D01*
X157880762Y-66217403D01*
X157874022Y-66221084D01*
X157846359Y-66219105D01*
X157818650Y-66220476D01*
X157811989Y-66216646D01*
X157804331Y-66216099D01*
X157782127Y-66199477D01*
X157758078Y-66185651D01*
X157752753Y-66177489D01*
X157748397Y-66174228D01*
X157737553Y-66156938D01*
X157735128Y-66152255D01*
X157722781Y-66122447D01*
X157700312Y-66068200D01*
X157665435Y-66016004D01*
X157661599Y-66010263D01*
X157661597Y-66010259D01*
X157631861Y-65965757D01*
X157631855Y-65965749D01*
X157541637Y-65875531D01*
X157541606Y-65875502D01*
X156520931Y-64854827D01*
X156513374Y-64847270D01*
X156513372Y-64847267D01*
X156426247Y-64760142D01*
X156366184Y-64720009D01*
X156347736Y-64707682D01*
X156323799Y-64691687D01*
X156284336Y-64675342D01*
X156243306Y-64658347D01*
X156209966Y-64644537D01*
X156149543Y-64632518D01*
X156144820Y-64631578D01*
X156144818Y-64631578D01*
X156089124Y-64620500D01*
X156089121Y-64620500D01*
X156089120Y-64620500D01*
X153704500Y-64620500D01*
X153637461Y-64600815D01*
X153591706Y-64548011D01*
X153580500Y-64496500D01*
X153580499Y-62819998D01*
X153580498Y-62819981D01*
X153569999Y-62717203D01*
X153569998Y-62717200D01*
X153514814Y-62550666D01*
X153514810Y-62550659D01*
X153428419Y-62410596D01*
X153428158Y-62409642D01*
X153427433Y-62408970D01*
X153418958Y-62376021D01*
X153409979Y-62343204D01*
X153410275Y-62342260D01*
X153410029Y-62341303D01*
X153420716Y-62308991D01*
X153430902Y-62276540D01*
X153431660Y-62275907D01*
X153431971Y-62274968D01*
X153458418Y-62253575D01*
X153484544Y-62231771D01*
X153485779Y-62231443D01*
X153486294Y-62231027D01*
X153490560Y-62230174D01*
X153520475Y-62222235D01*
X153527195Y-62221500D01*
X153581019Y-62221500D01*
X153641441Y-62209481D01*
X153701864Y-62197463D01*
X153701867Y-62197461D01*
X153701870Y-62197461D01*
X153735199Y-62183654D01*
X153735198Y-62183654D01*
X153735204Y-62183652D01*
X153815698Y-62150312D01*
X153866921Y-62116084D01*
X153918145Y-62081858D01*
X154005270Y-61994733D01*
X154005270Y-61994731D01*
X154015478Y-61984524D01*
X154015480Y-61984521D01*
X154253569Y-61746431D01*
X154314890Y-61712948D01*
X154375355Y-61714897D01*
X154532582Y-61759886D01*
X154651963Y-61770500D01*
X155768036Y-61770499D01*
X155887418Y-61759886D01*
X156083049Y-61703909D01*
X156263407Y-61609698D01*
X156401640Y-61496983D01*
X156466035Y-61469875D01*
X156534865Y-61481884D01*
X156558357Y-61496981D01*
X156696593Y-61609698D01*
X156876951Y-61703909D01*
X157072582Y-61759886D01*
X157191963Y-61770500D01*
X158308036Y-61770499D01*
X158427418Y-61759886D01*
X158623049Y-61703909D01*
X158803407Y-61609698D01*
X158961109Y-61481109D01*
X159089698Y-61323407D01*
X159183909Y-61143049D01*
X159239886Y-60947418D01*
X159250500Y-60828037D01*
X159250499Y-58711964D01*
X159239886Y-58592582D01*
X159183909Y-58396951D01*
X159089698Y-58216593D01*
X158986972Y-58090609D01*
X158961109Y-58058890D01*
X158836330Y-57957147D01*
X158803407Y-57930302D01*
X158623049Y-57836091D01*
X158623048Y-57836090D01*
X158623045Y-57836089D01*
X158505829Y-57802550D01*
X158427418Y-57780114D01*
X158427415Y-57780113D01*
X158427413Y-57780113D01*
X158354631Y-57773642D01*
X158308037Y-57769500D01*
X158308033Y-57769500D01*
X158185453Y-57769500D01*
X158118414Y-57749815D01*
X158097772Y-57733181D01*
X154099950Y-53735360D01*
X154089859Y-53725269D01*
X154089858Y-53725267D01*
X154002733Y-53638142D01*
X153947546Y-53601267D01*
X153900286Y-53569688D01*
X153893265Y-53566780D01*
X153881679Y-53561981D01*
X153819792Y-53536347D01*
X153786452Y-53522537D01*
X153726029Y-53510518D01*
X153721306Y-53509578D01*
X153721304Y-53509578D01*
X153665610Y-53498500D01*
X153665607Y-53498500D01*
X153665606Y-53498500D01*
X129453504Y-53498500D01*
X129330290Y-53498500D01*
X129330286Y-53498500D01*
X129274594Y-53509578D01*
X129269868Y-53510518D01*
X129232156Y-53518019D01*
X129209447Y-53522536D01*
X129209445Y-53522537D01*
X129176104Y-53536347D01*
X129095615Y-53569685D01*
X129095606Y-53569690D01*
X129054771Y-53596976D01*
X129054765Y-53596981D01*
X129048351Y-53601267D01*
X128993164Y-53638142D01*
X128906039Y-53725267D01*
X128906036Y-53725270D01*
X128902883Y-53728422D01*
X128902876Y-53728429D01*
X126778125Y-55853181D01*
X126716802Y-55886666D01*
X126690444Y-55889500D01*
X126035452Y-55889500D01*
X125968413Y-55869815D01*
X125947771Y-55853181D01*
X125061819Y-54967229D01*
X125028334Y-54905906D01*
X125025500Y-54879548D01*
X125025500Y-54542350D01*
X125045185Y-54475311D01*
X125046398Y-54473459D01*
X125073074Y-54433535D01*
X125109394Y-54379179D01*
X125169737Y-54233497D01*
X125200500Y-54078842D01*
X125200500Y-53921158D01*
X125200500Y-53921155D01*
X125200499Y-53921153D01*
X125169738Y-53766510D01*
X125169737Y-53766503D01*
X125156837Y-53735360D01*
X125109397Y-53620827D01*
X125109390Y-53620814D01*
X125021789Y-53489711D01*
X125021786Y-53489707D01*
X124910292Y-53378213D01*
X124910288Y-53378210D01*
X124779185Y-53290609D01*
X124779172Y-53290602D01*
X124633501Y-53230264D01*
X124633489Y-53230261D01*
X124478845Y-53199500D01*
X124478842Y-53199500D01*
X124321158Y-53199500D01*
X124321155Y-53199500D01*
X124166510Y-53230261D01*
X124166498Y-53230264D01*
X124020827Y-53290602D01*
X124020814Y-53290609D01*
X123889711Y-53378210D01*
X123889707Y-53378213D01*
X123778213Y-53489707D01*
X123778210Y-53489711D01*
X123702602Y-53602866D01*
X123648989Y-53647671D01*
X123579664Y-53656378D01*
X123516637Y-53626223D01*
X123479918Y-53566780D01*
X123475500Y-53533975D01*
X123475500Y-52467519D01*
X123495185Y-52400480D01*
X123496398Y-52398628D01*
X123509394Y-52379179D01*
X123569737Y-52233497D01*
X123600500Y-52078842D01*
X123600500Y-51921158D01*
X123600500Y-51921155D01*
X123600499Y-51921153D01*
X123569738Y-51766510D01*
X123569737Y-51766503D01*
X123569735Y-51766498D01*
X123509397Y-51620827D01*
X123509390Y-51620814D01*
X123421789Y-51489711D01*
X123421786Y-51489707D01*
X123310292Y-51378213D01*
X123310288Y-51378210D01*
X123179185Y-51290609D01*
X123179172Y-51290602D01*
X123033501Y-51230264D01*
X123033489Y-51230261D01*
X122878845Y-51199500D01*
X122878842Y-51199500D01*
X122721158Y-51199500D01*
X122721155Y-51199500D01*
X122566510Y-51230261D01*
X122566498Y-51230264D01*
X122420827Y-51290602D01*
X122420814Y-51290609D01*
X122289711Y-51378210D01*
X122289707Y-51378213D01*
X122178213Y-51489707D01*
X122178210Y-51489711D01*
X122090609Y-51620814D01*
X122090602Y-51620827D01*
X122030264Y-51766498D01*
X122030261Y-51766510D01*
X121999500Y-51921153D01*
X121999500Y-52078846D01*
X122030261Y-52233489D01*
X122030264Y-52233501D01*
X122090602Y-52379172D01*
X122090609Y-52379185D01*
X122178210Y-52510288D01*
X122178212Y-52510291D01*
X122188178Y-52520256D01*
X122221665Y-52581578D01*
X122224500Y-52607940D01*
X122224500Y-55784845D01*
X122204815Y-55851884D01*
X122152011Y-55897639D01*
X122139505Y-55902551D01*
X121980666Y-55955186D01*
X121980663Y-55955187D01*
X121831342Y-56047289D01*
X121707289Y-56171342D01*
X121615187Y-56320663D01*
X121615185Y-56320668D01*
X121599566Y-56367802D01*
X121562551Y-56479506D01*
X121522781Y-56536949D01*
X121458265Y-56563772D01*
X121444847Y-56564500D01*
X111871612Y-56564500D01*
X111871607Y-56564499D01*
X111748394Y-56564499D01*
X111663635Y-56581359D01*
X111656586Y-56582760D01*
X111656586Y-56582761D01*
X111627546Y-56588537D01*
X111627543Y-56588538D01*
X111596341Y-56601463D01*
X111513721Y-56635684D01*
X111513708Y-56635691D01*
X111411267Y-56704141D01*
X111411263Y-56704144D01*
X103577229Y-64538181D01*
X103515906Y-64571666D01*
X103489548Y-64574500D01*
X91412981Y-64574500D01*
X91345942Y-64554815D01*
X91302497Y-64506797D01*
X91295049Y-64492180D01*
X91170109Y-64320213D01*
X91019786Y-64169890D01*
X90847820Y-64044951D01*
X90658414Y-63948444D01*
X90658413Y-63948443D01*
X90658412Y-63948443D01*
X90456243Y-63882754D01*
X90456241Y-63882753D01*
X90456240Y-63882753D01*
X90294957Y-63857208D01*
X90246287Y-63849500D01*
X90033713Y-63849500D01*
X89985042Y-63857208D01*
X89823760Y-63882753D01*
X89621585Y-63948444D01*
X89432179Y-64044951D01*
X89260213Y-64169890D01*
X89109890Y-64320213D01*
X88984951Y-64492179D01*
X88888444Y-64681585D01*
X88888443Y-64681587D01*
X88888443Y-64681588D01*
X88875962Y-64720001D01*
X88822753Y-64883760D01*
X88789500Y-65093713D01*
X88789500Y-65306286D01*
X88818812Y-65491359D01*
X88822754Y-65516243D01*
X88877865Y-65685857D01*
X88888444Y-65718414D01*
X88984951Y-65907820D01*
X89109890Y-66079786D01*
X89260213Y-66230109D01*
X89432179Y-66355048D01*
X89432181Y-66355049D01*
X89432184Y-66355051D01*
X89621588Y-66451557D01*
X89823757Y-66517246D01*
X90033713Y-66550500D01*
X90033714Y-66550500D01*
X90246286Y-66550500D01*
X90246287Y-66550500D01*
X90456243Y-66517246D01*
X90658412Y-66451557D01*
X90847816Y-66355051D01*
X90919624Y-66302880D01*
X91019786Y-66230109D01*
X91019788Y-66230106D01*
X91019792Y-66230104D01*
X91170104Y-66079792D01*
X91170106Y-66079788D01*
X91170109Y-66079786D01*
X91295049Y-65907819D01*
X91302497Y-65893203D01*
X91350473Y-65842408D01*
X91412981Y-65825500D01*
X103861608Y-65825500D01*
X103861608Y-65825499D01*
X103938652Y-65810175D01*
X103982452Y-65801463D01*
X104015792Y-65787652D01*
X104096286Y-65754312D01*
X104147509Y-65720084D01*
X104150009Y-65718414D01*
X104160271Y-65711556D01*
X104198733Y-65685858D01*
X104285858Y-65598733D01*
X104285858Y-65598731D01*
X104296066Y-65588524D01*
X104296067Y-65588521D01*
X112032772Y-57851819D01*
X112094095Y-57818334D01*
X112120453Y-57815500D01*
X116461596Y-57815500D01*
X116528635Y-57835185D01*
X116574390Y-57887989D01*
X116584334Y-57957147D01*
X116555309Y-58020703D01*
X116509048Y-58054061D01*
X116420827Y-58090602D01*
X116420814Y-58090609D01*
X116289711Y-58178210D01*
X116289707Y-58178213D01*
X116178213Y-58289707D01*
X116178210Y-58289711D01*
X116090609Y-58420814D01*
X116090602Y-58420827D01*
X116030264Y-58566498D01*
X116030261Y-58566510D01*
X115999500Y-58721153D01*
X115999500Y-58878846D01*
X116030261Y-59033489D01*
X116030264Y-59033501D01*
X116090602Y-59179172D01*
X116090609Y-59179184D01*
X116153602Y-59273459D01*
X116174480Y-59340136D01*
X116174500Y-59342350D01*
X116174500Y-64089548D01*
X116154815Y-64156587D01*
X116138181Y-64177229D01*
X115777229Y-64538181D01*
X115715906Y-64571666D01*
X115689548Y-64574500D01*
X114272981Y-64574500D01*
X114205942Y-64554815D01*
X114162497Y-64506797D01*
X114155049Y-64492180D01*
X114030109Y-64320213D01*
X113879786Y-64169890D01*
X113707820Y-64044951D01*
X113518414Y-63948444D01*
X113518413Y-63948443D01*
X113518412Y-63948443D01*
X113316243Y-63882754D01*
X113316241Y-63882753D01*
X113316240Y-63882753D01*
X113154957Y-63857208D01*
X113106287Y-63849500D01*
X112893713Y-63849500D01*
X112845042Y-63857208D01*
X112683760Y-63882753D01*
X112481585Y-63948444D01*
X112292179Y-64044951D01*
X112120213Y-64169890D01*
X111969890Y-64320213D01*
X111844951Y-64492179D01*
X111748444Y-64681585D01*
X111748443Y-64681587D01*
X111748443Y-64681588D01*
X111735962Y-64720001D01*
X111682753Y-64883760D01*
X111649500Y-65093713D01*
X111649500Y-65306286D01*
X111678812Y-65491359D01*
X111682754Y-65516243D01*
X111737865Y-65685857D01*
X111748444Y-65718414D01*
X111844951Y-65907820D01*
X111969890Y-66079786D01*
X112120213Y-66230109D01*
X112292179Y-66355048D01*
X112292181Y-66355049D01*
X112292184Y-66355051D01*
X112481588Y-66451557D01*
X112683757Y-66517246D01*
X112893713Y-66550500D01*
X112893714Y-66550500D01*
X113106286Y-66550500D01*
X113106287Y-66550500D01*
X113316243Y-66517246D01*
X113518412Y-66451557D01*
X113707816Y-66355051D01*
X113779624Y-66302880D01*
X113879786Y-66230109D01*
X113879788Y-66230106D01*
X113879792Y-66230104D01*
X114030104Y-66079792D01*
X114030106Y-66079788D01*
X114030109Y-66079786D01*
X114155049Y-65907819D01*
X114162497Y-65893203D01*
X114210473Y-65842408D01*
X114272981Y-65825500D01*
X115884846Y-65825500D01*
X115951885Y-65845185D01*
X115972527Y-65861819D01*
X118770378Y-68659670D01*
X118803863Y-68720993D01*
X118798879Y-68790685D01*
X118770378Y-68835032D01*
X116623229Y-70982181D01*
X116561906Y-71015666D01*
X116535548Y-71018500D01*
X91254392Y-71018500D01*
X91235238Y-71022310D01*
X91216084Y-71026120D01*
X91149964Y-71039271D01*
X91133547Y-71042537D01*
X91133543Y-71042538D01*
X91111643Y-71051610D01*
X91019713Y-71089688D01*
X91019708Y-71089690D01*
X90917272Y-71158138D01*
X90917266Y-71158143D01*
X90830139Y-71245270D01*
X90597837Y-71477571D01*
X90536514Y-71511056D01*
X90471838Y-71507821D01*
X90464219Y-71505345D01*
X90456241Y-71502753D01*
X90285797Y-71475757D01*
X90246287Y-71469500D01*
X90033713Y-71469500D01*
X89985042Y-71477208D01*
X89823760Y-71502753D01*
X89621585Y-71568444D01*
X89432179Y-71664951D01*
X89260213Y-71789890D01*
X89109890Y-71940213D01*
X88984951Y-72112179D01*
X88888444Y-72301585D01*
X88888443Y-72301587D01*
X88888443Y-72301588D01*
X88875316Y-72341989D01*
X88822753Y-72503760D01*
X88789500Y-72713713D01*
X88789500Y-72926287D01*
X88822754Y-73136243D01*
X88877865Y-73305857D01*
X88888444Y-73338414D01*
X88984951Y-73527820D01*
X89109890Y-73699786D01*
X89260213Y-73850109D01*
X89432179Y-73975048D01*
X89432181Y-73975049D01*
X89432184Y-73975051D01*
X89621588Y-74071557D01*
X89823757Y-74137246D01*
X90033713Y-74170500D01*
X90033714Y-74170500D01*
X90246286Y-74170500D01*
X90246287Y-74170500D01*
X90456243Y-74137246D01*
X90658412Y-74071557D01*
X90847816Y-73975051D01*
X90869789Y-73959086D01*
X91019786Y-73850109D01*
X91019788Y-73850106D01*
X91019792Y-73850104D01*
X91170104Y-73699792D01*
X91170106Y-73699788D01*
X91170109Y-73699786D01*
X91295048Y-73527820D01*
X91295049Y-73527819D01*
X91295051Y-73527816D01*
X91391557Y-73338412D01*
X91457246Y-73136243D01*
X91490500Y-72926287D01*
X91490500Y-72713713D01*
X91457246Y-72503757D01*
X91452178Y-72488162D01*
X91451743Y-72472947D01*
X91446425Y-72458686D01*
X91450765Y-72438734D01*
X91450182Y-72418324D01*
X91458270Y-72404235D01*
X91461278Y-72390413D01*
X91482424Y-72362164D01*
X91538773Y-72305817D01*
X91600097Y-72272333D01*
X91626453Y-72269500D01*
X111588198Y-72269500D01*
X111655237Y-72289185D01*
X111700992Y-72341989D01*
X111710936Y-72411147D01*
X111706130Y-72431812D01*
X111692765Y-72472947D01*
X111682753Y-72503760D01*
X111649500Y-72713713D01*
X111649500Y-72926287D01*
X111682754Y-73136243D01*
X111737865Y-73305857D01*
X111748444Y-73338414D01*
X111844951Y-73527820D01*
X111969890Y-73699786D01*
X112120213Y-73850109D01*
X112292179Y-73975048D01*
X112292181Y-73975049D01*
X112292184Y-73975051D01*
X112481588Y-74071557D01*
X112683757Y-74137246D01*
X112893713Y-74170500D01*
X112893714Y-74170500D01*
X113106286Y-74170500D01*
X113106287Y-74170500D01*
X113316243Y-74137246D01*
X113518412Y-74071557D01*
X113707816Y-73975051D01*
X113729789Y-73959086D01*
X113879786Y-73850109D01*
X113879788Y-73850106D01*
X113879792Y-73850104D01*
X114030104Y-73699792D01*
X114030106Y-73699788D01*
X114030109Y-73699786D01*
X114155049Y-73527819D01*
X114162497Y-73513203D01*
X114210473Y-73462408D01*
X114272981Y-73445500D01*
X129054012Y-73445500D01*
X129114434Y-73433481D01*
X129174857Y-73421463D01*
X129209484Y-73407120D01*
X129288691Y-73374312D01*
X129339914Y-73340084D01*
X129391138Y-73305858D01*
X129478263Y-73218733D01*
X129478264Y-73218731D01*
X129485330Y-73211665D01*
X129485333Y-73211661D01*
X131374729Y-71322265D01*
X131374733Y-71322263D01*
X131461858Y-71235138D01*
X131513305Y-71158142D01*
X131530312Y-71132690D01*
X131570491Y-71035688D01*
X131577463Y-71018857D01*
X131601500Y-70898011D01*
X131601500Y-69841989D01*
X131577463Y-69721143D01*
X131530311Y-69607309D01*
X131530310Y-69607308D01*
X131530307Y-69607302D01*
X131461858Y-69504862D01*
X131461855Y-69504858D01*
X131371637Y-69414640D01*
X131371606Y-69414611D01*
X130809857Y-68852862D01*
X130802265Y-68845270D01*
X130802263Y-68845267D01*
X130715138Y-68758142D01*
X130653869Y-68717203D01*
X130612691Y-68689688D01*
X130612688Y-68689686D01*
X130612685Y-68689685D01*
X130532326Y-68656400D01*
X130532322Y-68656399D01*
X130525053Y-68653388D01*
X130498857Y-68642537D01*
X130438434Y-68630518D01*
X130434201Y-68629676D01*
X130378015Y-68618500D01*
X130378012Y-68618500D01*
X130378011Y-68618500D01*
X129235452Y-68618500D01*
X129168413Y-68598815D01*
X129122658Y-68546011D01*
X129112714Y-68476853D01*
X129141739Y-68413297D01*
X129147771Y-68406819D01*
X129995090Y-67559500D01*
X130918919Y-66635671D01*
X130980239Y-66602188D01*
X131049931Y-66607172D01*
X131105864Y-66649044D01*
X131130281Y-66714508D01*
X131115429Y-66782781D01*
X131109700Y-66792244D01*
X131090608Y-66820816D01*
X131090602Y-66820827D01*
X131030264Y-66966498D01*
X131030261Y-66966510D01*
X130999500Y-67121153D01*
X130999500Y-67278846D01*
X131030261Y-67433489D01*
X131030264Y-67433501D01*
X131090602Y-67579172D01*
X131090609Y-67579185D01*
X131178210Y-67710288D01*
X131178213Y-67710292D01*
X131289707Y-67821786D01*
X131289711Y-67821789D01*
X131420814Y-67909390D01*
X131420827Y-67909397D01*
X131508230Y-67945599D01*
X131566503Y-67969737D01*
X131677716Y-67991858D01*
X131739623Y-68024241D01*
X131741203Y-68025793D01*
X132738181Y-69022771D01*
X132752884Y-69049698D01*
X132769477Y-69075517D01*
X132770368Y-69081717D01*
X132771666Y-69084094D01*
X132774500Y-69110452D01*
X132774500Y-69153885D01*
X132754815Y-69220924D01*
X132721428Y-69253606D01*
X132722331Y-69254849D01*
X132552786Y-69378028D01*
X132408028Y-69522786D01*
X132287715Y-69688386D01*
X132194781Y-69870776D01*
X132131522Y-70065465D01*
X132099500Y-70267648D01*
X132099500Y-70472351D01*
X132131522Y-70674534D01*
X132194781Y-70869223D01*
X132233298Y-70944815D01*
X132279600Y-71035688D01*
X132287715Y-71051613D01*
X132408028Y-71217213D01*
X132552786Y-71361971D01*
X132700790Y-71469500D01*
X132718390Y-71482287D01*
X132834607Y-71541503D01*
X132900776Y-71575218D01*
X132900778Y-71575218D01*
X132900781Y-71575220D01*
X133005137Y-71609127D01*
X133095465Y-71638477D01*
X133196557Y-71654488D01*
X133297648Y-71670500D01*
X133297649Y-71670500D01*
X133502351Y-71670500D01*
X133502352Y-71670500D01*
X133704534Y-71638477D01*
X133899219Y-71575220D01*
X134081610Y-71482287D01*
X134216874Y-71384013D01*
X134247213Y-71361971D01*
X134247215Y-71361968D01*
X134247219Y-71361966D01*
X134391966Y-71217219D01*
X134391968Y-71217215D01*
X134391971Y-71217213D01*
X134462962Y-71119500D01*
X134512287Y-71051610D01*
X134605220Y-70869219D01*
X134668477Y-70674534D01*
X134700500Y-70472352D01*
X134700500Y-70267648D01*
X134668477Y-70065465D01*
X134609563Y-69884147D01*
X134605220Y-69870781D01*
X134605218Y-69870778D01*
X134605218Y-69870776D01*
X134571503Y-69804607D01*
X134512287Y-69688390D01*
X134470265Y-69630551D01*
X134391971Y-69522786D01*
X134247213Y-69378028D01*
X134077669Y-69254849D01*
X134078884Y-69253176D01*
X134037831Y-69207792D01*
X134025500Y-69153885D01*
X134025500Y-68867741D01*
X134025501Y-68867720D01*
X134025501Y-68738391D01*
X134001464Y-68617554D01*
X134001463Y-68617553D01*
X134001463Y-68617549D01*
X133992005Y-68594716D01*
X133992005Y-68594715D01*
X133992004Y-68594712D01*
X133979427Y-68564347D01*
X133954313Y-68503718D01*
X133954312Y-68503715D01*
X133954310Y-68503712D01*
X133954308Y-68503708D01*
X133885858Y-68401267D01*
X133885855Y-68401263D01*
X132625793Y-67141203D01*
X132592308Y-67079880D01*
X132591887Y-67077864D01*
X132569737Y-66966503D01*
X132539959Y-66894612D01*
X132509397Y-66820827D01*
X132509390Y-66820814D01*
X132421789Y-66689711D01*
X132421786Y-66689707D01*
X132310292Y-66578213D01*
X132310288Y-66578210D01*
X132179185Y-66490609D01*
X132179172Y-66490602D01*
X132033501Y-66430264D01*
X132033489Y-66430261D01*
X131878845Y-66399500D01*
X131878842Y-66399500D01*
X131721158Y-66399500D01*
X131721155Y-66399500D01*
X131566510Y-66430261D01*
X131566498Y-66430264D01*
X131420827Y-66490602D01*
X131420816Y-66490608D01*
X131392244Y-66509700D01*
X131325567Y-66530577D01*
X131258187Y-66512092D01*
X131211497Y-66460113D01*
X131200321Y-66391143D01*
X131228207Y-66327080D01*
X131235657Y-66318933D01*
X132157795Y-65396794D01*
X132219113Y-65363313D01*
X132288805Y-65368297D01*
X132344738Y-65410169D01*
X132355955Y-65428184D01*
X132388135Y-65491340D01*
X132388147Y-65491359D01*
X132420523Y-65535921D01*
X132420524Y-65535922D01*
X133100000Y-64856446D01*
X133100000Y-64862661D01*
X133127259Y-64964394D01*
X133179920Y-65055606D01*
X133254394Y-65130080D01*
X133345606Y-65182741D01*
X133447339Y-65210000D01*
X133453553Y-65210000D01*
X132774076Y-65889474D01*
X132818650Y-65921859D01*
X133000968Y-66014755D01*
X133195582Y-66077990D01*
X133397683Y-66110000D01*
X133602317Y-66110000D01*
X133804417Y-66077990D01*
X133999031Y-66014755D01*
X134181349Y-65921859D01*
X134225921Y-65889474D01*
X133546447Y-65210000D01*
X133552661Y-65210000D01*
X133654394Y-65182741D01*
X133745606Y-65130080D01*
X133820080Y-65055606D01*
X133872741Y-64964394D01*
X133900000Y-64862661D01*
X133900000Y-64856447D01*
X134579474Y-65535921D01*
X134611859Y-65491349D01*
X134704755Y-65309031D01*
X134767990Y-65114417D01*
X134800000Y-64912317D01*
X134800000Y-64707682D01*
X134767990Y-64505582D01*
X134704755Y-64310968D01*
X134611859Y-64128650D01*
X134579474Y-64084077D01*
X134579474Y-64084076D01*
X133900000Y-64763551D01*
X133900000Y-64757339D01*
X133872741Y-64655606D01*
X133820080Y-64564394D01*
X133745606Y-64489920D01*
X133654394Y-64437259D01*
X133552661Y-64410000D01*
X133546446Y-64410000D01*
X134225922Y-63730524D01*
X134225921Y-63730523D01*
X134181359Y-63698147D01*
X134181350Y-63698141D01*
X134095336Y-63654315D01*
X134044540Y-63606341D01*
X134027745Y-63538520D01*
X134039131Y-63491679D01*
X134043178Y-63482946D01*
X134054312Y-63466285D01*
X134081932Y-63399603D01*
X134101463Y-63352452D01*
X134105451Y-63332402D01*
X134125501Y-63231606D01*
X134125501Y-63108393D01*
X134125501Y-63103283D01*
X134125500Y-63103257D01*
X134125500Y-58999452D01*
X134145185Y-58932413D01*
X134197989Y-58886658D01*
X134267147Y-58876714D01*
X134330703Y-58905739D01*
X134337181Y-58911771D01*
X143288263Y-67862855D01*
X143288267Y-67862858D01*
X143390710Y-67931309D01*
X143390711Y-67931309D01*
X143390715Y-67931312D01*
X143457397Y-67958932D01*
X143504548Y-67978463D01*
X143524597Y-67982451D01*
X143589624Y-67995385D01*
X143625392Y-68002501D01*
X143625394Y-68002501D01*
X143754721Y-68002501D01*
X143754741Y-68002500D01*
X144722417Y-68002500D01*
X144782839Y-67990481D01*
X144843262Y-67978463D01*
X144876602Y-67964652D01*
X144957096Y-67931312D01*
X145037550Y-67877553D01*
X145059543Y-67862858D01*
X145146668Y-67775733D01*
X145146669Y-67775730D01*
X149167821Y-63754578D01*
X149229142Y-63721095D01*
X149298834Y-63726079D01*
X149354767Y-63767951D01*
X149379184Y-63833415D01*
X149379500Y-63842261D01*
X149379500Y-64720001D01*
X149379501Y-64720008D01*
X149390000Y-64822796D01*
X149390001Y-64822799D01*
X149410201Y-64883757D01*
X149445186Y-64989334D01*
X149537288Y-65138656D01*
X149661344Y-65262712D01*
X149810666Y-65354814D01*
X149977203Y-65409999D01*
X150079991Y-65420500D01*
X150094542Y-65420499D01*
X150161581Y-65440180D01*
X150182223Y-65456813D01*
X150411266Y-65685857D01*
X150457268Y-65731859D01*
X150559710Y-65800309D01*
X150559711Y-65800309D01*
X150559715Y-65800312D01*
X150620525Y-65825500D01*
X150673548Y-65847463D01*
X150693597Y-65851451D01*
X150762463Y-65865149D01*
X150794392Y-65871501D01*
X150794394Y-65871501D01*
X150923721Y-65871501D01*
X150923741Y-65871500D01*
X152844265Y-65871500D01*
X152911304Y-65891185D01*
X152957059Y-65943989D01*
X152967003Y-66013147D01*
X152937978Y-66076703D01*
X152917149Y-66095819D01*
X152880501Y-66122444D01*
X152752445Y-66250500D01*
X152752441Y-66250505D01*
X152646006Y-66397002D01*
X152563788Y-66558360D01*
X152563787Y-66558363D01*
X152507829Y-66730589D01*
X152479500Y-66909448D01*
X152479500Y-67090551D01*
X152507829Y-67269410D01*
X152563787Y-67441636D01*
X152563788Y-67441639D01*
X152619664Y-67551300D01*
X152642040Y-67595215D01*
X152646006Y-67602997D01*
X152752441Y-67749494D01*
X152752445Y-67749499D01*
X152880500Y-67877554D01*
X152880505Y-67877558D01*
X152977346Y-67947916D01*
X153027006Y-67983996D01*
X153105991Y-68024241D01*
X153188360Y-68066211D01*
X153188363Y-68066212D01*
X153274476Y-68094191D01*
X153360591Y-68122171D01*
X153433639Y-68133740D01*
X153520678Y-68147527D01*
X153583813Y-68177456D01*
X153620744Y-68236768D01*
X153619746Y-68306631D01*
X153581136Y-68364863D01*
X153520678Y-68392473D01*
X153360589Y-68417829D01*
X153188363Y-68473787D01*
X153188360Y-68473788D01*
X153027002Y-68556006D01*
X152880505Y-68662441D01*
X152880500Y-68662445D01*
X152752445Y-68790500D01*
X152752441Y-68790505D01*
X152646006Y-68937002D01*
X152563788Y-69098360D01*
X152563787Y-69098363D01*
X152507829Y-69270589D01*
X152479500Y-69449448D01*
X152479500Y-69630551D01*
X152507829Y-69809410D01*
X152563787Y-69981636D01*
X152563788Y-69981639D01*
X152646006Y-70142997D01*
X152752441Y-70289494D01*
X152752445Y-70289499D01*
X152880500Y-70417554D01*
X152880505Y-70417558D01*
X152977346Y-70487916D01*
X153027006Y-70523996D01*
X153131650Y-70577315D01*
X153188360Y-70606211D01*
X153188363Y-70606212D01*
X153274476Y-70634191D01*
X153360591Y-70662171D01*
X153438648Y-70674534D01*
X153539449Y-70690500D01*
X153539454Y-70690500D01*
X153720551Y-70690500D01*
X153807259Y-70676765D01*
X153899409Y-70662171D01*
X154071639Y-70606211D01*
X154232994Y-70523996D01*
X154379501Y-70417553D01*
X154507553Y-70289501D01*
X154613996Y-70142994D01*
X154696211Y-69981639D01*
X154752171Y-69809409D01*
X154766422Y-69719425D01*
X154777527Y-69649321D01*
X154807456Y-69586186D01*
X154866768Y-69549255D01*
X154936630Y-69550253D01*
X154994863Y-69588863D01*
X155022473Y-69649321D01*
X155047829Y-69809410D01*
X155103787Y-69981636D01*
X155103788Y-69981639D01*
X155186006Y-70142997D01*
X155292441Y-70289494D01*
X155292445Y-70289499D01*
X155420500Y-70417554D01*
X155420505Y-70417558D01*
X155517346Y-70487916D01*
X155567006Y-70523996D01*
X155671650Y-70577315D01*
X155728360Y-70606211D01*
X155728363Y-70606212D01*
X155814476Y-70634191D01*
X155900591Y-70662171D01*
X155978648Y-70674534D01*
X156079449Y-70690500D01*
X156079454Y-70690500D01*
X156260550Y-70690500D01*
X156321534Y-70680840D01*
X156377103Y-70672039D01*
X156446394Y-70680993D01*
X156499847Y-70725989D01*
X156520487Y-70792740D01*
X156520500Y-70794512D01*
X156520500Y-71149338D01*
X156544535Y-71270171D01*
X156544540Y-71270188D01*
X156591685Y-71384008D01*
X156591687Y-71384012D01*
X156607415Y-71407549D01*
X156607416Y-71407551D01*
X156660140Y-71486458D01*
X156660141Y-71486459D01*
X156660142Y-71486460D01*
X156747267Y-71573585D01*
X156747268Y-71573585D01*
X156754335Y-71580652D01*
X156754334Y-71580652D01*
X156754338Y-71580655D01*
X158865181Y-73691498D01*
X158898666Y-73752821D01*
X158901500Y-73779179D01*
X158901500Y-74062135D01*
X158881815Y-74129174D01*
X158829011Y-74174929D01*
X158759853Y-74184873D01*
X158696297Y-74155848D01*
X158689819Y-74149816D01*
X155741252Y-71201250D01*
X155731271Y-71191269D01*
X155731270Y-71191267D01*
X155644145Y-71104142D01*
X155592246Y-71069464D01*
X155551949Y-71042538D01*
X155541698Y-71035688D01*
X155501066Y-71018858D01*
X155444674Y-70995500D01*
X155427864Y-70988537D01*
X155367441Y-70976518D01*
X155363962Y-70975826D01*
X155307022Y-70964500D01*
X155307019Y-70964500D01*
X155307018Y-70964500D01*
X151904500Y-70964500D01*
X151837461Y-70944815D01*
X151791706Y-70892011D01*
X151780500Y-70840500D01*
X151780499Y-68819998D01*
X151780498Y-68819981D01*
X151769999Y-68717203D01*
X151769998Y-68717200D01*
X151754470Y-68670339D01*
X151714814Y-68550666D01*
X151622712Y-68401344D01*
X151498656Y-68277288D01*
X151349334Y-68185186D01*
X151182797Y-68130001D01*
X151182795Y-68130000D01*
X151080010Y-68119500D01*
X147979998Y-68119500D01*
X147979981Y-68119501D01*
X147877203Y-68130000D01*
X147877200Y-68130001D01*
X147710668Y-68185185D01*
X147710663Y-68185187D01*
X147561342Y-68277289D01*
X147437289Y-68401342D01*
X147345187Y-68550663D01*
X147345185Y-68550668D01*
X147290001Y-68717203D01*
X147279500Y-68819983D01*
X147279500Y-69620500D01*
X147259815Y-69687539D01*
X147207011Y-69733294D01*
X147155500Y-69744500D01*
X140958389Y-69744500D01*
X140897971Y-69756518D01*
X140854743Y-69765116D01*
X140837546Y-69768537D01*
X140723716Y-69815687D01*
X140641265Y-69870780D01*
X140621266Y-69884142D01*
X140621260Y-69884147D01*
X133852227Y-76653181D01*
X133790904Y-76686666D01*
X133764546Y-76689500D01*
X132799998Y-76689500D01*
X132799980Y-76689501D01*
X132697203Y-76700000D01*
X132697200Y-76700001D01*
X132530668Y-76755185D01*
X132530663Y-76755187D01*
X132381342Y-76847289D01*
X132257289Y-76971342D01*
X132165187Y-77120663D01*
X132165186Y-77120666D01*
X132112551Y-77279506D01*
X132072781Y-77336949D01*
X132008265Y-77363772D01*
X131994847Y-77364500D01*
X131255154Y-77364500D01*
X131188115Y-77344815D01*
X131142360Y-77292011D01*
X131137448Y-77279504D01*
X131115060Y-77211943D01*
X131084814Y-77120666D01*
X130992712Y-76971344D01*
X130868656Y-76847288D01*
X130719334Y-76755186D01*
X130552797Y-76700001D01*
X130552795Y-76700000D01*
X130450010Y-76689500D01*
X129249998Y-76689500D01*
X129249981Y-76689501D01*
X129147203Y-76700000D01*
X129147200Y-76700001D01*
X128980668Y-76755185D01*
X128980663Y-76755187D01*
X128831342Y-76847289D01*
X128707289Y-76971342D01*
X128615187Y-77120663D01*
X128615186Y-77120666D01*
X128562551Y-77279506D01*
X128522781Y-77336949D01*
X128458265Y-77363772D01*
X128444847Y-77364500D01*
X127705154Y-77364500D01*
X127638115Y-77344815D01*
X127592360Y-77292011D01*
X127587448Y-77279504D01*
X127565060Y-77211943D01*
X127534814Y-77120666D01*
X127442712Y-76971344D01*
X127318656Y-76847288D01*
X127169334Y-76755186D01*
X127002797Y-76700001D01*
X127002795Y-76700000D01*
X126900010Y-76689500D01*
X125699998Y-76689500D01*
X125699981Y-76689501D01*
X125597203Y-76700000D01*
X125597200Y-76700001D01*
X125430668Y-76755185D01*
X125430663Y-76755187D01*
X125281342Y-76847289D01*
X125157289Y-76971342D01*
X125065187Y-77120663D01*
X125065186Y-77120666D01*
X125012551Y-77279506D01*
X124972781Y-77336949D01*
X124908265Y-77363772D01*
X124894847Y-77364500D01*
X124155154Y-77364500D01*
X124088115Y-77344815D01*
X124042360Y-77292011D01*
X124037448Y-77279504D01*
X124015060Y-77211943D01*
X123984814Y-77120666D01*
X123892712Y-76971344D01*
X123768656Y-76847288D01*
X123619334Y-76755186D01*
X123452797Y-76700001D01*
X123452795Y-76700000D01*
X123350010Y-76689500D01*
X122149998Y-76689500D01*
X122149981Y-76689501D01*
X122047203Y-76700000D01*
X122047200Y-76700001D01*
X121880668Y-76755185D01*
X121880663Y-76755187D01*
X121731342Y-76847289D01*
X121607289Y-76971342D01*
X121515187Y-77120663D01*
X121515186Y-77120666D01*
X121460001Y-77287203D01*
X121460001Y-77287204D01*
X121460000Y-77287204D01*
X121449500Y-77389983D01*
X121449500Y-78354547D01*
X121429815Y-78421586D01*
X121413181Y-78442228D01*
X111817229Y-88038181D01*
X111755906Y-88071666D01*
X111729548Y-88074500D01*
X86925091Y-88074500D01*
X86858052Y-88054815D01*
X86812297Y-88002011D01*
X86802353Y-87932853D01*
X86831378Y-87869297D01*
X86852207Y-87850181D01*
X86892652Y-87820796D01*
X86892652Y-87820795D01*
X86892656Y-87820793D01*
X87070793Y-87642656D01*
X87218870Y-87438845D01*
X87333241Y-87214379D01*
X87411090Y-86974785D01*
X87450500Y-86725962D01*
X87450500Y-86474038D01*
X87411090Y-86225215D01*
X87333241Y-85985621D01*
X87333239Y-85985618D01*
X87333239Y-85985616D01*
X87259370Y-85840641D01*
X87218870Y-85761155D01*
X87074817Y-85562882D01*
X87070798Y-85557350D01*
X87070794Y-85557345D01*
X86892654Y-85379205D01*
X86892649Y-85379201D01*
X86688848Y-85231132D01*
X86688847Y-85231131D01*
X86688845Y-85231130D01*
X86618747Y-85195413D01*
X86464383Y-85116760D01*
X86224785Y-85038910D01*
X85975962Y-84999500D01*
X84424038Y-84999500D01*
X84299626Y-85019205D01*
X84175214Y-85038910D01*
X83935616Y-85116760D01*
X83711151Y-85231132D01*
X83507350Y-85379201D01*
X83507345Y-85379205D01*
X83329205Y-85557345D01*
X83329201Y-85557350D01*
X83181132Y-85761151D01*
X83066760Y-85985616D01*
X82988910Y-86225214D01*
X82988910Y-86225215D01*
X82949500Y-86474038D01*
X82300500Y-86474038D01*
X82300500Y-77891995D01*
X90769500Y-77891995D01*
X90769500Y-78128004D01*
X90769501Y-78128020D01*
X90800306Y-78362010D01*
X90861394Y-78589993D01*
X90951714Y-78808045D01*
X90951719Y-78808056D01*
X90983221Y-78862618D01*
X91069727Y-79012450D01*
X91069729Y-79012452D01*
X91069730Y-79012454D01*
X91213406Y-79199697D01*
X91213412Y-79199704D01*
X91380295Y-79366587D01*
X91380301Y-79366592D01*
X91567550Y-79510273D01*
X91698918Y-79586118D01*
X91771943Y-79628280D01*
X91771948Y-79628282D01*
X91771951Y-79628284D01*
X91990007Y-79718606D01*
X92217986Y-79779693D01*
X92451989Y-79810500D01*
X92451996Y-79810500D01*
X92688004Y-79810500D01*
X92688011Y-79810500D01*
X92922014Y-79779693D01*
X93149993Y-79718606D01*
X93368049Y-79628284D01*
X93572450Y-79510273D01*
X93759699Y-79366592D01*
X93926592Y-79199699D01*
X94070273Y-79012450D01*
X94188284Y-78808049D01*
X94278606Y-78589993D01*
X94339693Y-78362014D01*
X94370500Y-78128011D01*
X94370500Y-77891989D01*
X94339693Y-77657986D01*
X94278606Y-77430007D01*
X94188284Y-77211951D01*
X94188282Y-77211948D01*
X94188280Y-77211943D01*
X94135582Y-77120668D01*
X94070273Y-77007550D01*
X93926592Y-76820301D01*
X93926587Y-76820295D01*
X93759704Y-76653412D01*
X93759697Y-76653406D01*
X93572454Y-76509730D01*
X93572453Y-76509729D01*
X93572450Y-76509727D01*
X93490957Y-76462677D01*
X93368056Y-76391719D01*
X93368045Y-76391714D01*
X93149993Y-76301394D01*
X92922010Y-76240306D01*
X92688020Y-76209501D01*
X92688017Y-76209500D01*
X92688011Y-76209500D01*
X92451989Y-76209500D01*
X92451983Y-76209500D01*
X92451979Y-76209501D01*
X92217989Y-76240306D01*
X91990006Y-76301394D01*
X91771954Y-76391714D01*
X91771943Y-76391719D01*
X91567545Y-76509730D01*
X91380302Y-76653406D01*
X91380295Y-76653412D01*
X91213412Y-76820295D01*
X91213406Y-76820302D01*
X91069730Y-77007545D01*
X90951719Y-77211943D01*
X90951714Y-77211954D01*
X90861394Y-77430006D01*
X90800306Y-77657989D01*
X90769501Y-77891979D01*
X90769500Y-77891995D01*
X82300500Y-77891995D01*
X82300500Y-68895837D01*
X86619500Y-68895837D01*
X86619500Y-69124162D01*
X86655215Y-69349660D01*
X86725770Y-69566803D01*
X86810602Y-69733294D01*
X86829421Y-69770228D01*
X86963621Y-69954937D01*
X87125063Y-70116379D01*
X87309772Y-70250579D01*
X87386147Y-70289494D01*
X87513196Y-70354229D01*
X87513198Y-70354229D01*
X87513201Y-70354231D01*
X87577497Y-70375122D01*
X87730339Y-70424784D01*
X87955838Y-70460500D01*
X87955843Y-70460500D01*
X88184162Y-70460500D01*
X88409660Y-70424784D01*
X88431899Y-70417558D01*
X88626799Y-70354231D01*
X88830228Y-70250579D01*
X89014937Y-70116379D01*
X89176379Y-69954937D01*
X89310579Y-69770228D01*
X89414231Y-69566799D01*
X89484784Y-69349660D01*
X89495241Y-69283638D01*
X89520500Y-69124162D01*
X89520500Y-68895837D01*
X113619500Y-68895837D01*
X113619500Y-69124162D01*
X113655215Y-69349660D01*
X113725770Y-69566803D01*
X113810602Y-69733294D01*
X113829421Y-69770228D01*
X113963621Y-69954937D01*
X114125063Y-70116379D01*
X114309772Y-70250579D01*
X114386147Y-70289494D01*
X114513196Y-70354229D01*
X114513198Y-70354229D01*
X114513201Y-70354231D01*
X114577497Y-70375122D01*
X114730339Y-70424784D01*
X114955838Y-70460500D01*
X114955843Y-70460500D01*
X115184162Y-70460500D01*
X115409660Y-70424784D01*
X115431899Y-70417558D01*
X115626799Y-70354231D01*
X115830228Y-70250579D01*
X116014937Y-70116379D01*
X116176379Y-69954937D01*
X116310579Y-69770228D01*
X116414231Y-69566799D01*
X116484784Y-69349660D01*
X116495241Y-69283638D01*
X116520500Y-69124162D01*
X116520500Y-68895837D01*
X116484784Y-68670339D01*
X116414229Y-68453196D01*
X116337818Y-68303232D01*
X116310579Y-68249772D01*
X116176379Y-68065063D01*
X116014937Y-67903621D01*
X115830228Y-67769421D01*
X115791119Y-67749494D01*
X115626803Y-67665770D01*
X115409660Y-67595215D01*
X115184162Y-67559500D01*
X115184157Y-67559500D01*
X114955843Y-67559500D01*
X114955838Y-67559500D01*
X114730339Y-67595215D01*
X114513196Y-67665770D01*
X114309771Y-67769421D01*
X114125061Y-67903622D01*
X113963622Y-68065061D01*
X113829421Y-68249771D01*
X113725770Y-68453196D01*
X113655215Y-68670339D01*
X113619500Y-68895837D01*
X89520500Y-68895837D01*
X89484784Y-68670339D01*
X89414229Y-68453196D01*
X89337818Y-68303232D01*
X89310579Y-68249772D01*
X89176379Y-68065063D01*
X89014937Y-67903621D01*
X88830228Y-67769421D01*
X88791119Y-67749494D01*
X88626803Y-67665770D01*
X88409660Y-67595215D01*
X88184162Y-67559500D01*
X88184157Y-67559500D01*
X87955843Y-67559500D01*
X87955838Y-67559500D01*
X87730339Y-67595215D01*
X87513196Y-67665770D01*
X87309771Y-67769421D01*
X87125061Y-67903622D01*
X86963622Y-68065061D01*
X86829421Y-68249771D01*
X86725770Y-68453196D01*
X86655215Y-68670339D01*
X86619500Y-68895837D01*
X82300500Y-68895837D01*
X82300500Y-58872378D01*
X99119500Y-58872378D01*
X99119500Y-59147621D01*
X99150315Y-59421108D01*
X99150317Y-59421124D01*
X99211561Y-59689453D01*
X99211565Y-59689465D01*
X99302467Y-59949246D01*
X99421884Y-60197218D01*
X99421886Y-60197221D01*
X99568319Y-60430268D01*
X99739925Y-60645455D01*
X99934545Y-60840075D01*
X100149732Y-61011681D01*
X100382779Y-61158114D01*
X100630757Y-61277534D01*
X100825865Y-61345805D01*
X100890534Y-61368434D01*
X100890546Y-61368438D01*
X101158879Y-61429683D01*
X101432378Y-61460499D01*
X101432379Y-61460500D01*
X101432383Y-61460500D01*
X101707621Y-61460500D01*
X101707621Y-61460499D01*
X101981121Y-61429683D01*
X102249454Y-61368438D01*
X102509243Y-61277534D01*
X102757221Y-61158114D01*
X102990268Y-61011681D01*
X103205455Y-60840075D01*
X103400075Y-60645455D01*
X103571681Y-60430268D01*
X103718114Y-60197221D01*
X103837534Y-59949243D01*
X103928438Y-59689454D01*
X103989683Y-59421121D01*
X104020500Y-59147617D01*
X104020500Y-58872383D01*
X103989683Y-58598879D01*
X103928438Y-58330546D01*
X103837534Y-58070757D01*
X103718114Y-57822779D01*
X103571681Y-57589732D01*
X103400075Y-57374545D01*
X103205455Y-57179925D01*
X102990268Y-57008319D01*
X102757221Y-56861886D01*
X102757218Y-56861884D01*
X102509246Y-56742467D01*
X102249465Y-56651565D01*
X102249453Y-56651561D01*
X101981124Y-56590317D01*
X101981108Y-56590315D01*
X101707621Y-56559500D01*
X101707617Y-56559500D01*
X101432383Y-56559500D01*
X101432379Y-56559500D01*
X101158891Y-56590315D01*
X101158875Y-56590317D01*
X100890546Y-56651561D01*
X100890534Y-56651565D01*
X100630753Y-56742467D01*
X100382781Y-56861884D01*
X100149733Y-57008318D01*
X99934545Y-57179924D01*
X99739924Y-57374545D01*
X99568318Y-57589733D01*
X99421884Y-57822781D01*
X99302467Y-58070753D01*
X99211565Y-58330534D01*
X99211561Y-58330546D01*
X99150317Y-58598875D01*
X99150315Y-58598891D01*
X99119500Y-58872378D01*
X82300500Y-58872378D01*
X82300500Y-47297648D01*
X84299500Y-47297648D01*
X84299500Y-47502351D01*
X84331522Y-47704534D01*
X84394781Y-47899223D01*
X84487715Y-48081613D01*
X84608028Y-48247213D01*
X84752786Y-48391971D01*
X84907749Y-48504556D01*
X84918390Y-48512287D01*
X85034607Y-48571503D01*
X85100776Y-48605218D01*
X85100778Y-48605218D01*
X85100781Y-48605220D01*
X85205137Y-48639127D01*
X85295465Y-48668477D01*
X85396557Y-48684488D01*
X85497648Y-48700500D01*
X85497649Y-48700500D01*
X85702351Y-48700500D01*
X85702352Y-48700500D01*
X85904534Y-48668477D01*
X86099219Y-48605220D01*
X86281610Y-48512287D01*
X86374590Y-48444732D01*
X86447213Y-48391971D01*
X86447215Y-48391968D01*
X86447219Y-48391966D01*
X86591966Y-48247219D01*
X86591968Y-48247215D01*
X86591971Y-48247213D01*
X86644732Y-48174590D01*
X86712287Y-48081610D01*
X86805220Y-47899219D01*
X86868477Y-47704534D01*
X86900500Y-47502352D01*
X86900500Y-47497648D01*
X157299500Y-47497648D01*
X157299500Y-47702351D01*
X157331522Y-47904534D01*
X157394781Y-48099223D01*
X157487715Y-48281613D01*
X157608028Y-48447213D01*
X157752786Y-48591971D01*
X157858090Y-48668477D01*
X157918390Y-48712287D01*
X158034607Y-48771503D01*
X158100776Y-48805218D01*
X158100778Y-48805218D01*
X158100781Y-48805220D01*
X158205137Y-48839127D01*
X158295465Y-48868477D01*
X158396557Y-48884488D01*
X158497648Y-48900500D01*
X158497649Y-48900500D01*
X158702351Y-48900500D01*
X158702352Y-48900500D01*
X158904534Y-48868477D01*
X159099219Y-48805220D01*
X159281610Y-48712287D01*
X159374590Y-48644732D01*
X159447213Y-48591971D01*
X159447215Y-48591968D01*
X159447219Y-48591966D01*
X159591966Y-48447219D01*
X159591968Y-48447215D01*
X159591971Y-48447213D01*
X159644732Y-48374590D01*
X159712287Y-48281610D01*
X159805220Y-48099219D01*
X159868477Y-47904534D01*
X159900500Y-47702352D01*
X159900500Y-47497648D01*
X159868477Y-47295466D01*
X159805220Y-47100781D01*
X159805218Y-47100778D01*
X159805218Y-47100776D01*
X159771503Y-47034607D01*
X159712287Y-46918390D01*
X159699490Y-46900776D01*
X159591971Y-46752786D01*
X159447213Y-46608028D01*
X159281613Y-46487715D01*
X159281612Y-46487714D01*
X159281610Y-46487713D01*
X159224653Y-46458691D01*
X159099223Y-46394781D01*
X158904534Y-46331522D01*
X158729995Y-46303878D01*
X158702352Y-46299500D01*
X158497648Y-46299500D01*
X158473329Y-46303351D01*
X158295465Y-46331522D01*
X158100776Y-46394781D01*
X157918386Y-46487715D01*
X157752786Y-46608028D01*
X157608028Y-46752786D01*
X157487715Y-46918386D01*
X157394781Y-47100776D01*
X157331522Y-47295465D01*
X157299500Y-47497648D01*
X86900500Y-47497648D01*
X86900500Y-47297648D01*
X86868477Y-47095466D01*
X86805220Y-46900781D01*
X86805218Y-46900778D01*
X86805218Y-46900776D01*
X86771503Y-46834607D01*
X86712287Y-46718390D01*
X86704556Y-46707749D01*
X86591971Y-46552786D01*
X86447213Y-46408028D01*
X86281613Y-46287715D01*
X86281612Y-46287714D01*
X86281610Y-46287713D01*
X86224653Y-46258691D01*
X86099223Y-46194781D01*
X85904534Y-46131522D01*
X85729995Y-46103878D01*
X85702352Y-46099500D01*
X85497648Y-46099500D01*
X85473329Y-46103351D01*
X85295465Y-46131522D01*
X85100776Y-46194781D01*
X84918386Y-46287715D01*
X84752786Y-46408028D01*
X84608028Y-46552786D01*
X84487715Y-46718386D01*
X84394781Y-46900776D01*
X84331522Y-47095465D01*
X84299500Y-47297648D01*
X82300500Y-47297648D01*
X82300500Y-45256961D01*
X82301280Y-45243077D01*
X82301280Y-45243076D01*
X82311460Y-45152729D01*
X82317635Y-45125670D01*
X82345353Y-45046456D01*
X82357396Y-45021450D01*
X82402046Y-44950389D01*
X82419351Y-44928690D01*
X82478690Y-44869351D01*
X82500389Y-44852046D01*
X82571450Y-44807396D01*
X82596456Y-44795353D01*
X82675670Y-44767635D01*
X82702733Y-44761459D01*
X82765419Y-44754396D01*
X82793079Y-44751280D01*
X82806962Y-44750500D01*
X82865892Y-44750500D01*
X161684108Y-44750500D01*
X161743038Y-44750500D01*
X161756922Y-44751280D01*
G37*
%TD.AperFunction*%
%TD*%
M02*
